<?xml version="1.0" encoding="UTF-8"?>
<svg width="24px" height="24px" viewBox="0 0 24 24" version="1.1" xmlns="http://www.w3.org/2000/svg" xmlns:xlink="http://www.w3.org/1999/xlink">
    <title>编组 33</title>
    <g id="页面-1" stroke="none" stroke-width="1" fill="none" fill-rule="evenodd">
        <g id="上海银行运营可视化0305日历展开" transform="translate(-40.000000, -837.000000)">
            <g id="编组-33" transform="translate(40.000000, 837.000000)">
                <circle id="椭圆形备份-52" fill="#E9F0FF" cx="13.262069" cy="12.9103448" r="10.262069"></circle>
                <g id="编组-32" fill-rule="nonzero">
                    <path d="M12.0922222,7.22222223 C12.3111111,7.22222223 12.52,7.315 12.6661111,7.47777779 C12.8605556,7.68333334 13.4438889,8.22388891 13.9255555,8.22388891 C14.3977778,8.22388891 14.9905555,7.69333336 15.1755555,7.48722223 C15.3814517,7.27305818 15.6894086,7.19125043 15.9744445,7.275 L16.0461111,7.30111111 L16.0644445,7.31055557 L17.5922222,8.21388891 L17.6105555,8.22388891 C17.8869063,8.4435778 17.9851315,8.81927765 17.8516667,9.14611111 C17.8516667,9.14611111 17.7127778,9.48 17.7127778,9.785 C17.7127778,10.6738889 18.3666667,11.4088889 19.2022222,11.4605556 L19.2955555,11.4633333 L19.3511111,11.4633333 C19.6011111,11.4533333 19.8144445,11.6888889 19.8794445,12.0616667 C19.8794445,12.0911111 20,12.7883333 20,13.3377778 C20,13.8777778 19.8794445,14.575 19.8705555,14.6044445 C19.8105555,14.94 19.6322222,15.1744445 19.4016667,15.2011111 L19.3427778,15.2033333 L19.2872222,15.2033333 C18.4166667,15.2033333 17.7038889,15.9494445 17.7038889,16.8822222 C17.7038889,17.1966667 17.8427778,17.53 17.8427778,17.53 C17.9716667,17.84 17.8927778,18.1922222 17.6588889,18.4061111 L17.6016667,18.4527778 L17.5833333,18.4627778 L16.0277778,19.3755556 L16.0094445,19.3855556 C15.9166667,19.4244445 15.8244445,19.4444445 15.7222222,19.4444445 C15.5,19.4344445 15.2872222,19.3466667 15.1483333,19.1794445 C14.9538889,18.9538889 14.3516667,18.3844445 13.8611111,18.3844445 C13.3705556,18.3844445 12.7594445,18.9538889 12.5833333,19.16 C12.3823906,19.3822884 12.0713083,19.4688203 11.7844445,19.3822222 L11.7127778,19.3561111 L11.6944445,19.3466667 L10.1944445,18.4633333 L10.1761111,18.4533333 C9.89833334,18.2372222 9.80555557,17.8544445 9.935,17.5305556 C9.935,17.5205556 10.0738889,17.1866667 10.0738889,16.8822222 C10.0738889,15.9927778 9.41944443,15.2577778 8.58444445,15.2066667 L8.49055555,15.2033333 L8.42555555,15.2033333 C8.17555555,15.2033333 7.97222221,14.9677778 7.90722223,14.6044445 C7.89833334,14.575 7.77777777,13.8877778 7.77777777,13.3377778 C7.77777777,12.8403419 7.88049966,12.2075214 7.90329439,12.0899489 L7.90722223,12.0716667 C7.96666668,11.7366667 8.145,11.5016667 8.37611111,11.475 L8.435,11.4727778 L8.49055555,11.4727778 C9.36111109,11.4727778 10.0738889,10.7266667 10.0738889,9.79388891 C10.0738889,9.48000002 9.935,9.14611113 9.935,9.14611111 C9.80661239,8.84439727 9.88002566,8.49463075 10.1188889,8.27 L10.1755555,8.22333334 L10.2033333,8.21388891 L11.7866667,7.29111111 L11.805,7.28111111 C11.8883333,7.24222223 11.9905555,7.22222223 12.0922222,7.22222223 Z M12.4211111,8.88888891 L12.4044445,8.88888891 L11.185,9.60611111 C11.2105555,9.67833334 11.345,10.0283333 11.345,10.3866667 C11.345,11.4633333 10.5461111,12.36 9.53722223,12.4138889 C9.52055557,12.5033334 9.44444445,12.9788889 9.44444445,13.3377778 C9.44444445,13.6966667 9.52,14.1811111 9.53722223,14.2616667 C10.5544445,14.3155556 11.345,15.2033333 11.345,16.2888889 C11.345,16.6177778 11.2322222,16.9388889 11.1938889,17.0455556 L11.185,17.0688889 L12.3372222,17.76 C12.3538889,17.76 12.3705556,17.7505555 12.3788889,17.7505556 C12.5172222,17.6016667 12.6661111,17.4638889 12.825,17.3383333 C13.1944445,17.0422222 13.5394445,16.8988889 13.8677778,16.8988889 C14.1955555,16.8988889 14.5488889,17.0511111 14.9188889,17.3472222 C15.1711111,17.5444445 15.3394444,17.7416667 15.3644445,17.7688889 C15.37,17.7688889 15.3794445,17.7727778 15.39,17.7755556 L15.4066667,17.7777778 L16.6011111,17.0694445 C16.575,16.9972222 16.4405556,16.6472222 16.4405555,16.2888889 C16.4405555,15.2122222 17.2394444,14.3155556 18.2488889,14.2616667 C18.2655555,14.1811111 18.3333333,13.6966667 18.3333333,13.3377778 C18.3333333,12.9788889 18.2577778,12.4944445 18.2405555,12.4138889 C17.2233333,12.36 16.4327778,11.4627778 16.4327778,10.3866667 C16.4327778,10.0577778 16.5455555,9.73666668 16.5838889,9.63 L16.5922222,9.60611111 L15.415,8.90666668 L15.3916667,8.90666668 C15.3820369,8.90753165 15.372729,8.91057096 15.3644445,8.91555557 C15.23,9.05000002 15.0866667,9.18444445 14.9272222,9.30111111 C14.5655556,9.57888889 14.2211111,9.71388889 13.9094445,9.71388891 C13.5983333,9.71388891 13.2455556,9.57055557 12.8838889,9.29222223 C12.7260807,9.17476753 12.5796928,9.04270218 12.4466667,8.89777779 L12.4355555,8.89166668 L12.4211111,8.88944445 L12.4211111,8.88888891 Z" id="形状结合" fill="#FE7720"></path>
                    <path d="M17.2222222,-1.93918955e-13 C17.8358719,-1.93918955e-13 18.3333333,0.49746139 18.3333333,1.11111111 L18.3333333,6.11111111 L16.6666667,6.11111111 L16.6666667,1.66666668 L1.66666666,1.66666668 L1.66666666,16.1111111 L7.22222223,16.1111111 L7.22222223,17.7777778 L1.11111111,17.7777778 C0.49746139,17.7777778 2.96059473e-15,17.2803164 2.96059473e-15,16.6666667 L2.96059473e-15,1.11111111 C2.96059473e-15,0.49746139 0.49746139,-1.93918955e-13 1.11111111,-1.93918955e-13 L17.2222222,-1.93918955e-13 Z" id="路径" fill="#3057D6"></path>
                    <path d="M13.75,11.1111111 C14.9005932,11.1111111 15.8333333,12.0438512 15.8333333,13.1944444 C15.8333333,14.3450377 14.9005932,15.2777778 13.75,15.2777778 C12.5994068,15.2777778 11.6666667,14.3450377 11.6666667,13.1944444 C11.6666667,12.0438512 12.5994068,11.1111111 13.75,11.1111111 Z M13.75,11.9444444 C13.0596441,11.9444444 12.5,12.5040885 12.5,13.1944444 C12.5,13.8848004 13.0596441,14.4444444 13.75,14.4444444 C14.4403559,14.4444444 15,13.8848004 15,13.1944444 C15,12.5040885 14.4403559,11.9444444 13.75,11.9444444 Z" id="形状结合" fill="#FE7720"></path>
                    <polygon id="路径" fill="#3057D6" points="5 6.66666668 5 12.7777778 3.33333334 12.7777778 3.33333334 6.66666668"></polygon>
                    <polygon id="路径" fill="#3057D6" points="8.33333334 3.33333334 8.33333334 9.44444445 6.66666666 9.44444445 6.66666666 3.33333334"></polygon>
                    <polygon id="路径" fill="#3057D6" points="5 3.33333334 5 5 3.33333334 5 3.33333334 3.33333334"></polygon>
                </g>
            </g>
        </g>
    </g>
</svg>