<svg xmlns="http://www.w3.org/2000/svg" xmlns:xlink="http://www.w3.org/1999/xlink" viewBox="0 0 75 77.38"><defs><style>.cls-1,.cls-116,.cls-117{fill:none;}.cls-2{isolation:isolate;}.cls-3{clip-path:url(#clip-path);}.cls-4{clip-path:url(#clip-path-2);}.cls-5,.cls-6,.cls-7{fill:#50c9ff;}.cls-5{opacity:0.5;}.cls-6{opacity:0.3;}.cls-7{opacity:0.2;}.cls-8{fill:#3057d6;opacity:0.4;}.cls-9{fill:url(#linear-gradient);}.cls-10{fill:url(#linear-gradient-2);}.cls-11{fill:url(#未命名的渐变_5);}.cls-12{fill:url(#linear-gradient-3);}.cls-13{fill:url(#linear-gradient-4);}.cls-14{fill:url(#linear-gradient-5);}.cls-15{opacity:0.99;fill:url(#未命名的渐变_131);}.cls-16{opacity:0.98;fill:url(#未命名的渐变_130);}.cls-17{opacity:0.97;fill:url(#未命名的渐变_129);}.cls-18{opacity:0.96;fill:url(#未命名的渐变_127);}.cls-19{opacity:0.95;fill:url(#未命名的渐变_126);}.cls-20{opacity:0.94;fill:url(#未命名的渐变_125);}.cls-21{opacity:0.93;fill:url(#未命名的渐变_124);}.cls-22{opacity:0.92;fill:url(#未命名的渐变_123);}.cls-23{opacity:0.91;fill:url(#未命名的渐变_121);}.cls-24{opacity:0.9;fill:url(#未命名的渐变_119);}.cls-25{opacity:0.89;fill:url(#未命名的渐变_118);}.cls-26{opacity:0.88;fill:url(#未命名的渐变_117);}.cls-27{opacity:0.87;fill:url(#未命名的渐变_116);}.cls-28{opacity:0.86;fill:url(#未命名的渐变_115);}.cls-29{opacity:0.85;fill:url(#未命名的渐变_113);}.cls-30{opacity:0.84;fill:url(#未命名的渐变_112);}.cls-31{opacity:0.83;fill:url(#未命名的渐变_111);}.cls-32{opacity:0.82;fill:url(#未命名的渐变_110);}.cls-33{opacity:0.81;fill:url(#未命名的渐变_109);}.cls-34{opacity:0.8;fill:url(#未命名的渐变_108);}.cls-35{opacity:0.79;fill:url(#未命名的渐变_107);}.cls-36{opacity:0.78;fill:url(#未命名的渐变_106);}.cls-37{opacity:0.77;fill:url(#未命名的渐变_105);}.cls-38{opacity:0.76;fill:url(#未命名的渐变_104);}.cls-39{opacity:0.75;fill:url(#未命名的渐变_102);}.cls-40{opacity:0.74;fill:url(#未命名的渐变_101);}.cls-41{opacity:0.73;fill:url(#未命名的渐变_100);}.cls-42{opacity:0.72;fill:url(#未命名的渐变_99);}.cls-43{opacity:0.71;fill:url(#未命名的渐变_98);}.cls-44{opacity:0.7;fill:url(#未命名的渐变_97);}.cls-45{opacity:0.69;fill:url(#未命名的渐变_96);}.cls-46{opacity:0.68;fill:url(#未命名的渐变_95);}.cls-47{opacity:0.67;fill:url(#未命名的渐变_94);}.cls-48{opacity:0.66;fill:url(#未命名的渐变_93);}.cls-49{opacity:0.65;fill:url(#未命名的渐变_92);}.cls-50{opacity:0.64;fill:url(#未命名的渐变_91);}.cls-51{opacity:0.63;fill:url(#未命名的渐变_90);}.cls-52{opacity:0.62;fill:url(#未命名的渐变_89);}.cls-53{opacity:0.61;fill:url(#未命名的渐变_88);}.cls-54{opacity:0.6;fill:url(#未命名的渐变_87);}.cls-55{opacity:0.59;fill:url(#未命名的渐变_86);}.cls-56{opacity:0.58;fill:url(#未命名的渐变_85);}.cls-57{opacity:0.57;fill:url(#未命名的渐变_84);}.cls-58{opacity:0.56;fill:url(#未命名的渐变_83);}.cls-59{opacity:0.55;fill:url(#未命名的渐变_82);}.cls-60{opacity:0.54;fill:url(#未命名的渐变_81);}.cls-61{opacity:0.53;fill:url(#未命名的渐变_80);}.cls-62{opacity:0.52;fill:url(#未命名的渐变_79);}.cls-63{opacity:0.51;fill:url(#未命名的渐变_78);}.cls-64{opacity:0.5;fill:url(#未命名的渐变_77);}.cls-65{opacity:0.5;fill:url(#未命名的渐变_76);}.cls-66{opacity:0.49;fill:url(#未命名的渐变_75);}.cls-67{opacity:0.48;fill:url(#未命名的渐变_74);}.cls-68{opacity:0.47;fill:url(#未命名的渐变_73);}.cls-69{opacity:0.46;fill:url(#未命名的渐变_72);}.cls-70{opacity:0.45;fill:url(#未命名的渐变_71);}.cls-71{opacity:0.44;fill:url(#未命名的渐变_70);}.cls-72{opacity:0.43;fill:url(#未命名的渐变_69);}.cls-73{opacity:0.42;fill:url(#未命名的渐变_68);}.cls-74{opacity:0.41;fill:url(#未命名的渐变_67);}.cls-75{opacity:0.4;fill:url(#未命名的渐变_64);}.cls-76{opacity:0.39;fill:url(#未命名的渐变_63);}.cls-77{opacity:0.38;fill:url(#未命名的渐变_61);}.cls-78{opacity:0.37;fill:url(#未命名的渐变_60);}.cls-79{opacity:0.36;fill:url(#未命名的渐变_58);}.cls-80{opacity:0.35;fill:url(#未命名的渐变_57);}.cls-81{opacity:0.34;fill:url(#未命名的渐变_56);}.cls-82{opacity:0.33;fill:url(#未命名的渐变_54);}.cls-83{opacity:0.32;fill:url(#未命名的渐变_52);}.cls-84{opacity:0.31;fill:url(#未命名的渐变_51);}.cls-85{opacity:0.3;fill:url(#未命名的渐变_50);}.cls-86{opacity:0.29;fill:url(#未命名的渐变_49);}.cls-87{opacity:0.28;fill:url(#未命名的渐变_48);}.cls-88{opacity:0.27;fill:url(#未命名的渐变_47);}.cls-89{opacity:0.26;fill:url(#未命名的渐变_46);}.cls-90{opacity:0.25;fill:url(#未命名的渐变_45);}.cls-91{opacity:0.24;fill:url(#未命名的渐变_44);}.cls-92{opacity:0.23;fill:url(#未命名的渐变_43);}.cls-93{opacity:0.22;fill:url(#未命名的渐变_42);}.cls-94{opacity:0.21;fill:url(#未命名的渐变_41);}.cls-95{opacity:0.2;fill:url(#未命名的渐变_39);}.cls-96{opacity:0.19;fill:url(#未命名的渐变_38);}.cls-97{opacity:0.18;fill:url(#未命名的渐变_36);}.cls-98{opacity:0.17;fill:url(#未命名的渐变_29);}.cls-99{opacity:0.16;fill:url(#未命名的渐变_28);}.cls-100{opacity:0.15;fill:url(#未命名的渐变_27);}.cls-101{opacity:0.14;fill:url(#未命名的渐变_26);}.cls-102{opacity:0.13;fill:url(#未命名的渐变_24);}.cls-103{opacity:0.12;fill:url(#未命名的渐变_23);}.cls-104{opacity:0.11;fill:url(#未命名的渐变_22);}.cls-105{opacity:0.1;fill:url(#未命名的渐变_21);}.cls-106{opacity:0.09;fill:url(#未命名的渐变_20);}.cls-107{opacity:0.08;fill:url(#未命名的渐变_17);}.cls-108{opacity:0.07;fill:url(#未命名的渐变_14);}.cls-109{opacity:0.06;fill:url(#未命名的渐变_13);}.cls-110{opacity:0.05;fill:url(#未命名的渐变_11);}.cls-111{opacity:0.04;fill:url(#未命名的渐变_10);}.cls-112{opacity:0.03;fill:url(#未命名的渐变_9);}.cls-113{opacity:0.02;fill:url(#未命名的渐变_8);}.cls-114{opacity:0.01;fill:url(#未命名的渐变_7);}.cls-115{opacity:0;fill:url(#linear-gradient-6);}.cls-116,.cls-117{stroke-miterlimit:10;stroke-width:3px;opacity:0.69;}.cls-116{stroke:url(#linear-gradient-7);}.cls-117{stroke:url(#linear-gradient-8);}.cls-118{fill:#ff9800;}.cls-119{fill:url(#未命名的渐变_55);}.cls-120{fill:url(#linear-gradient-9);}.cls-121{fill:url(#linear-gradient-10);}.cls-122{fill:url(#linear-gradient-11);}.cls-123{fill:#e5e9f4;mix-blend-mode:overlay;}.cls-124{fill:url(#linear-gradient-12);}.cls-125{fill:url(#linear-gradient-13);}.cls-126{fill:url(#linear-gradient-14);}.cls-127{fill:url(#linear-gradient-15);}.cls-128{fill:url(#linear-gradient-16);}.cls-129{fill:url(#linear-gradient-17);}.cls-130{fill:url(#linear-gradient-18);}.cls-131{fill:url(#linear-gradient-19);}.cls-132{fill:url(#linear-gradient-20);}.cls-133{fill:#fff;}.cls-134{fill:#ffba05;}.cls-135{opacity:0.18;}.cls-136{fill:#647ddd;}.cls-137{fill:#ced6e9;}.cls-138{fill:#1f3598;}.cls-139{fill:#26366d;}.cls-140{fill:#3772ce;}.cls-141{fill:#e2e8f2;}.cls-142{fill:#715154;}.cls-143{mix-blend-mode:multiply;}</style><clipPath id="clip-path"><circle class="cls-1" cx="118.26" cy="-287.14" r="13.5"/></clipPath><clipPath id="clip-path-2"><circle class="cls-1" cx="176.26" cy="-287.14" r="13.5"/></clipPath><linearGradient id="linear-gradient" x1="29.79" y1="29.24" x2="50.05" y2="29.24" gradientUnits="userSpaceOnUse"><stop offset="0" stop-color="#8faaff"/><stop offset="1" stop-color="#4c66e4"/></linearGradient><linearGradient id="linear-gradient-2" x1="29.69" y1="29.55" x2="48.47" y2="29.55" gradientUnits="userSpaceOnUse"><stop offset="0" stop-color="#a4e5ff"/><stop offset="0.1" stop-color="#aae6ff"/><stop offset="0.23" stop-color="#bcebff"/><stop offset="0.39" stop-color="#d9f1ff"/><stop offset="0.51" stop-color="#f5f8ff"/><stop offset="1" stop-color="#a9e3ff"/></linearGradient><linearGradient id="未命名的渐变_5" x1="48.81" y1="42.09" x2="34.15" y2="23.2" gradientUnits="userSpaceOnUse"><stop offset="0" stop-color="#05105d"/><stop offset="1" stop-color="#1067db"/></linearGradient><linearGradient id="linear-gradient-3" x1="36.68" y1="11.28" x2="41.48" y2="11.28" xlink:href="#linear-gradient"/><linearGradient id="linear-gradient-4" x1="37.42" y1="47.49" x2="40.73" y2="47.49" xlink:href="#linear-gradient"/><linearGradient id="linear-gradient-5" x1="34.76" y1="29.34" x2="41.93" y2="29.34" gradientUnits="userSpaceOnUse"><stop offset="0" stop-color="#ffeeb3"/><stop offset="0.4" stop-color="#ffd766"/><stop offset="0.81" stop-color="#ffc11d"/><stop offset="1" stop-color="#ffb800"/></linearGradient><linearGradient id="未命名的渐变_131" x1="34.67" y1="29.4" x2="41.84" y2="29.4" gradientUnits="userSpaceOnUse"><stop offset="0" stop-color="#ffeeb2"/><stop offset="0.39" stop-color="#ffd769"/><stop offset="0.81" stop-color="#ffc01f"/><stop offset="1" stop-color="#ffb702"/></linearGradient><linearGradient id="未命名的渐变_130" x1="34.59" y1="29.45" x2="41.76" y2="29.45" gradientUnits="userSpaceOnUse"><stop offset="0" stop-color="#ffedb1"/><stop offset="0.37" stop-color="#ffd76c"/><stop offset="0.8" stop-color="#ffc021"/><stop offset="1" stop-color="#ffb704"/></linearGradient><linearGradient id="未命名的渐变_129" x1="34.51" y1="29.51" x2="41.68" y2="29.51" gradientUnits="userSpaceOnUse"><stop offset="0" stop-color="#ffedb1"/><stop offset="0.36" stop-color="#ffd86f"/><stop offset="0.8" stop-color="#fec024"/><stop offset="1" stop-color="#feb606"/></linearGradient><linearGradient id="未命名的渐变_127" x1="34.42" y1="29.56" x2="41.59" y2="29.56" gradientUnits="userSpaceOnUse"><stop offset="0" stop-color="#ffecb0"/><stop offset="0.35" stop-color="#ffd771"/><stop offset="0.79" stop-color="#febf25"/><stop offset="1" stop-color="#feb507"/></linearGradient><linearGradient id="未命名的渐变_126" x1="34.34" y1="29.62" x2="41.51" y2="29.62" gradientUnits="userSpaceOnUse"><stop offset="0" stop-color="#ffecaf"/><stop offset="0.33" stop-color="#ffd874"/><stop offset="0.79" stop-color="#febe27"/><stop offset="1" stop-color="#feb409"/></linearGradient><linearGradient id="未命名的渐变_125" x1="34.25" y1="29.67" x2="41.42" y2="29.67" gradientUnits="userSpaceOnUse"><stop offset="0" stop-color="#ffebae"/><stop offset="0.31" stop-color="#ffd877"/><stop offset="0.78" stop-color="#febe2a"/><stop offset="1" stop-color="#feb40b"/></linearGradient><linearGradient id="未命名的渐变_124" x1="34.17" y1="29.73" x2="41.34" y2="29.73" gradientUnits="userSpaceOnUse"><stop offset="0" stop-color="#ffebad"/><stop offset="0.3" stop-color="#ffd97a"/><stop offset="0.78" stop-color="#febe2c"/><stop offset="1" stop-color="#feb30d"/></linearGradient><linearGradient id="未命名的渐变_123" x1="34.08" y1="29.78" x2="41.25" y2="29.78" gradientUnits="userSpaceOnUse"><stop offset="0" stop-color="#ffeaad"/><stop offset="0.28" stop-color="#ffd97d"/><stop offset="0.77" stop-color="#febd2e"/><stop offset="1" stop-color="#feb20f"/></linearGradient><linearGradient id="未命名的渐变_121" x1="34" y1="29.84" x2="41.17" y2="29.84" gradientUnits="userSpaceOnUse"><stop offset="0" stop-color="#ffeaac"/><stop offset="0.26" stop-color="#feda81"/><stop offset="0.77" stop-color="#fdbd31"/><stop offset="1" stop-color="#fdb111"/></linearGradient><linearGradient id="未命名的渐变_119" x1="33.92" y1="29.89" x2="41.09" y2="29.89" gradientUnits="userSpaceOnUse"><stop offset="0" stop-color="#ffe9ab"/><stop offset="0.24" stop-color="#fedb84"/><stop offset="0.76" stop-color="#fdbd33"/><stop offset="1" stop-color="#fdb113"/></linearGradient><linearGradient id="未命名的渐变_118" x1="33.83" y1="29.95" x2="41" y2="29.95" gradientUnits="userSpaceOnUse"><stop offset="0" stop-color="#ffe9aa"/><stop offset="0.22" stop-color="#ffdb86"/><stop offset="0.76" stop-color="#fdbc34"/><stop offset="1" stop-color="#fdb014"/></linearGradient><linearGradient id="未命名的渐变_117" x1="33.75" y1="30" x2="40.92" y2="30" gradientUnits="userSpaceOnUse"><stop offset="0" stop-color="#ffe9a9"/><stop offset="0.2" stop-color="#ffdc89"/><stop offset="0.75" stop-color="#fdbc37"/><stop offset="1" stop-color="#fdaf16"/></linearGradient><linearGradient id="未命名的渐变_116" x1="33.66" y1="30.06" x2="40.83" y2="30.06" gradientUnits="userSpaceOnUse"><stop offset="0" stop-color="#ffe8a9"/><stop offset="0.18" stop-color="#ffdd8d"/><stop offset="0.74" stop-color="#fdbb39"/><stop offset="1" stop-color="#fdae18"/></linearGradient><linearGradient id="未命名的渐变_115" x1="33.58" y1="30.11" x2="40.75" y2="30.11" gradientUnits="userSpaceOnUse"><stop offset="0" stop-color="#ffe8a8"/><stop offset="0.16" stop-color="#ffde90"/><stop offset="0.74" stop-color="#fdbc3b"/><stop offset="1" stop-color="#fdae1a"/></linearGradient><linearGradient id="未命名的渐变_113" x1="33.49" y1="30.16" x2="40.66" y2="30.16" gradientUnits="userSpaceOnUse"><stop offset="0" stop-color="#ffe7a7"/><stop offset="0.13" stop-color="#ffdf93"/><stop offset="0.73" stop-color="#fdbb3e"/><stop offset="1" stop-color="#fcad1c"/></linearGradient><linearGradient id="未命名的渐变_112" x1="33.41" y1="30.22" x2="40.58" y2="30.22" gradientUnits="userSpaceOnUse"><stop offset="0" stop-color="#ffe7a6"/><stop offset="0.1" stop-color="#ffe097"/><stop offset="0.72" stop-color="#fdbb40"/><stop offset="1" stop-color="#fcac1e"/></linearGradient><linearGradient id="未命名的渐变_111" x1="33.33" y1="30.27" x2="40.49" y2="30.27" gradientUnits="userSpaceOnUse"><stop offset="0" stop-color="#fee6a6"/><stop offset="0.08" stop-color="#fee19a"/><stop offset="0.71" stop-color="#fdba43"/><stop offset="1" stop-color="#fcab20"/></linearGradient><linearGradient id="未命名的渐变_110" x1="33.24" y1="30.33" x2="40.41" y2="30.33" gradientUnits="userSpaceOnUse"><stop offset="0" stop-color="#fee6a5"/><stop offset="0.05" stop-color="#fee39e"/><stop offset="0.7" stop-color="#fdbb45"/><stop offset="1" stop-color="#fcab22"/></linearGradient><linearGradient id="未命名的渐变_109" x1="33.16" y1="30.38" x2="40.33" y2="30.38" gradientUnits="userSpaceOnUse"><stop offset="0" stop-color="#fee5a4"/><stop offset="0.03" stop-color="#fee3a0"/><stop offset="0.7" stop-color="#fdba46"/><stop offset="1" stop-color="#fcaa23"/></linearGradient><linearGradient id="未命名的渐变_108" x1="33.07" y1="30.44" x2="40.24" y2="30.44" gradientUnits="userSpaceOnUse"><stop offset="0" stop-color="#fee5a3"/><stop offset="0.69" stop-color="#fdba49"/><stop offset="1" stop-color="#fca925"/></linearGradient><linearGradient id="未命名的渐变_107" x1="32.99" y1="30.49" x2="40.16" y2="30.49" gradientUnits="userSpaceOnUse"><stop offset="0" stop-color="#fee4a2"/><stop offset="0.68" stop-color="#fcba4b"/><stop offset="1" stop-color="#fba827"/></linearGradient><linearGradient id="未命名的渐变_106" x1="32.9" y1="30.55" x2="40.07" y2="30.55" gradientUnits="userSpaceOnUse"><stop offset="0" stop-color="#fee4a2"/><stop offset="0.67" stop-color="#fcba4e"/><stop offset="1" stop-color="#fba829"/></linearGradient><linearGradient id="未命名的渐变_105" x1="32.82" y1="30.6" x2="39.99" y2="30.6" gradientUnits="userSpaceOnUse"><stop offset="0" stop-color="#fee4a1"/><stop offset="0.66" stop-color="#fcba50"/><stop offset="1" stop-color="#fba72b"/></linearGradient><linearGradient id="未命名的渐变_104" x1="32.73" y1="30.66" x2="39.9" y2="30.66" gradientUnits="userSpaceOnUse"><stop offset="0" stop-color="#fee3a0"/><stop offset="0.64" stop-color="#fcba53"/><stop offset="1" stop-color="#fba62d"/></linearGradient><linearGradient id="未命名的渐变_102" x1="32.65" y1="30.71" x2="39.82" y2="30.71" gradientUnits="userSpaceOnUse"><stop offset="0" stop-color="#fee39f"/><stop offset="0.63" stop-color="#fcba55"/><stop offset="1" stop-color="#fba52f"/></linearGradient><linearGradient id="未命名的渐变_101" x1="32.57" y1="30.77" x2="39.74" y2="30.77" gradientUnits="userSpaceOnUse"><stop offset="0" stop-color="#fee29e"/><stop offset="0.62" stop-color="#fcbb57"/><stop offset="1" stop-color="#fba530"/></linearGradient><linearGradient id="未命名的渐变_100" x1="32.48" y1="30.82" x2="39.65" y2="30.82" gradientUnits="userSpaceOnUse"><stop offset="0" stop-color="#fee29e"/><stop offset="0.61" stop-color="#fbbb59"/><stop offset="1" stop-color="#faa432"/></linearGradient><linearGradient id="未命名的渐变_99" x1="32.4" y1="30.88" x2="39.57" y2="30.88" gradientUnits="userSpaceOnUse"><stop offset="0" stop-color="#fee19d"/><stop offset="0.59" stop-color="#fcbb5c"/><stop offset="1" stop-color="#faa334"/></linearGradient><linearGradient id="未命名的渐变_98" x1="32.31" y1="30.93" x2="39.48" y2="30.93" gradientUnits="userSpaceOnUse"><stop offset="0" stop-color="#fee19c"/><stop offset="0.58" stop-color="#fcbb5e"/><stop offset="1" stop-color="#faa236"/></linearGradient><linearGradient id="未命名的渐变_97" x1="32.23" y1="30.98" x2="39.4" y2="30.98" gradientUnits="userSpaceOnUse"><stop offset="0" stop-color="#fee09b"/><stop offset="0.56" stop-color="#fcbc61"/><stop offset="1" stop-color="#faa238"/></linearGradient><linearGradient id="未命名的渐变_96" x1="32.14" y1="31.04" x2="39.31" y2="31.04" gradientUnits="userSpaceOnUse"><stop offset="0" stop-color="#fee09a"/><stop offset="0.54" stop-color="#fcbc64"/><stop offset="1" stop-color="#faa13a"/></linearGradient><linearGradient id="未命名的渐变_95" x1="32.06" y1="31.09" x2="39.23" y2="31.09" gradientUnits="userSpaceOnUse"><stop offset="0" stop-color="#fedf9a"/><stop offset="0.53" stop-color="#fcbc66"/><stop offset="1" stop-color="#faa03c"/></linearGradient><linearGradient id="未命名的渐变_94" x1="31.98" y1="31.15" x2="39.15" y2="31.15" gradientUnits="userSpaceOnUse"><stop offset="0" stop-color="#fedf99"/><stop offset="0.51" stop-color="#fbbd68"/><stop offset="1" stop-color="#f99f3d"/></linearGradient><linearGradient id="未命名的渐变_93" x1="31.89" y1="31.2" x2="39.06" y2="31.2" gradientUnits="userSpaceOnUse"><stop offset="0" stop-color="#fedf98"/><stop offset="0.49" stop-color="#fbbe6a"/><stop offset="1" stop-color="#f99f3f"/></linearGradient><linearGradient id="未命名的渐变_92" x1="31.81" y1="31.26" x2="38.98" y2="31.26" gradientUnits="userSpaceOnUse"><stop offset="0" stop-color="#fede97"/><stop offset="0.47" stop-color="#fcbf6d"/><stop offset="1" stop-color="#f99e41"/></linearGradient><linearGradient id="未命名的渐变_91" x1="31.72" y1="31.31" x2="38.89" y2="31.31" gradientUnits="userSpaceOnUse"><stop offset="0" stop-color="#fede96"/><stop offset="0.44" stop-color="#fcc070"/><stop offset="1" stop-color="#f99d43"/></linearGradient><linearGradient id="未命名的渐变_90" x1="31.64" y1="31.37" x2="38.81" y2="31.37" gradientUnits="userSpaceOnUse"><stop offset="0" stop-color="#fedd96"/><stop offset="0.42" stop-color="#fcc172"/><stop offset="1" stop-color="#f99d45"/></linearGradient><linearGradient id="未命名的渐变_89" x1="31.55" y1="31.42" x2="38.72" y2="31.42" gradientUnits="userSpaceOnUse"><stop offset="0" stop-color="#fedd95"/><stop offset="0.39" stop-color="#fcc275"/><stop offset="1" stop-color="#f99c47"/></linearGradient><linearGradient id="未命名的渐变_88" x1="31.47" y1="31.48" x2="38.64" y2="31.48" gradientUnits="userSpaceOnUse"><stop offset="0" stop-color="#fedc94"/><stop offset="0.36" stop-color="#fcc478"/><stop offset="1" stop-color="#f89b49"/></linearGradient><linearGradient id="未命名的渐变_87" x1="31.38" y1="31.53" x2="38.55" y2="31.53" gradientUnits="userSpaceOnUse"><stop offset="0" stop-color="#fedc93"/><stop offset="0.33" stop-color="#fcc57a"/><stop offset="1" stop-color="#f89a4a"/></linearGradient><linearGradient id="未命名的渐变_86" x1="31.3" y1="31.59" x2="38.47" y2="31.59" gradientUnits="userSpaceOnUse"><stop offset="0" stop-color="#fedb93"/><stop offset="0.3" stop-color="#fcc67c"/><stop offset="1" stop-color="#f89a4c"/></linearGradient><linearGradient id="未命名的渐变_85" x1="31.22" y1="31.64" x2="38.39" y2="31.64" gradientUnits="userSpaceOnUse"><stop offset="0" stop-color="#fedb92"/><stop offset="0.26" stop-color="#fcc97f"/><stop offset="1" stop-color="#f8994e"/></linearGradient><linearGradient id="未命名的渐变_84" x1="31.13" y1="31.69" x2="38.3" y2="31.69" gradientUnits="userSpaceOnUse"><stop offset="0" stop-color="#feda91"/><stop offset="0.23" stop-color="#fdca81"/><stop offset="1" stop-color="#f89850"/></linearGradient><linearGradient id="未命名的渐变_83" x1="31.05" y1="31.75" x2="38.22" y2="31.75" gradientUnits="userSpaceOnUse"><stop offset="0" stop-color="#feda90"/><stop offset="0.23" stop-color="#fdca81"/><stop offset="1" stop-color="#f89752"/></linearGradient><linearGradient id="未命名的渐变_82" x1="30.96" y1="31.8" x2="38.13" y2="31.8" gradientUnits="userSpaceOnUse"><stop offset="0" stop-color="#feda8f"/><stop offset="0.22" stop-color="#fccb82"/><stop offset="1" stop-color="#f79754"/></linearGradient><linearGradient id="未命名的渐变_81" x1="30.88" y1="31.86" x2="38.05" y2="31.86" gradientUnits="userSpaceOnUse"><stop offset="0" stop-color="#fed98f"/><stop offset="0.2" stop-color="#fdcb83"/><stop offset="1" stop-color="#f79656"/></linearGradient><linearGradient id="未命名的渐变_80" x1="30.79" y1="31.91" x2="37.96" y2="31.91" gradientUnits="userSpaceOnUse"><stop offset="0" stop-color="#fed98e"/><stop offset="0.2" stop-color="#fdcb82"/><stop offset="1" stop-color="#f79557"/></linearGradient><linearGradient id="未命名的渐变_79" x1="30.71" y1="31.97" x2="37.88" y2="31.97" gradientUnits="userSpaceOnUse"><stop offset="0" stop-color="#fed88d"/><stop offset="0.19" stop-color="#fdcb83"/><stop offset="1" stop-color="#f79459"/></linearGradient><linearGradient id="未命名的渐变_78" x1="30.63" y1="32.02" x2="37.8" y2="32.02" gradientUnits="userSpaceOnUse"><stop offset="0" stop-color="#fed88c"/><stop offset="0.17" stop-color="#fdcc83"/><stop offset="1" stop-color="#f7945b"/></linearGradient><linearGradient id="未命名的渐变_77" x1="30.54" y1="32.08" x2="37.71" y2="32.08" gradientUnits="userSpaceOnUse"><stop offset="0" stop-color="#fed78b"/><stop offset="0.16" stop-color="#fdcc84"/><stop offset="1" stop-color="#f7935d"/></linearGradient><linearGradient id="未命名的渐变_76" x1="30.46" y1="32.13" x2="37.63" y2="32.13" gradientUnits="userSpaceOnUse"><stop offset="0" stop-color="#fdd78b"/><stop offset="0.15" stop-color="#fccc84"/><stop offset="1" stop-color="#f6925f"/></linearGradient><linearGradient id="未命名的渐变_75" x1="30.37" y1="32.19" x2="37.54" y2="32.19" gradientUnits="userSpaceOnUse"><stop offset="0" stop-color="#fdd68a"/><stop offset="0.13" stop-color="#fccc84"/><stop offset="1" stop-color="#f69161"/></linearGradient><linearGradient id="未命名的渐变_74" x1="30.29" y1="32.24" x2="37.46" y2="32.24" gradientUnits="userSpaceOnUse"><stop offset="0" stop-color="#fdd689"/><stop offset="0.12" stop-color="#fcce84"/><stop offset="1" stop-color="#f69163"/></linearGradient><linearGradient id="未命名的渐变_73" x1="30.2" y1="32.3" x2="37.37" y2="32.3" gradientUnits="userSpaceOnUse"><stop offset="0" stop-color="#fdd588"/><stop offset="0.1" stop-color="#fcce84"/><stop offset="1" stop-color="#f69065"/></linearGradient><linearGradient id="未命名的渐变_72" x1="30.12" y1="32.35" x2="37.29" y2="32.35" gradientUnits="userSpaceOnUse"><stop offset="0" stop-color="#fdd587"/><stop offset="0.09" stop-color="#fcce84"/><stop offset="1" stop-color="#f68f66"/></linearGradient><linearGradient id="未命名的渐变_71" x1="30.04" y1="32.41" x2="37.2" y2="32.41" gradientUnits="userSpaceOnUse"><stop offset="0" stop-color="#fdd487"/><stop offset="0.07" stop-color="#fccf85"/><stop offset="1" stop-color="#f68e68"/></linearGradient><linearGradient id="未命名的渐变_70" x1="29.95" y1="32.46" x2="37.12" y2="32.46" gradientUnits="userSpaceOnUse"><stop offset="0" stop-color="#fdd486"/><stop offset="0.05" stop-color="#fdd084"/><stop offset="1" stop-color="#f58e6a"/></linearGradient><linearGradient id="未命名的渐变_69" x1="29.87" y1="32.51" x2="37.04" y2="32.51" gradientUnits="userSpaceOnUse"><stop offset="0" stop-color="#fdd485"/><stop offset="0.05" stop-color="#fdd184"/><stop offset="1" stop-color="#f58d6c"/></linearGradient><linearGradient id="未命名的渐变_68" x1="29.78" y1="32.57" x2="36.95" y2="32.57" gradientUnits="userSpaceOnUse"><stop offset="0" stop-color="#fdd384"/><stop offset="0.02" stop-color="#fdd183"/><stop offset="1" stop-color="#f58c6e"/></linearGradient><linearGradient id="未命名的渐变_67" x1="29.7" y1="32.62" x2="36.87" y2="32.62" gradientUnits="userSpaceOnUse"><stop offset="0" stop-color="#fdd383"/><stop offset="0.01" stop-color="#fdd283"/><stop offset="1" stop-color="#f58b70"/></linearGradient><linearGradient id="未命名的渐变_64" x1="29.61" y1="32.68" x2="36.78" y2="32.68" gradientUnits="userSpaceOnUse"><stop offset="0" stop-color="#fdd283"/><stop offset="1" stop-color="#f58b72"/></linearGradient><linearGradient id="未命名的渐变_63" x1="29.53" y1="32.73" x2="36.7" y2="32.73" gradientUnits="userSpaceOnUse"><stop offset="0" stop-color="#fdd282"/><stop offset="1" stop-color="#f58a73"/></linearGradient><linearGradient id="未命名的渐变_61" x1="29.44" y1="32.79" x2="36.61" y2="32.79" gradientUnits="userSpaceOnUse"><stop offset="0" stop-color="#fdd181"/><stop offset="1" stop-color="#f48975"/></linearGradient><linearGradient id="未命名的渐变_60" x1="29.36" y1="32.84" x2="36.53" y2="32.84" gradientUnits="userSpaceOnUse"><stop offset="0" stop-color="#fdd180"/><stop offset="1" stop-color="#f48877"/></linearGradient><linearGradient id="未命名的渐变_58" x1="29.28" y1="32.9" x2="36.45" y2="32.9" gradientUnits="userSpaceOnUse"><stop offset="0" stop-color="#fdd080"/><stop offset="1" stop-color="#f48879"/></linearGradient><linearGradient id="未命名的渐变_57" x1="29.19" y1="32.95" x2="36.36" y2="32.95" gradientUnits="userSpaceOnUse"><stop offset="0" stop-color="#fdd07f"/><stop offset="1" stop-color="#f4877b"/></linearGradient><linearGradient id="未命名的渐变_56" x1="29.11" y1="33.01" x2="36.28" y2="33.01" gradientUnits="userSpaceOnUse"><stop offset="0" stop-color="#fdcf7e"/><stop offset="1" stop-color="#f4867d"/></linearGradient><linearGradient id="未命名的渐变_54" x1="29.02" y1="33.06" x2="36.19" y2="33.06" gradientUnits="userSpaceOnUse"><stop offset="0" stop-color="#fdcf7d"/><stop offset="1" stop-color="#f4867f"/></linearGradient><linearGradient id="未命名的渐变_52" x1="28.94" y1="33.12" x2="36.11" y2="33.12" gradientUnits="userSpaceOnUse"><stop offset="0" stop-color="#fdcf7c"/><stop offset="1" stop-color="#f38580"/></linearGradient><linearGradient id="未命名的渐变_51" x1="28.85" y1="33.17" x2="36.02" y2="33.17" gradientUnits="userSpaceOnUse"><stop offset="0" stop-color="#fdce7c"/><stop offset="1" stop-color="#f38482"/></linearGradient><linearGradient id="未命名的渐变_50" x1="28.77" y1="33.22" x2="35.94" y2="33.22" gradientUnits="userSpaceOnUse"><stop offset="0" stop-color="#fdce7b"/><stop offset="1" stop-color="#f38384"/></linearGradient><linearGradient id="未命名的渐变_49" x1="28.69" y1="33.28" x2="35.86" y2="33.28" gradientUnits="userSpaceOnUse"><stop offset="0" stop-color="#fdcd7a"/><stop offset="1" stop-color="#f38386"/></linearGradient><linearGradient id="未命名的渐变_48" x1="28.6" y1="33.33" x2="35.77" y2="33.33" gradientUnits="userSpaceOnUse"><stop offset="0" stop-color="#fdcd79"/><stop offset="1" stop-color="#f38288"/></linearGradient><linearGradient id="未命名的渐变_47" x1="28.52" y1="33.39" x2="35.69" y2="33.39" gradientUnits="userSpaceOnUse"><stop offset="0" stop-color="#fdcc78"/><stop offset="1" stop-color="#f3818a"/></linearGradient><linearGradient id="未命名的渐变_46" x1="28.43" y1="33.44" x2="35.6" y2="33.44" gradientUnits="userSpaceOnUse"><stop offset="0" stop-color="#fdcc78"/><stop offset="1" stop-color="#f2808c"/></linearGradient><linearGradient id="未命名的渐变_45" x1="28.35" y1="33.5" x2="35.52" y2="33.5" gradientUnits="userSpaceOnUse"><stop offset="0" stop-color="#fdcb77"/><stop offset="1" stop-color="#f2808d"/></linearGradient><linearGradient id="未命名的渐变_44" x1="28.26" y1="33.55" x2="35.43" y2="33.55" gradientUnits="userSpaceOnUse"><stop offset="0" stop-color="#fdcb76"/><stop offset="1" stop-color="#f27f8f"/></linearGradient><linearGradient id="未命名的渐变_43" x1="28.18" y1="33.61" x2="35.35" y2="33.61" gradientUnits="userSpaceOnUse"><stop offset="0" stop-color="#fdca75"/><stop offset="1" stop-color="#f27e91"/></linearGradient><linearGradient id="未命名的渐变_42" x1="28.09" y1="33.66" x2="35.26" y2="33.66" gradientUnits="userSpaceOnUse"><stop offset="0" stop-color="#fdca74"/><stop offset="1" stop-color="#f27d93"/></linearGradient><linearGradient id="未命名的渐变_41" x1="28.01" y1="33.72" x2="35.18" y2="33.72" gradientUnits="userSpaceOnUse"><stop offset="0" stop-color="#fdca74"/><stop offset="1" stop-color="#f27d95"/></linearGradient><linearGradient id="未命名的渐变_39" x1="27.93" y1="33.77" x2="35.1" y2="33.77" gradientUnits="userSpaceOnUse"><stop offset="0" stop-color="#fdc973"/><stop offset="1" stop-color="#f17c97"/></linearGradient><linearGradient id="未命名的渐变_38" x1="27.84" y1="33.83" x2="35.01" y2="33.83" gradientUnits="userSpaceOnUse"><stop offset="0" stop-color="#fdc972"/><stop offset="1" stop-color="#f17b99"/></linearGradient><linearGradient id="未命名的渐变_36" x1="27.76" y1="33.88" x2="34.93" y2="33.88" gradientUnits="userSpaceOnUse"><stop offset="0" stop-color="#fdc871"/><stop offset="1" stop-color="#f17a9a"/></linearGradient><linearGradient id="未命名的渐变_29" x1="27.67" y1="33.94" x2="34.84" y2="33.94" gradientUnits="userSpaceOnUse"><stop offset="0" stop-color="#fdc870"/><stop offset="1" stop-color="#f17a9c"/></linearGradient><linearGradient id="未命名的渐变_28" x1="27.59" y1="33.99" x2="34.76" y2="33.99" gradientUnits="userSpaceOnUse"><stop offset="0" stop-color="#fcc770"/><stop offset="1" stop-color="#f1799e"/></linearGradient><linearGradient id="未命名的渐变_27" x1="27.5" y1="34.04" x2="34.67" y2="34.04" gradientUnits="userSpaceOnUse"><stop offset="0" stop-color="#fcc76f"/><stop offset="1" stop-color="#f178a0"/></linearGradient><linearGradient id="未命名的渐变_26" x1="27.42" y1="34.1" x2="34.59" y2="34.1" gradientUnits="userSpaceOnUse"><stop offset="0" stop-color="#fcc66e"/><stop offset="1" stop-color="#f077a2"/></linearGradient><linearGradient id="未命名的渐变_24" x1="27.34" y1="34.15" x2="34.51" y2="34.15" gradientUnits="userSpaceOnUse"><stop offset="0" stop-color="#fcc66d"/><stop offset="1" stop-color="#f077a4"/></linearGradient><linearGradient id="未命名的渐变_23" x1="27.25" y1="34.21" x2="34.42" y2="34.21" gradientUnits="userSpaceOnUse"><stop offset="0" stop-color="#fcc56d"/><stop offset="1" stop-color="#f076a6"/></linearGradient><linearGradient id="未命名的渐变_22" x1="27.17" y1="34.26" x2="34.34" y2="34.26" gradientUnits="userSpaceOnUse"><stop offset="0" stop-color="#fcc56c"/><stop offset="1" stop-color="#f075a8"/></linearGradient><linearGradient id="未命名的渐变_21" x1="27.08" y1="34.32" x2="34.25" y2="34.32" gradientUnits="userSpaceOnUse"><stop offset="0" stop-color="#fcc56b"/><stop offset="1" stop-color="#f074a9"/></linearGradient><linearGradient id="未命名的渐变_20" x1="27" y1="34.37" x2="34.17" y2="34.37" gradientUnits="userSpaceOnUse"><stop offset="0" stop-color="#fcc46a"/><stop offset="1" stop-color="#f074ab"/></linearGradient><linearGradient id="未命名的渐变_17" x1="26.91" y1="34.43" x2="34.08" y2="34.43" gradientUnits="userSpaceOnUse"><stop offset="0" stop-color="#fcc469"/><stop offset="1" stop-color="#ef73ad"/></linearGradient><linearGradient id="未命名的渐变_14" x1="26.83" y1="34.48" x2="34" y2="34.48" gradientUnits="userSpaceOnUse"><stop offset="0" stop-color="#fcc369"/><stop offset="1" stop-color="#ef72af"/></linearGradient><linearGradient id="未命名的渐变_13" x1="26.75" y1="34.54" x2="33.91" y2="34.54" gradientUnits="userSpaceOnUse"><stop offset="0" stop-color="#fcc368"/><stop offset="1" stop-color="#ef71b1"/></linearGradient><linearGradient id="未命名的渐变_11" x1="26.66" y1="34.59" x2="33.83" y2="34.59" gradientUnits="userSpaceOnUse"><stop offset="0" stop-color="#fcc267"/><stop offset="1" stop-color="#ef71b3"/></linearGradient><linearGradient id="未命名的渐变_10" x1="26.58" y1="34.65" x2="33.75" y2="34.65" gradientUnits="userSpaceOnUse"><stop offset="0" stop-color="#fcc266"/><stop offset="1" stop-color="#ef70b5"/></linearGradient><linearGradient id="未命名的渐变_9" x1="26.49" y1="34.7" x2="33.66" y2="34.7" gradientUnits="userSpaceOnUse"><stop offset="0" stop-color="#fcc165"/><stop offset="1" stop-color="#ef6fb6"/></linearGradient><linearGradient id="未命名的渐变_8" x1="26.41" y1="34.76" x2="33.58" y2="34.76" gradientUnits="userSpaceOnUse"><stop offset="0" stop-color="#fcc165"/><stop offset="1" stop-color="#ee6eb8"/></linearGradient><linearGradient id="未命名的渐变_7" x1="26.32" y1="34.81" x2="33.49" y2="34.81" gradientUnits="userSpaceOnUse"><stop offset="0" stop-color="#fcc064"/><stop offset="1" stop-color="#ee6eba"/></linearGradient><linearGradient id="linear-gradient-6" x1="26.24" y1="34.86" x2="33.41" y2="34.86" gradientUnits="userSpaceOnUse"><stop offset="0" stop-color="#fcc063"/><stop offset="1" stop-color="#ee6dbc"/></linearGradient><linearGradient id="linear-gradient-7" x1="33.17" y1="28.79" x2="43.34" y2="28.79" xlink:href="#未命名的渐变_131"/><linearGradient id="linear-gradient-8" x1="34.07" y1="28.15" x2="44.24" y2="28.15" xlink:href="#未命名的渐变_131"/><linearGradient id="未命名的渐变_55" x1="27.49" y1="33.58" x2="36.39" y2="33.58" gradientUnits="userSpaceOnUse"><stop offset="0" stop-color="#fe7720"/><stop offset="1" stop-color="#ffab14"/></linearGradient><linearGradient id="linear-gradient-9" x1="19.53" y1="14.76" x2="31.71" y2="14.76" gradientUnits="userSpaceOnUse"><stop offset="0" stop-color="#498dea"/><stop offset="1" stop-color="#020d83"/></linearGradient><linearGradient id="linear-gradient-10" x1="19.53" y1="14.86" x2="31.41" y2="14.86" xlink:href="#linear-gradient"/><linearGradient id="linear-gradient-11" x1="-4459.36" y1="15.12" x2="-4455.66" y2="18.89" gradientTransform="matrix(-1, 0, 0, 1, -4429.14, 0)" xlink:href="#linear-gradient-5"/><linearGradient id="linear-gradient-12" x1="-4482.16" y1="44.64" x2="-4469.98" y2="44.64" gradientTransform="matrix(-1, 0, 0, 1, -4429.14, 0)" gradientUnits="userSpaceOnUse"><stop offset="0" stop-color="#020d83"/><stop offset="1" stop-color="#498dea"/></linearGradient><linearGradient id="linear-gradient-13" x1="40.84" y1="44.74" x2="52.71" y2="44.74" xlink:href="#linear-gradient"/><linearGradient id="linear-gradient-14" x1="-4481.38" y1="42.92" x2="-4470.23" y2="42.92" gradientTransform="matrix(-1, 0, 0, 1, -4429.14, 0)" xlink:href="#linear-gradient-5"/><linearGradient id="linear-gradient-15" x1="-4481.38" y1="44.22" x2="-4470.23" y2="44.22" gradientTransform="matrix(-1, 0, 0, 1, -4429.14, 0)" xlink:href="#linear-gradient-5"/><linearGradient id="linear-gradient-16" x1="-4481.38" y1="45.52" x2="-4470.23" y2="45.52" gradientTransform="matrix(-1, 0, 0, 1, -4429.14, 0)" xlink:href="#linear-gradient-5"/><linearGradient id="linear-gradient-17" x1="-4481.38" y1="47.66" x2="-4473.12" y2="47.66" gradientTransform="matrix(-1, 0, 0, 1, -4429.14, 0)" xlink:href="#linear-gradient-5"/><linearGradient id="linear-gradient-18" x1="-4485.28" y1="21.96" x2="-4473.1" y2="21.96" xlink:href="#linear-gradient-12"/><linearGradient id="linear-gradient-19" x1="43.96" y1="22.07" x2="55.83" y2="22.07" xlink:href="#linear-gradient"/><linearGradient id="linear-gradient-20" x1="-4484.5" y1="24.38" x2="-4473.47" y2="24.38" gradientTransform="matrix(-1, 0, 0, 1, -4429.14, 0)" xlink:href="#linear-gradient-5"/></defs><title>12</title><g class="cls-2"><g id="图层_1" data-name="图层 1"><path class="cls-5" d="M70,50.22a1.5,1.5,0,0,0,0-2.6L39,29.77a4.51,4.51,0,0,0-4.52,0l-31,17.66a1.5,1.5,0,0,0,0,2.6L34.39,67.89a4.54,4.54,0,0,0,4.51,0Z"/><path class="cls-6" d="M70,53.09a1.5,1.5,0,0,0,0-2.6L39,32.63a4.56,4.56,0,0,0-4.52,0L3.45,50.3a1.5,1.5,0,0,0,0,2.6L34.39,70.76a4.54,4.54,0,0,0,4.51,0Z"/><path class="cls-7" d="M70,55.42a1.5,1.5,0,0,0,0-2.6L39,35a4.51,4.51,0,0,0-4.52,0l-31,17.66a1.5,1.5,0,0,0,0,2.6L34.39,73.09a4.54,4.54,0,0,0,4.51,0Z"/><path class="cls-8" d="M70,47.39a1.51,1.51,0,0,0,0-2.61L39,26.93a4.56,4.56,0,0,0-4.52,0l-31,17.66a1.51,1.51,0,0,0,0,2.61L34.39,65.05a4.49,4.49,0,0,0,4.51,0Z"/><g id="手机"><path class="cls-9" d="M30.28,4.19l-.17.29c-.23.16-.32,1.2-.32,1.48V42.25a6.21,6.21,0,0,0,2.69,4.85L46,54.93a2.73,2.73,0,0,0,1.27.26l1.76-.62a1.44,1.44,0,0,0,1-1.37V15.7A6.11,6.11,0,0,0,47.31,11L34.93,3.81A4.21,4.21,0,0,0,30.28,4.19Z"/><path class="cls-10" d="M32.43,4.23c-1.5-.87-2.74-.16-2.74,1.58V42.44a6.09,6.09,0,0,0,2.74,4.75l13.29,7.68c1.51.87,2.75.15,2.75-1.59V16.65a6.09,6.09,0,0,0-2.75-4.75Z"/><polygon class="cls-11" points="31.23 10.21 31.23 39.82 46.93 48.88 46.93 19.28 31.23 10.21"/><path class="cls-12" d="M41.16,12.79a.29.29,0,0,1-.16,0l-4.16-2.4a.32.32,0,1,1,.32-.55l4.16,2.4a.32.32,0,0,1,.11.44A.31.31,0,0,1,41.16,12.79Z"/><path class="cls-13" d="M39.08,45.57c-.91-.54-1.66-.11-1.66,1a3.71,3.71,0,0,0,1.66,2.89c.91.52,1.65.09,1.65-1A3.73,3.73,0,0,0,39.08,45.57Z"/><path class="cls-14" d="M34.76,23.64v7.08a.86.86,0,0,0,.34.73c.35.2,6.46,3.91,6.46,3.91s.37.19.37-.39V27.81a.8.8,0,0,0-.36-.73c-.4-.25-6.41-3.74-6.41-3.74s-.4-.18-.4.27"/><path class="cls-15" d="M34.68,23.69v7.09a.86.86,0,0,0,.33.72c.36.2,6.46,3.92,6.46,3.92s.37.18.37-.39V27.86a.81.81,0,0,0-.35-.73l-6.41-3.74s-.41-.18-.41.27"/><path class="cls-16" d="M34.59,23.75v7.08a.87.87,0,0,0,.34.73c.35.2,6.46,3.91,6.46,3.91s.37.19.37-.39V27.91a.79.79,0,0,0-.36-.72c-.4-.25-6.4-3.74-6.4-3.74s-.41-.18-.41.27"/><path class="cls-17" d="M34.51,23.8v7.09a.86.86,0,0,0,.33.72c.36.2,6.46,3.91,6.46,3.91s.37.19.37-.38V28a.81.81,0,0,0-.35-.73L34.91,23.5s-.4-.18-.4.27"/><path class="cls-18" d="M34.42,23.86v7.08a.9.9,0,0,0,.34.73c.35.2,6.46,3.91,6.46,3.91s.37.18.37-.39V28a.79.79,0,0,0-.35-.72c-.41-.25-6.41-3.75-6.41-3.75s-.41-.18-.41.27"/><path class="cls-19" d="M34.34,23.91V31a.86.86,0,0,0,.33.72c.36.2,6.46,3.91,6.46,3.91s.38.19.38-.38V28.08a.8.8,0,0,0-.36-.73l-6.41-3.74s-.4-.18-.4.27"/><path class="cls-20" d="M34.25,24v7.08a.9.9,0,0,0,.34.73c.35.2,6.46,3.91,6.46,3.91s.37.18.37-.39V28.13a.79.79,0,0,0-.35-.72c-.41-.25-6.41-3.75-6.41-3.75s-.41-.18-.41.27"/><path class="cls-21" d="M34.17,24v7.09a.85.85,0,0,0,.34.72c.35.2,6.46,3.91,6.46,3.91s.37.19.37-.38V28.19a.8.8,0,0,0-.36-.73l-6.41-3.74s-.4-.18-.4.27"/><path class="cls-22" d="M34.08,24.08v7.08a.9.9,0,0,0,.34.73c.36.2,6.46,3.91,6.46,3.91s.37.18.37-.39V28.24a.79.79,0,0,0-.35-.72c-.41-.25-6.41-3.75-6.41-3.75s-.41-.18-.41.27"/><path class="cls-23" d="M34,24.13v7.08a.86.86,0,0,0,.34.73c.35.2,6.46,3.91,6.46,3.91s.37.19.37-.39V28.3a.8.8,0,0,0-.36-.73c-.4-.25-6.41-3.74-6.41-3.74s-.4-.18-.4.27"/><path class="cls-24" d="M33.92,24.19v7.08a.86.86,0,0,0,.33.72l6.46,3.92s.37.18.37-.39V28.35a.79.79,0,0,0-.35-.72c-.41-.25-6.41-3.75-6.41-3.75s-.4-.18-.4.27"/><path class="cls-25" d="M33.83,24.24v7.08a.86.86,0,0,0,.34.73c.35.2,6.46,3.91,6.46,3.91s.37.19.37-.39V28.41a.8.8,0,0,0-.36-.73c-.4-.25-6.4-3.74-6.4-3.74s-.41-.18-.41.27"/><path class="cls-26" d="M33.75,24.3v7.08a.86.86,0,0,0,.33.72L40.54,36s.37.18.37-.39V28.46a.76.76,0,0,0-.35-.72c-.4-.25-6.41-3.75-6.41-3.75s-.4-.18-.4.27"/><path class="cls-27" d="M33.66,24.35v7.08a.89.89,0,0,0,.34.73c.35.2,6.46,3.91,6.46,3.91s.37.19.37-.39V28.52a.81.81,0,0,0-.35-.73c-.41-.25-6.41-3.74-6.41-3.74s-.41-.18-.41.27"/><path class="cls-28" d="M33.58,24.4v7.09a.85.85,0,0,0,.34.72l6.45,3.92s.38.18.38-.39V28.57a.78.78,0,0,0-.36-.72C40,27.6,34,24.1,34,24.1s-.4-.18-.4.27"/><path class="cls-29" d="M33.49,24.46v7.08a.89.89,0,0,0,.34.73c.36.2,6.46,3.91,6.46,3.91s.37.19.37-.39V28.62a.79.79,0,0,0-.35-.72c-.41-.25-6.41-3.74-6.41-3.74s-.41-.18-.41.27"/><path class="cls-30" d="M33.41,24.51V31.6a.85.85,0,0,0,.34.72c.35.2,6.46,3.91,6.46,3.91s.37.19.37-.38V28.68a.8.8,0,0,0-.36-.73l-6.41-3.74s-.4-.18-.4.27"/><path class="cls-31" d="M33.33,24.57v7.08a.88.88,0,0,0,.33.73c.36.2,6.46,3.91,6.46,3.91s.37.19.37-.39V28.73a.79.79,0,0,0-.35-.72c-.41-.25-6.41-3.74-6.41-3.74s-.4-.18-.4.26"/><path class="cls-32" d="M33.24,24.62v7.09a.85.85,0,0,0,.34.72c.35.2,6.46,3.91,6.46,3.91s.37.19.37-.38V28.79a.8.8,0,0,0-.36-.73l-6.4-3.74s-.41-.18-.41.27"/><path class="cls-33" d="M33.16,24.68v7.08a.88.88,0,0,0,.33.73c.36.2,6.46,3.91,6.46,3.91s.37.18.37-.39V28.84a.79.79,0,0,0-.35-.72c-.4-.25-6.41-3.75-6.41-3.75s-.4-.18-.4.27"/><path class="cls-34" d="M33.07,24.73v7.09a.88.88,0,0,0,.34.72c.35.2,6.46,3.91,6.46,3.91s.37.19.37-.38V28.9a.81.81,0,0,0-.35-.73l-6.41-3.74s-.41-.18-.41.27"/><path class="cls-35" d="M33,24.79v7.08a.87.87,0,0,0,.34.73c.35.2,6.45,3.91,6.45,3.91s.38.18.38-.39V29a.78.78,0,0,0-.36-.72c-.4-.25-6.41-3.75-6.41-3.75s-.4-.18-.4.27"/><path class="cls-36" d="M32.9,24.84v7.09a.88.88,0,0,0,.34.72c.36.2,6.46,3.91,6.46,3.91s.37.19.37-.39V29a.81.81,0,0,0-.35-.73c-.41-.25-6.41-3.74-6.41-3.74s-.41-.18-.41.27"/><path class="cls-37" d="M32.82,24.9V32a.85.85,0,0,0,.34.72l6.46,3.92s.37.18.37-.39V29.06a.78.78,0,0,0-.36-.72c-.4-.25-6.41-3.75-6.41-3.75s-.4-.18-.4.27"/><path class="cls-38" d="M32.73,25V32a.89.89,0,0,0,.34.73c.36.2,6.46,3.91,6.46,3.91s.37.19.37-.39V29.12a.81.81,0,0,0-.35-.73c-.41-.25-6.41-3.74-6.41-3.74s-.41-.18-.41.27"/><path class="cls-39" d="M32.65,25v7.08a.85.85,0,0,0,.34.72l6.46,3.92s.37.18.37-.39V29.17a.78.78,0,0,0-.36-.72c-.4-.25-6.4-3.75-6.4-3.75s-.41-.18-.41.27"/><path class="cls-40" d="M32.57,25.06v7.08a.87.87,0,0,0,.33.73c.36.2,6.46,3.91,6.46,3.91s.37.19.37-.39V29.23a.81.81,0,0,0-.35-.73C39,28.25,33,24.76,33,24.76s-.4-.18-.4.27"/><path class="cls-41" d="M32.48,25.12V32.2a.85.85,0,0,0,.34.72l6.46,3.92s.37.18.37-.39V29.28a.79.79,0,0,0-.35-.72c-.41-.25-6.41-3.75-6.41-3.75s-.41-.18-.41.27"/><path class="cls-42" d="M32.4,25.17v7.08a.87.87,0,0,0,.33.73c.36.2,6.46,3.91,6.46,3.91s.37.19.37-.39V29.34a.78.78,0,0,0-.35-.73c-.4-.25-6.41-3.74-6.41-3.74s-.4-.18-.4.27"/><path class="cls-43" d="M32.31,25.22v7.09a.88.88,0,0,0,.34.72L39.11,37s.37.18.37-.39V29.39a.81.81,0,0,0-.35-.73l-6.41-3.74s-.41-.18-.41.27"/><path class="cls-44" d="M32.23,25.28v7.08a.87.87,0,0,0,.34.73C32.92,33.29,39,37,39,37s.37.19.37-.39V29.44a.79.79,0,0,0-.36-.72c-.4-.25-6.41-3.74-6.41-3.74s-.4-.18-.4.27"/><path class="cls-45" d="M32.14,25.33v7.09a.88.88,0,0,0,.34.72c.36.2,6.46,3.91,6.46,3.91s.37.19.37-.38V29.5a.81.81,0,0,0-.35-.73L32.55,25s-.41-.18-.41.27"/><path class="cls-46" d="M32.06,25.39v7.08a.87.87,0,0,0,.34.73c.35.2,6.46,3.91,6.46,3.91s.37.18.37-.39V29.55a.79.79,0,0,0-.36-.72c-.4-.25-6.41-3.75-6.41-3.75s-.4-.18-.4.27"/><path class="cls-47" d="M32,25.44v7.09a.86.86,0,0,0,.33.72c.36.2,6.46,3.91,6.46,3.91s.37.19.37-.38V29.61a.81.81,0,0,0-.35-.73l-6.41-3.74s-.4-.18-.4.27"/><path class="cls-48" d="M31.89,25.5v7.08a.87.87,0,0,0,.34.73c.35.2,6.46,3.91,6.46,3.91s.37.18.37-.39V29.66a.79.79,0,0,0-.36-.72c-.4-.25-6.4-3.75-6.4-3.75s-.41-.18-.41.27"/><path class="cls-49" d="M31.81,25.55v7.09a.86.86,0,0,0,.33.72c.36.2,6.46,3.91,6.46,3.91s.37.19.37-.38V29.72a.78.78,0,0,0-.35-.73l-6.41-3.74s-.4-.18-.4.27"/><path class="cls-50" d="M31.72,25.61v7.08a.9.9,0,0,0,.34.73c.35.2,6.46,3.91,6.46,3.91s.37.18.37-.39V29.77a.79.79,0,0,0-.35-.72c-.41-.25-6.41-3.75-6.41-3.75s-.41-.18-.41.27"/><path class="cls-51" d="M31.64,25.66v7.08a.86.86,0,0,0,.34.73c.35.2,6.45,3.91,6.45,3.91s.38.19.38-.39V29.83a.8.8,0,0,0-.36-.73c-.4-.25-6.41-3.74-6.41-3.74s-.4-.18-.4.27"/><path class="cls-52" d="M31.55,25.72V32.8a.88.88,0,0,0,.34.72l6.46,3.92s.37.18.37-.39V29.88a.79.79,0,0,0-.35-.72C38,28.91,32,25.41,32,25.41s-.41-.18-.41.27"/><path class="cls-53" d="M31.47,25.77v7.08a.86.86,0,0,0,.34.73c.35.2,6.46,3.91,6.46,3.91s.37.19.37-.39V29.94a.8.8,0,0,0-.36-.73c-.4-.25-6.41-3.74-6.41-3.74s-.4-.18-.4.27"/><path class="cls-54" d="M31.39,25.83v7.08a.86.86,0,0,0,.33.72l6.46,3.92s.37.18.37-.39V30a.79.79,0,0,0-.35-.72c-.41-.25-6.41-3.75-6.41-3.75s-.41-.18-.41.27"/><path class="cls-55" d="M31.3,25.88V33a.86.86,0,0,0,.34.73c.35.2,6.46,3.91,6.46,3.91s.37.19.37-.39V30.05a.8.8,0,0,0-.36-.73c-.4-.25-6.4-3.74-6.4-3.74s-.41-.18-.41.27"/><path class="cls-56" d="M31.22,25.93V33a.86.86,0,0,0,.33.72L38,37.66s.37.18.37-.39V30.1a.79.79,0,0,0-.35-.72c-.41-.25-6.41-3.75-6.41-3.75s-.4-.18-.4.27"/><path class="cls-57" d="M31.13,26v7.08a.89.89,0,0,0,.34.73c.35.2,6.46,3.91,6.46,3.91s.37.19.37-.39V30.16a.81.81,0,0,0-.35-.73c-.41-.25-6.41-3.74-6.41-3.74s-.41-.18-.41.27"/><path class="cls-58" d="M31.05,26v7.09a.86.86,0,0,0,.33.72c.36.2,6.46,3.92,6.46,3.92s.38.18.38-.39V30.21a.8.8,0,0,0-.36-.73l-6.41-3.74s-.4-.18-.4.27"/><path class="cls-59" d="M31,26.1v7.08a.9.9,0,0,0,.34.73c.35.2,6.46,3.91,6.46,3.91s.37.19.37-.39V30.26a.79.79,0,0,0-.35-.72c-.41-.25-6.41-3.74-6.41-3.74s-.41-.18-.41.27"/><path class="cls-60" d="M30.88,26.15v7.09a.85.85,0,0,0,.34.72c.35.2,6.46,3.91,6.46,3.91s.37.19.37-.38V30.32a.8.8,0,0,0-.36-.73l-6.41-3.74s-.4-.18-.4.27"/><path class="cls-61" d="M30.79,26.21v7.08a.9.9,0,0,0,.34.73c.36.2,6.46,3.91,6.46,3.91s.37.18.37-.39V30.37a.79.79,0,0,0-.35-.72c-.41-.25-6.41-3.75-6.41-3.75s-.41-.18-.41.27"/><path class="cls-62" d="M30.71,26.26v7.09a.85.85,0,0,0,.34.72c.35.2,6.46,3.91,6.46,3.91s.37.19.37-.38V30.43a.8.8,0,0,0-.36-.73L31.11,26s-.4-.18-.4.27"/><path class="cls-63" d="M30.63,26.32V33.4a.88.88,0,0,0,.33.73c.36.2,6.46,3.91,6.46,3.91s.37.18.37-.39V30.48a.79.79,0,0,0-.35-.72C37,29.51,31,26,31,26s-.4-.18-.4.27"/><path class="cls-64" d="M30.54,26.37v7.09a.85.85,0,0,0,.34.72c.35.2,6.46,3.91,6.46,3.91s.37.19.37-.38V30.54a.8.8,0,0,0-.36-.73L31,26.07s-.41-.18-.41.27"/><path class="cls-65" d="M30.46,26.43v7.08a.88.88,0,0,0,.33.73c.36.2,6.46,3.91,6.46,3.91s.37.18.37-.39V30.59a.76.76,0,0,0-.35-.72c-.4-.25-6.41-3.75-6.41-3.75s-.4-.18-.4.27"/><path class="cls-66" d="M30.37,26.48v7.08a.89.89,0,0,0,.34.73c.35.2,6.46,3.91,6.46,3.91s.37.19.37-.39V30.65a.81.81,0,0,0-.35-.73c-.41-.25-6.41-3.74-6.41-3.74s-.41-.18-.41.27"/><path class="cls-67" d="M30.29,26.54v7.08a.85.85,0,0,0,.34.72l6.45,3.92s.38.18.38-.39V30.7A.78.78,0,0,0,37.1,30c-.4-.25-6.41-3.75-6.41-3.75s-.4-.18-.4.27"/><path class="cls-68" d="M30.2,26.59v7.08a.89.89,0,0,0,.34.73c.36.2,6.46,3.91,6.46,3.91s.37.19.37-.39V30.76A.81.81,0,0,0,37,30c-.41-.25-6.41-3.74-6.41-3.74s-.41-.18-.41.27"/><path class="cls-69" d="M30.12,26.65v7.08a.85.85,0,0,0,.34.72l6.46,3.92s.37.18.37-.39V30.81a.78.78,0,0,0-.36-.72c-.4-.25-6.41-3.75-6.41-3.75s-.4-.18-.4.27"/><path class="cls-70" d="M30,26.7v7.08a.87.87,0,0,0,.33.73c.36.2,6.46,3.91,6.46,3.91s.37.19.37-.39V30.87a.81.81,0,0,0-.35-.73c-.41-.25-6.41-3.74-6.41-3.74s-.4-.18-.4.27"/><path class="cls-71" d="M30,26.75v7.09a.85.85,0,0,0,.34.72l6.46,3.92s.37.18.37-.39V30.92a.8.8,0,0,0-.36-.73l-6.4-3.74s-.41-.18-.41.27"/><path class="cls-72" d="M29.87,26.81v7.08a.87.87,0,0,0,.33.73c.36.2,6.46,3.91,6.46,3.91s.37.19.37-.39V31a.79.79,0,0,0-.35-.72c-.4-.25-6.41-3.74-6.41-3.74s-.4-.18-.4.27"/><path class="cls-73" d="M29.78,26.86V34a.88.88,0,0,0,.34.72c.35.2,6.46,3.91,6.46,3.91s.37.19.37-.38V31a.81.81,0,0,0-.35-.73l-6.41-3.74s-.41-.18-.41.27"/><path class="cls-74" d="M29.7,26.92V34a.87.87,0,0,0,.34.73c.35.2,6.45,3.91,6.45,3.91s.38.19.38-.39V31.08a.79.79,0,0,0-.36-.72c-.4-.25-6.41-3.75-6.41-3.75s-.4-.17-.4.27"/><path class="cls-75" d="M29.61,27v7.09a.88.88,0,0,0,.34.72c.36.2,6.46,3.91,6.46,3.91s.37.19.37-.38V31.14a.81.81,0,0,0-.35-.73L30,26.67s-.41-.18-.41.27"/><path class="cls-76" d="M29.53,27v7.08a.87.87,0,0,0,.34.73c.35.2,6.46,3.91,6.46,3.91s.37.18.37-.39V31.19a.79.79,0,0,0-.36-.72c-.4-.25-6.41-3.75-6.41-3.75s-.4-.18-.4.27"/><path class="cls-77" d="M29.44,27.08v7.09a.88.88,0,0,0,.34.72c.36.2,6.46,3.91,6.46,3.91s.37.19.37-.38V31.25a.81.81,0,0,0-.35-.73l-6.41-3.74s-.41-.18-.41.27"/><path class="cls-78" d="M29.36,27.14v7.08a.87.87,0,0,0,.34.73c.35.2,6.46,3.91,6.46,3.91s.37.18.37-.39V31.3a.78.78,0,0,0-.36-.72c-.4-.25-6.4-3.75-6.4-3.75s-.41-.18-.41.27"/><path class="cls-79" d="M29.28,27.19v7.08a.87.87,0,0,0,.33.73c.36.2,6.46,3.91,6.46,3.91s.37.19.37-.39V31.36a.81.81,0,0,0-.35-.73c-.41-.25-6.41-3.74-6.41-3.74s-.4-.18-.4.27"/><path class="cls-80" d="M29.19,27.25v7.08a.85.85,0,0,0,.34.72L36,39s.37.18.37-.39V31.41a.79.79,0,0,0-.35-.72c-.41-.25-6.41-3.75-6.41-3.75s-.41-.18-.41.27"/><path class="cls-81" d="M29.11,27.3v7.08a.87.87,0,0,0,.33.73c.36.2,6.46,3.91,6.46,3.91s.37.19.37-.39V31.47a.78.78,0,0,0-.35-.73c-.4-.25-6.41-3.74-6.41-3.74s-.4-.18-.4.27"/><path class="cls-82" d="M29,27.36v7.08a.88.88,0,0,0,.34.72l6.46,3.92s.37.18.37-.39V31.52a.79.79,0,0,0-.35-.72c-.41-.25-6.41-3.75-6.41-3.75s-.41-.18-.41.27"/><path class="cls-83" d="M28.94,27.41v7.08a.86.86,0,0,0,.34.73c.35.2,6.46,3.91,6.46,3.91s.37.19.37-.39V31.58a.8.8,0,0,0-.36-.73c-.4-.25-6.41-3.74-6.41-3.74s-.4-.18-.4.27"/><path class="cls-84" d="M28.85,27.46v7.09a.88.88,0,0,0,.34.72l6.46,3.92s.37.18.37-.39V31.63a.79.79,0,0,0-.35-.72c-.41-.25-6.41-3.75-6.41-3.75s-.41-.18-.41.27"/><path class="cls-85" d="M28.77,27.52V34.6a.86.86,0,0,0,.34.73c.35.2,6.46,3.91,6.46,3.91s.37.19.37-.39V31.69a.8.8,0,0,0-.36-.73c-.4-.25-6.41-3.74-6.41-3.74s-.4-.18-.4.27"/><path class="cls-86" d="M28.69,27.57v7.09a.86.86,0,0,0,.33.72l6.46,3.92s.37.18.37-.39V31.74A.81.81,0,0,0,35.5,31l-6.41-3.74s-.4-.18-.4.27"/><path class="cls-87" d="M28.6,27.63v7.08a.87.87,0,0,0,.34.73c.35.2,6.46,3.91,6.46,3.91s.37.19.37-.39V31.79a.79.79,0,0,0-.36-.72c-.4-.25-6.4-3.74-6.4-3.74s-.41-.18-.41.27"/><path class="cls-88" d="M28.52,27.68v7.09a.86.86,0,0,0,.33.72c.36.2,6.46,3.91,6.46,3.91s.37.19.37-.38V31.85a.81.81,0,0,0-.35-.73l-6.41-3.74s-.4-.18-.4.27"/><path class="cls-89" d="M28.43,27.74v7.08a.9.9,0,0,0,.34.73c.35.2,6.46,3.91,6.46,3.91s.37.18.37-.39V31.9a.79.79,0,0,0-.35-.72c-.41-.25-6.41-3.75-6.41-3.75s-.41-.18-.41.27"/><path class="cls-90" d="M28.35,27.79v7.09a.85.85,0,0,0,.34.72c.35.2,6.45,3.91,6.45,3.91s.38.19.38-.38V32a.8.8,0,0,0-.36-.73l-6.41-3.74s-.4-.18-.4.27"/><path class="cls-91" d="M28.26,27.85v7.08a.9.9,0,0,0,.34.73c.36.2,6.46,3.91,6.46,3.91s.37.18.37-.39V32a.79.79,0,0,0-.35-.72c-.41-.25-6.41-3.75-6.41-3.75s-.41-.18-.41.27"/><path class="cls-92" d="M28.18,27.9V35a.85.85,0,0,0,.34.72c.35.2,6.46,3.91,6.46,3.91s.37.19.37-.38V32.07a.8.8,0,0,0-.36-.73L28.58,27.6s-.4-.18-.4.27"/><path class="cls-93" d="M28.1,28V35a.88.88,0,0,0,.33.73c.36.2,6.46,3.91,6.46,3.91s.37.18.37-.39V32.12a.79.79,0,0,0-.35-.72c-.41-.25-6.41-3.75-6.41-3.75s-.41-.18-.41.27"/><path class="cls-94" d="M28,28v7.08a.86.86,0,0,0,.34.73c.35.2,6.46,3.91,6.46,3.91s.37.19.37-.39V32.18a.8.8,0,0,0-.36-.73c-.4-.25-6.4-3.74-6.4-3.74S28,27.53,28,28"/><path class="cls-95" d="M27.93,28.07v7.08a.86.86,0,0,0,.33.72l6.46,3.92s.37.18.37-.39V32.23a.79.79,0,0,0-.35-.72c-.41-.25-6.41-3.75-6.41-3.75s-.4-.18-.4.27"/><path class="cls-96" d="M27.84,28.12V35.2a.89.89,0,0,0,.34.73c.35.2,6.46,3.91,6.46,3.91s.37.19.37-.39V32.29a.81.81,0,0,0-.35-.73c-.41-.25-6.41-3.74-6.41-3.74s-.41-.18-.41.27"/><path class="cls-97" d="M27.76,28.18v7.08a.86.86,0,0,0,.33.72l6.46,3.92s.38.18.38-.39V32.34a.78.78,0,0,0-.36-.72c-.4-.25-6.41-3.75-6.41-3.75s-.4-.18-.4.27"/><path class="cls-98" d="M27.67,28.23v7.08A.89.89,0,0,0,28,36c.35.2,6.46,3.91,6.46,3.91s.37.19.37-.39V32.4a.81.81,0,0,0-.35-.73c-.41-.25-6.41-3.74-6.41-3.74s-.41-.18-.41.27"/><path class="cls-99" d="M27.59,28.28v7.09a.85.85,0,0,0,.34.72L34.39,40s.37.18.37-.39V32.45a.78.78,0,0,0-.36-.72C34,31.48,28,28,28,28s-.4-.18-.4.27"/><path class="cls-100" d="M27.5,28.34v7.08a.89.89,0,0,0,.34.73c.36.2,6.46,3.91,6.46,3.91s.37.19.37-.39V32.5a.79.79,0,0,0-.35-.72c-.41-.25-6.41-3.74-6.41-3.74s-.41-.18-.41.27"/><path class="cls-101" d="M27.42,28.39v7.09a.85.85,0,0,0,.34.72c.35.2,6.46,3.91,6.46,3.91s.37.19.37-.38V32.56a.8.8,0,0,0-.36-.73l-6.41-3.74s-.4-.18-.4.27"/><path class="cls-102" d="M27.34,28.45v7.08a.88.88,0,0,0,.33.73c.36.2,6.46,3.91,6.46,3.91s.37.19.37-.39V32.61a.79.79,0,0,0-.35-.72c-.41-.25-6.41-3.74-6.41-3.74s-.4-.18-.4.26"/><path class="cls-103" d="M27.25,28.5v7.09a.85.85,0,0,0,.34.72c.35.2,6.46,3.91,6.46,3.91s.37.19.37-.38V32.67a.8.8,0,0,0-.36-.73l-6.4-3.74s-.41-.18-.41.27"/><path class="cls-104" d="M27.17,28.56v7.08a.88.88,0,0,0,.33.73c.36.2,6.46,3.91,6.46,3.91s.37.18.37-.39V32.72A.77.77,0,0,0,34,32c-.4-.25-6.41-3.75-6.41-3.75s-.4-.18-.4.27"/><path class="cls-105" d="M27.08,28.61V35.7a.88.88,0,0,0,.34.72c.35.2,6.46,3.91,6.46,3.91s.37.19.37-.38V32.78a.81.81,0,0,0-.35-.73l-6.41-3.74s-.41-.18-.41.27"/><path class="cls-106" d="M27,28.67v7.08a.87.87,0,0,0,.34.73c.35.2,6.45,3.91,6.45,3.91s.38.18.38-.39V32.83a.79.79,0,0,0-.36-.72c-.4-.25-6.41-3.75-6.41-3.75s-.4-.18-.4.27"/><path class="cls-107" d="M26.91,28.72v7.09a.88.88,0,0,0,.34.72c.36.2,6.46,3.91,6.46,3.91s.37.19.37-.38V32.89a.81.81,0,0,0-.35-.73c-.41-.25-6.41-3.74-6.41-3.74s-.41-.18-.41.27"/><path class="cls-108" d="M26.83,28.78v7.08a.85.85,0,0,0,.34.72l6.46,3.92s.37.18.37-.39V32.94a.78.78,0,0,0-.36-.72c-.4-.25-6.41-3.75-6.41-3.75s-.4-.18-.4.27"/><path class="cls-109" d="M26.75,28.83v7.08a.87.87,0,0,0,.33.73c.36.2,6.46,3.91,6.46,3.91s.37.19.37-.39V33a.81.81,0,0,0-.35-.73c-.41-.25-6.41-3.74-6.41-3.74s-.4-.18-.4.27"/><path class="cls-110" d="M26.66,28.89V36a.85.85,0,0,0,.34.72l6.46,3.92s.37.18.37-.39V33.05a.78.78,0,0,0-.36-.72c-.4-.25-6.4-3.75-6.4-3.75s-.41-.18-.41.27"/><path class="cls-111" d="M26.58,28.94V36a.87.87,0,0,0,.33.73c.36.2,6.46,3.91,6.46,3.91s.37.19.37-.39V33.11a.81.81,0,0,0-.35-.73C33,32.13,27,28.64,27,28.64s-.4-.18-.4.27"/><path class="cls-112" d="M26.49,29v7.08a.88.88,0,0,0,.34.72l6.46,3.92s.37.18.37-.39V33.16a.79.79,0,0,0-.35-.72c-.41-.25-6.41-3.75-6.41-3.75s-.41-.18-.41.27"/><path class="cls-113" d="M26.41,29.05v7.08a.86.86,0,0,0,.34.73c.35.2,6.45,3.91,6.45,3.91s.38.19.38-.39V33.22a.8.8,0,0,0-.36-.73c-.4-.25-6.41-3.74-6.41-3.74s-.4-.18-.4.27"/><path class="cls-114" d="M26.32,29.1v7.09a.88.88,0,0,0,.34.72l6.46,3.92s.37.18.37-.39V33.27a.81.81,0,0,0-.35-.73L26.73,28.8s-.41-.18-.41.27"/><path class="cls-115" d="M26.24,29.16v7.08a.86.86,0,0,0,.34.73c.35.2,6.46,3.91,6.46,3.91s.37.19.37-.39V33.32a.79.79,0,0,0-.36-.72c-.4-.25-6.41-3.74-6.41-3.74s-.4-.18-.4.27"/><path class="cls-116" d="M34.67,23.08v7.09a.85.85,0,0,0,.34.72l6.46,3.92s.37.18.37-.39V27.25a.78.78,0,0,0-.36-.72c-.4-.25-6.4-3.75-6.4-3.75s-.41-.18-.41.27"/><path class="cls-117" d="M35.57,22.44v7.08a.87.87,0,0,0,.33.73c.36.2,6.46,3.91,6.46,3.91s.38.19.38-.39V26.61a.8.8,0,0,0-.36-.73C42,25.63,36,22.14,36,22.14s-.4-.18-.4.27"/><path class="cls-118" d="M32.57,28.44C30.12,27,28.12,28.19,28.12,31a9.86,9.86,0,0,0,4.45,7.71C35,40.13,37,39,37,36.15A9.92,9.92,0,0,0,32.57,28.44Z"/><path class="cls-119" d="M31.94,28.44C29.49,27,27.49,28.19,27.49,31a9.86,9.86,0,0,0,4.45,7.71c2.45,1.41,4.45.26,4.45-2.57A9.89,9.89,0,0,0,31.94,28.44Z"/><path class="cls-120" d="M19.53,7.15c0-.12.08-.16.18-.1l11.83,6.82a.42.42,0,0,1,.17.31v8.19c0,.11-.08.16-.17.1L19.71,15.64a.37.37,0,0,1-.18-.31Z"/><path class="cls-121" d="M31.23,14.08a.37.37,0,0,1,.18.31v8l-11.7-6.75a.37.37,0,0,1-.18-.31v-8Z"/><path class="cls-122" d="M30.14,15a.28.28,0,0,1,.12.21v5.52l-3.42-2a.26.26,0,0,1-.12-.21V13Z"/><polygon class="cls-123" points="26.39 12.98 19.78 9.17 19.78 9.71 26.39 13.53 26.39 12.98"/><polygon class="cls-123" points="26.39 14.29 19.78 10.47 19.78 11.02 26.39 14.83 26.39 14.29"/><polygon class="cls-123" points="26.39 15.59 19.78 11.77 19.78 12.32 26.39 16.13 26.39 15.59"/><polygon class="cls-123" points="26.39 16.89 22.68 14.76 22.68 15.3 26.39 17.43 26.39 16.89"/><path class="cls-124" d="M40.84,37c0-.12.08-.16.18-.11l11.82,6.83a.4.4,0,0,1,.18.31v8.19c0,.11-.08.15-.18.1L41,45.52a.39.39,0,0,1-.18-.31Z"/><path class="cls-125" d="M52.53,44a.37.37,0,0,1,.18.3v8L41,45.52a.39.39,0,0,1-.18-.31v-8Z"/><polygon class="cls-126" points="52.24 45.88 41.09 39.41 41.09 39.95 52.24 46.42 52.24 45.88"/><polygon class="cls-127" points="52.24 47.18 41.09 40.71 41.09 41.25 52.24 47.72 52.24 47.18"/><polygon class="cls-128" points="52.24 48.48 41.09 42.01 41.09 42.55 52.24 49.02 52.24 48.48"/><polygon class="cls-129" points="52.24 49.78 43.98 44.99 43.98 45.54 52.24 50.33 52.24 49.78"/><path class="cls-130" d="M44,14.35c0-.11.08-.16.18-.1L56,21.08a.37.37,0,0,1,.18.31v8.18c0,.11-.08.16-.18.1L44.14,22.85a.4.4,0,0,1-.18-.31Z"/><path class="cls-131" d="M55.65,21.28a.4.4,0,0,1,.18.31v8L44.14,22.85a.4.4,0,0,1-.18-.31v-8Z"/><polygon class="cls-132" points="55.36 28.61 55.36 26.91 54.05 25.04 53.36 25.55 51.97 22.79 51.46 23.67 50.72 23.67 49.53 21.91 48.84 21.48 47.39 21.48 46.47 20.15 45.43 20.62 44.33 20.57 44.33 22.31 55.36 28.61"/></g><path class="cls-133" d="M31,36.87a.59.59,0,0,1-.43-.19l-2.11-2.4a.56.56,0,0,1,.05-.8.57.57,0,0,1,.8.05L31,35.44l3.49-4a.57.57,0,1,1,.85.75l-3.91,4.48a.57.57,0,0,1-.43.19Z"/><path class="cls-134" d="M23,37.35A2.23,2.23,0,0,1,23,37c.05-.18.09-.34.09-.36l2.2-2.22a.51.51,0,0,1,.31-.19h.07a.46.46,0,0,1,.37.75l-2.08,2.59h0A.51.51,0,0,1,23,37.35Z"/><path class="cls-134" d="M26.21,35.16a.69.69,0,0,1-.94.25.68.68,0,0,1,0-1,.62.62,0,1,1,1,.72Z"/><path class="cls-134" d="M25.39,34.58h0a.19.19,0,0,1,0-.28l.72-1a.2.2,0,0,1,.28,0h0a.19.19,0,0,1,0,.28l-.72,1A.2.2,0,0,1,25.39,34.58Z"/><g class="cls-135"><path class="cls-136" d="M19.05,54.08a5.08,5.08,0,0,0,4.59,0c1.27-.73,1.27-1.92,0-2.65a5.08,5.08,0,0,0-4.59,0A1.4,1.4,0,0,0,19.05,54.08Z"/></g><path class="cls-137" d="M18.91,35.71a3.31,3.31,0,0,0-.12,1.4,4,4,0,0,0,.15.67l.88,2.51a.61.61,0,0,1-.38.79l-.15,0a.64.64,0,0,1-.64-.41l-.88-2.51a4.46,4.46,0,0,1-.24-1.14,4.72,4.72,0,0,1,.19-1.71l.85-2.71a.62.62,0,0,1,.78-.4.61.61,0,0,1,.4.77Z"/><path class="cls-134" d="M19.44,41.08l-.15,0a.64.64,0,0,1-.64-.41l-.88-2.51a4.46,4.46,0,0,1-.24-1.14,4.45,4.45,0,0,0,1.26.06,4,4,0,0,0,.15.67l.88,2.51A.61.61,0,0,1,19.44,41.08Z"/><path class="cls-134" d="M18.81,46.53l-.5-6,.13-1.44,3.07.45,1.78-.78-.19,7.64S22.46,52,22.45,52a3.93,3.93,0,0,0-.06.78,1.5,1.5,0,0,1-1.05-.35.73.73,0,0,1,.05-.28h0l-.22-5.32-.24-5.23L20.79,44l-.51,2.48-.67,6c-.33,0-.55,0-.88,0l0,0a.13.13,0,0,1,0-.08Z"/><path class="cls-138" d="M22.32,53.42c.42.3.38.58,1,.42a1.22,1.22,0,0,0,.55-.26.45.45,0,0,0,.1-.53.72.72,0,0,0-.46-.25,2.54,2.54,0,0,0-.91,0,.71.71,0,0,0-.41.13C22,53.06,22.13,53.29,22.32,53.42Z"/><rect class="cls-139" x="18.68" y="51.74" width="1.07" height="1.24" rx="0.18" transform="translate(38.43 104.73) rotate(180)"/><path class="cls-134" d="M22.12,52.24a1.17,1.17,0,0,1,.28.21,4,4,0,0,1,.87.88.74.74,0,0,1-.52.41c-.18-.05-.34-.12-.4-.14a2.2,2.2,0,0,1-.89-.74s-.05-.09,0-.13l.35-.34c.35-.34.88.15,1.24.33.13.07.29.17.29.32s-.13.25-.26.32a1.32,1.32,0,0,1-.4.11Z"/><rect class="cls-138" x="21.18" y="52.79" width="0.49" height="1.18" rx="0.16"/><path class="cls-138" d="M21.23,52.31a.54.54,0,0,1,.51.07,5.17,5.17,0,0,1,.65.58.85.85,0,0,0,1,.24c.12.08.2.16.2.26s-.26.32-.37.4c-.35.24-.92-.15-1.2-.3s-.47-.09-.68-.18A.75.75,0,0,1,21.23,52.31Z"/><rect class="cls-138" x="18.97" y="52.14" width="0.48" height="1.15" rx="0.18"/><path class="cls-138" d="M19.16,52.65h.19a.51.51,0,0,0,.51-.51V52a.49.49,0,0,0-.49-.49h-.24a.49.49,0,0,0-.49.49v.17A.51.51,0,0,0,19.16,52.65Z"/><path class="cls-140" d="M22.74,37.48l.35.56a2.66,2.66,0,0,1,.43,1.48l-.1,7.64s-3.1,1.71-4.87-.23l-.18-5.47s-.63-3.08.63-3.8Z"/><path class="cls-141" d="M19,37a4.53,4.53,0,0,1,0,.64.29.29,0,0,0,.14.28,4.25,4.25,0,0,0,.56.29,3.13,3.13,0,0,0,1.83.24l.07,0c.35-.09,1.11-.29,1.18-.73a.43.43,0,0,0,0,0s0-.08,0-.12V35.58c.19-.57.54-1,.36-1.68a2.62,2.62,0,0,0-.4-.91,2.44,2.44,0,0,0-1.37-.88c-.19-.06-.37-.1-.54-.14a3.45,3.45,0,0,0-1.08,0,1.58,1.58,0,0,0-1,.43l-.08.11a3.13,3.13,0,0,0-.05,2.35A10.81,10.81,0,0,1,19,37Z"/><path class="cls-142" d="M21.47,30.88h0v0A0,0,0,0,0,21.47,30.88Z"/><polygon class="cls-134" points="19.81 32.62 21.17 32.62 21.34 31.62 21.46 30.87 20.11 30.87 19.81 32.62"/><g class="cls-143"><polygon class="cls-134" points="20.45 31.13 21.13 32.15 21.17 32.15 21.34 31.16 20.45 31.13"/></g><path class="cls-134" d="M21.37,30.56a.14.14,0,0,1-.09,0v0Z"/><path class="cls-134" d="M21.78,31.45h0l-.12-.12Z"/><path class="cls-134" d="M19.75,32.35c.22.31.92.2,1.6-.24-.19-.06-.37-.1-.54-.14a3.45,3.45,0,0,0-1.08,0A.5.5,0,0,0,19.75,32.35Z"/><path class="cls-142" d="M21.53,30.55h0v0A0,0,0,0,0,21.53,30.55Z"/><path class="cls-134" d="M22.49,30.14a1.73,1.73,0,0,1-.32,1.08,1.35,1.35,0,0,1-1.07.47,1.08,1.08,0,0,1-.63-.14,1.65,1.65,0,0,1-.63-1.13,4.46,4.46,0,0,1-.07-.51,1.88,1.88,0,0,1,.06-.58,1.63,1.63,0,0,1,.73-.95,2.54,2.54,0,0,1,1.1-.35.83.83,0,0,1,.56.07.49.49,0,0,1,.23.31.33.33,0,0,1,0,.14c0,.36,0,.72,0,1.09C22.49,29.8,22.5,30,22.49,30.14Z"/><path class="cls-138" d="M19.44,29.35a2.61,2.61,0,0,0,.16.88,2.22,2.22,0,0,0,.67,1c.25.19.77.38,1,.1s.12-.76.37-1a.93.93,0,0,1,.26-.18,1.93,1.93,0,0,0,.57-.45,1.36,1.36,0,0,0-.21-1.8,1.91,1.91,0,0,0-1.49-.22,1.86,1.86,0,0,0-.46.19l0,0A1.88,1.88,0,0,0,19.44,29.35Z"/><path class="cls-134" d="M21.43,30.23a.1.1,0,0,1-.09,0v0Z"/><path class="cls-134" d="M21,30.34a.66.66,0,0,0,.14.38.58.58,0,0,0,.16.19.3.3,0,0,0,.24.06c.26-.06.23-.44.15-.63a.46.46,0,0,0-.34-.28A.3.3,0,0,0,21,30.34Z"/><path class="cls-137" d="M21.6,33.92c.17-.31.32-.53.69-.47a5.2,5.2,0,0,1,.77.22l.06.23c.18.71-.17,1.11-.36,1.68v1.94s0,.08,0,.12a.43.43,0,0,1,0,0c-.07.44-.83.64-1.18.73l-.07,0V34Z"/><path class="cls-138" d="M18.92,37.62a4.24,4.24,0,0,0,0-.62v-.11l.09,0a3.17,3.17,0,0,0,3.19.34l.16-.06a2.37,2.37,0,0,0,.36-.17l.09-.07v.66s0,0,0,.06c-.08.48-.88.69-1.22.78a2.44,2.44,0,0,1-.59.07,4,4,0,0,1-1.93-.6A.36.36,0,0,1,18.92,37.62Z"/><path class="cls-138" d="M17.81,32.35h0c.2-.3.52-.49.74-.76.85-1,.25-2.6,1.27-3.58s2.1-.26,2.47.88l.11.57c.23.69-.07-2.34-.48,2-.08.81-.16,1.53-.18,2.34A1.67,1.67,0,0,1,21,35.12a2.84,2.84,0,0,1-1.54.4,2,2,0,0,1-.84-.15,2.1,2.1,0,0,1-1-2.09A1.75,1.75,0,0,1,17.81,32.35Z"/><path class="cls-141" d="M23.46,37.83h0a.66.66,0,0,1-.86-.48L21.77,34a.69.69,0,1,1,1.34-.33L23.44,35l.33,1.29h0C23.91,36.91,24.2,37.55,23.46,37.83Z"/></g></g></svg>