<?xml version="1.0" encoding="UTF-8"?>
<svg width="21px" height="23px" viewBox="0 0 21 23" version="1.1" xmlns="http://www.w3.org/2000/svg" xmlns:xlink="http://www.w3.org/1999/xlink">
    <title>编组 36</title>
    <g id="页面-1" stroke="none" stroke-width="1" fill="none" fill-rule="evenodd">
        <g id="上海银行运营可视化0305日历展开" transform="translate(-501.000000, -838.000000)">
            <g id="编组-36" transform="translate(501.000000, 838.000000)">
                <circle id="椭圆形备份-53" fill="#E9F0FF" cx="10.262069" cy="12.262069" r="10.262069"></circle>
                <g id="编组-35" fill-rule="nonzero">
                    <path d="M2.7,1.9546734 C2.20294373,1.9546734 1.8,2.35761712 1.8,2.8546734 L1.8,5.1046734 C1.8,5.60172967 2.20294373,6.0046734 2.7,6.0046734 L4.95,6.0046734 C5.44705627,6.0046734 5.85,5.60172967 5.85,5.1046734 L5.85,2.8546734 C5.85,2.35761712 5.44705627,1.9546734 4.95,1.9546734 L2.7,1.9546734 Z M2.7,0.154673395 L4.95,0.154673395 C6.44116882,0.154673395 7.65,1.36350457 7.65,2.8546734 L7.65,5.1046734 C7.65,5.82075792 7.36553653,6.50751348 6.85918831,7.0138617 C6.35284009,7.52020993 5.66608452,7.8046734 4.95,7.8046734 L2.7,7.8046734 C1.20883118,7.8046734 0,6.59584222 0,5.1046734 L0,2.8546734 C0,1.36350457 1.20883118,0.154673395 2.7,0.154673395 Z M2.7,10.9546734 C2.20294373,10.9546734 1.8,11.3576171 1.8,11.8546734 L1.8,14.1046734 C1.8,14.6017297 2.20294373,15.0046734 2.7,15.0046734 L4.95,15.0046734 C5.44705627,15.0046734 5.85,14.6017297 5.85,14.1046734 L5.85,11.8546734 C5.85,11.3576171 5.44705627,10.9546734 4.95,10.9546734 L2.7,10.9546734 L2.7,10.9546734 Z M2.7,9.1546734 L4.95,9.1546734 C6.44116882,9.1546734 7.65,10.3635046 7.65,11.8546734 L7.65,14.1046734 C7.65,14.8207579 7.36553653,15.5075135 6.85918831,16.0138617 C6.35284009,16.5202099 5.66608452,16.8046734 4.95,16.8046734 L2.7,16.8046734 C1.20883118,16.8046734 0,15.5958422 0,14.1046734 L0,11.8546734 C0,10.3635046 1.20883118,9.1546734 2.7,9.1546734 L2.7,9.1546734 Z M13.455,2.0635734 C13.1035501,1.71222965 12.5338499,1.71222965 12.1824,2.0635734 L10.908,3.3370734 C10.5566563,3.68852326 10.5566563,4.25822353 10.908,4.6096734 L12.1815,5.8822734 C12.5329499,6.23361714 13.1026501,6.23361714 13.4541,5.8822734 L14.7267,4.6096734 C15.0780437,4.25822353 15.0780437,3.68852326 14.7267,3.3370734 L13.455,2.0626734 L13.455,2.0635734 Z M14.7276,0.790973395 L16.0002,2.0635734 C16.5066471,2.56993476 16.7911734,3.25675963 16.7911734,3.9729234 C16.7911734,4.68908716 16.5066471,5.37591203 16.0002,5.8822734 L14.7276,7.1548734 C14.2212386,7.66132054 13.5344138,7.94584679 12.81825,7.94584679 C12.1020862,7.94584679 11.4152614,7.66132054 10.9089,7.1548734 L9.6363,5.8822734 C9.12985286,5.37591203 8.8453266,4.68908716 8.8453266,3.9729234 C8.8453266,3.25675963 9.12985286,2.56993476 9.6363,2.0635734 L10.9089,0.790973395 C11.4152614,0.284526254 12.1020862,-2.92337583e-13 12.81825,-2.92337583e-13 C13.5344138,-2.92337583e-13 14.2212386,0.284526254 14.7276,0.790973395 Z M11.8503,15.0046734 C12.3473563,15.0046734 12.7503,15.4076171 12.7503,15.9046734 C12.7503,16.4017297 12.3473563,16.8046734 11.8503,16.8046734 C10.2761228,16.8046734 9,15.5285506 9,13.9543734 L9,12.0049734 C9,10.4307962 10.2761228,9.1546734 11.8503,9.1546734 L13.7997,9.1546734 C15.3738772,9.1546734 16.65,10.4307962 16.65,12.0049734 L16.65,12.1534734 C16.65,12.6505297 16.2470563,13.0534734 15.75,13.0534734 C15.2529437,13.0534734 14.85,12.6505297 14.85,12.1534734 L14.85,12.0049734 C14.85,11.4244734 14.3802,10.9546734 13.7997,10.9546734 L11.8503,10.9546734 C11.2698,10.9546734 10.8,11.4244734 10.8,12.0049734 L10.8,13.9543734 C10.8,14.5348734 11.2698,15.0046734 11.8503,15.0046734 L11.8503,15.0046734 Z" id="形状" fill="#3057D6"></path>
                    <path d="M13.4622,2.0671734 C13.1107501,1.71582965 12.5410499,1.71582965 12.1896,2.0671734 L10.9161,3.3397734 C10.5647563,3.69122326 10.5647563,4.26092353 10.9161,4.6123734 L12.1896,5.8849734 C12.5410499,6.23631714 13.1107501,6.23631714 13.4622,5.8849734 L14.7348,4.6123734 C15.0861437,4.26092353 15.0861437,3.69122326 14.7348,3.3397734 L13.4622,2.0671734 L13.4622,2.0671734 Z" id="路径" fill="#FE7720"></path>
                </g>
            </g>
        </g>
    </g>
</svg>