<?xml version="1.0" encoding="UTF-8"?>
<svg width="24px" height="23px" viewBox="0 0 24 23" version="1.1" xmlns="http://www.w3.org/2000/svg" xmlns:xlink="http://www.w3.org/1999/xlink">
    <title>编组 34</title>
    <g id="页面-1" stroke="none" stroke-width="1" fill="none" fill-rule="evenodd">
        <g id="上海银行运营可视化0305日历展开" transform="translate(-254.000000, -837.000000)">
            <g id="编组-34" transform="translate(254.000000, 837.000000)">
                <circle id="椭圆形备份-10" fill="#E9F0FF" cx="13.262069" cy="12.262069" r="10.262069"></circle>
                <path d="M10,2.54019028e-13 C5.07873924,2.54019028e-13 0.997207168,3.55722969 0.164284531,8.23769627 C0.130019473,8.46628646 0.148560156,8.32335893 0.148560156,8.32335891 L0.128611328,8.46605178 C0.0528057422,8.967589 0,9.47522824 0,9.99882654 C0,15.5218381 4.47722313,19.9988265 10,19.9988265 C15.5227769,19.9988265 20,15.5230116 20,10 C20,4.47698842 15.5230116,2.54019028e-13 10,2.54019028e-13 Z M12.6672769,1.48865264 C10.9171771,1.8057218 9.43579996,2.36006479 8.18465582,3.06437607 C7.78083414,2.77145329 7.22763448,2.79878625 6.85465512,3.13008988 C6.09331361,2.84845924 5.47325682,2.66868502 5.07897393,2.56424699 C7.31715644,1.08073264 10.1049802,0.685561252 12.6672769,1.48865264 L12.6672769,1.48865264 Z M4.33429557,3.11295736 C5.06890629,3.28215694 5.79455079,3.48816352 6.50848412,3.73019785 C6.49552005,3.79654359 6.48884088,3.86396396 6.48853529,3.93156375 C6.48948909,4.01985854 6.50147301,4.10768808 6.5242085,4.19301086 C4.68281348,5.66007182 3.48869957,7.45006922 2.72149076,9.07906779 C2.37354618,9.0794016 2.047483,9.24886692 1.84726232,9.53343189 C1.60620491,9.37101065 1.36939914,9.20236676 1.13708371,9.02767021 C1.38875595,6.71398667 2.53642729,4.59084102 4.33429557,3.11295736 L4.33429557,3.11295736 Z M1.525734,12.7714802 C1.23179924,11.8770124 1.08183932,10.9415255 1.08146166,10 C1.08146166,9.91433734 1.09155342,9.83289916 1.09436973,9.7472365 C1.27711672,9.89368443 1.46283648,10.0360644 1.65152902,10.1743763 C1.65782239,10.465222 1.78271165,10.7408602 1.99723063,10.9373606 C1.80306218,11.5386199 1.64560651,12.1511217 1.525734,12.7714802 L1.525734,12.7714802 Z M2.89868338,15.3786759 C2.59129073,14.9754622 2.31884301,14.5467692 2.08430145,14.0972564 C2.21815175,13.122964 2.43125485,12.1612136 2.72149076,11.2215729 C2.85907833,11.2214358 2.99534582,11.1947401 3.12281443,11.142951 C3.58030777,11.4150375 4.04844048,11.6678792 4.52721256,11.9014762 C4.49904731,12.0066574 4.48468876,12.1150565 4.48449857,12.2239433 C4.48531493,12.3668436 4.50908714,12.5086844 4.55490625,12.6440423 C3.88894317,13.4815551 3.33238873,14.4004969 2.89868338,15.3786759 L2.89868338,15.3786759 Z M3.55722969,16.1543336 C3.92006052,15.1444894 4.42512272,14.1915806 5.05714756,13.324415 C5.36437974,13.5404894 5.74806217,13.6180203 6.11508726,13.5381935 C6.48211235,13.4583666 6.7989321,13.2284786 6.98866438,12.904316 C8.2148433,13.3087666 9.47824113,13.5901418 10.760168,13.7442794 C10.7824727,14.7988903 10.9141358,15.8483413 11.1530428,16.8757774 C10.8521686,16.8811083 10.5860697,17.072279 10.4849932,17.3557172 C10.3839167,17.6391554 10.4690086,17.9555637 10.6986192,18.15007 C10.9282297,18.3445763 11.2543224,18.3764883 11.5172851,18.2301861 C11.5700908,18.4031543 11.6273557,18.5772959 11.6843859,18.7530803 L11.6857941,18.7544885 C8.71014062,19.3308895 5.64592947,18.3507136 3.55722969,16.1543336 L3.55722969,16.1543336 Z M14.6072426,17.6244455 C13.9022521,18.0514943 13.1410665,18.3779762 12.3457486,18.5944284 C12.2701777,18.3472975 12.2100965,18.2930836 12.1471989,18.0515854 C12.1471989,18.0515854 12.4943087,17.7464855 12.4053604,17.3200497 C12.316412,16.893614 11.8395175,16.7157173 11.8111197,16.7443498 C11.5764275,15.6344904 11.5625807,14.7658945 11.5454481,13.8214931 C12.3666976,13.8864273 13.1911643,13.9007706 14.0141754,13.8644418 C14.1135799,14.3634001 14.4859183,14.7636185 14.9764134,14.8987303 C14.9452957,15.8174019 14.821613,16.7305937 14.6072426,17.6244455 L14.6072426,17.6244455 Z M15.4115328,17.0771433 C15.5925147,16.3534332 15.7147951,15.6162974 15.7771832,14.8729142 C16.3182701,14.686593 16.6818377,14.1778433 16.6828604,13.6055763 L16.6814523,13.5821071 C17.2099791,13.4912812 17.7528222,13.3739351 18.3024713,13.2385177 C17.7076498,14.758163 16.7078034,16.085772 15.4115328,17.0771433 Z M16.4873618,12.9172241 C16.312151,12.6256704 16.0328464,12.411453 15.7058368,12.3178202 C15.5410265,11.2301383 15.1880991,10.1794565 14.6628646,9.21284236 C14.4755063,9.44500448 14.2498478,9.64343796 13.9956347,9.79957285 C14.3730943,10.6181057 14.6429658,11.482073 14.7985167,12.3699219 C14.4621128,12.5177017 14.200544,12.7963073 14.0742566,13.1413551 C13.2319315,13.1674234 12.3888007,13.1402231 11.5499073,13.0599169 C11.5822772,12.0657033 11.7421578,11.0797595 12.0256284,10.1262644 C11.7785021,10.0697576 11.5408161,9.97790821 11.3199089,9.85355207 C10.9979685,10.8631313 10.8126366,11.911267 10.7688517,12.9700298 C9.54691543,12.8022614 8.34281377,12.5234672 7.17148959,12.1371072 C7.15331002,11.862874 7.05158672,11.6007849 6.88000188,11.3860921 C7.98300835,10.4707034 9.22041541,9.73064976 10.5487104,9.19195475 C10.3539412,8.9465387 10.2044535,8.66838505 10.1072543,8.37053205 C8.6618074,9.00112934 7.32861912,9.86275944 6.15996621,10.9216363 C6.0528725,10.8921408 5.94246584,10.8763684 5.83139713,10.8746978 C5.48496445,10.8752594 5.15218057,11.0098195 4.90272008,11.2502054 C4.46462797,11.0488394 4.05415131,10.8441096 3.6712901,10.6360159 C3.89975658,10.2032164 3.7990083,9.66998061 3.42838367,9.35037199 C4.35283625,7.3275599 5.5941233,5.85040719 6.90558332,4.77387406 C7.14068265,4.95965923 7.44335212,5.03742726 7.73889101,4.98798451 C8.03442991,4.93854177 8.29530602,4.76649429 8.45713348,4.51430449 C9.2258835,4.87732688 9.95944261,5.31061149 10.6484546,5.80863197 C10.7961305,5.64163624 10.9641488,5.49380214 11.1485836,5.3685841 C10.3515827,4.80215824 9.50751539,4.30506149 8.62564246,3.88274777 C8.62133052,3.79104398 8.60499718,3.7003032 8.57706119,3.61285174 C10.7831679,2.33284047 12.8740407,1.98291439 13.6971062,1.88997629 C14.6057404,2.30490783 15.4382647,2.86944406 16.1599662,3.560046 C15.3828523,4.0688054 14.6671428,4.66567624 14.0270835,5.33877818 C14.2423998,5.47579702 14.4367792,5.64322093 14.6041916,5.83585627 C15.2488095,5.19615509 15.976826,4.64639289 16.7685231,4.20145979 C17.4569495,5.00564437 17.9963554,5.92621873 18.361379,6.91989955 C17.3049817,6.88696366 16.2475765,6.92852895 15.1970241,7.04428643 C15.2570161,7.33536003 15.264962,7.63476073 15.2204933,7.92860664 C16.339021,7.75818214 17.4686303,7.6707943 18.600061,7.66715951 C19.037332,9.24505912 19.0236728,10.9139208 18.5606327,12.4844516 C17.8565561,12.6658687 17.162806,12.812786 16.4871271,12.9172241 L16.4873618,12.9172241 Z" id="形状" fill="#3057D6" fill-rule="nonzero"></path>
                <path d="M10.7287193,7.52869111 C10.7287193,6.77170201 11.1847562,6.08926419 11.8841502,5.79964282 C12.5835442,5.51002145 13.3885372,5.67026263 13.9237086,6.20563546 C14.4588801,6.74100829 14.6188183,7.54606156 14.3289338,8.24534652 C14.0390493,8.94463149 13.3564399,9.40041153 12.5994508,9.40012687 C11.5662141,9.39960851 10.7288487,8.56192794 10.7287193,7.52869111 L10.7287193,7.52869111 Z" id="路径" fill="#3E546D" fill-rule="nonzero"></path>
                <path d="M11.3842146,7.52869111 C11.3672839,8.02446165 11.6529261,8.48090096 12.1062152,8.68240542 C12.5595043,8.88390988 13.0897291,8.79015481 13.4464325,8.44542634 C13.803136,8.10069788 13.9149354,7.5739824 13.7290211,7.11407918 C13.5431069,6.65417597 13.0966838,6.35311789 12.6006243,6.35311789 C11.9445979,6.35311789 11.406605,6.87304698 11.3842146,7.52869111 Z" id="路径" fill="#3E546D" fill-rule="nonzero"></path>
                <path d="M11.9955878,7.44279377 C11.995549,7.65897838 12.1108598,7.85875782 12.2980747,7.96686134 C12.4852895,8.07496486 12.715959,8.07496486 12.9031739,7.96686134 C13.0903888,7.85875782 13.2056996,7.65897838 13.2056608,7.44279377 C13.2056996,7.22660916 13.0903888,7.02682972 12.9031739,6.9187262 C12.715959,6.81062268 12.4852895,6.81062268 12.2980747,6.9187262 C12.1108598,7.02682972 11.995549,7.22660916 11.9955878,7.44279377 L11.9955878,7.44279377 Z" id="路径" fill="#3E546D" fill-rule="nonzero"></path>
                <path d="M10.6665259,7.56811941 C10.6665259,8.67271483 11.5619774,9.56816635 12.6665728,9.56816635 C13.7711682,9.56816635 14.6666197,8.67271483 14.6666197,7.56811941 C14.6666197,6.46352399 13.7711682,5.56807248 12.6665728,5.56807248 C11.5619774,5.56807248 10.6665259,6.46352399 10.6665259,7.56811941 L10.6665259,7.56811941 Z" id="路径" fill="#FE7720" fill-rule="nonzero"></path>
            </g>
        </g>
    </g>
</svg>