<?xml version="1.0" encoding="UTF-8"?>
<svg width="24px" height="24px" viewBox="0 0 24 24" version="1.1" xmlns="http://www.w3.org/2000/svg" xmlns:xlink="http://www.w3.org/1999/xlink">
    <title>编组 38</title>
    <g id="页面-1" stroke="none" stroke-width="1" fill="none" fill-rule="evenodd">
        <g id="上海银行运营可视化0305日历展开" transform="translate(-767.000000, -838.000000)">
            <g id="编组-38" transform="translate(767.000000, 838.000000)">
                <circle id="椭圆形备份-54" fill="#E9F0FF" cx="13.262069" cy="12.9103448" r="10.262069"></circle>
                <g id="编组-37" fill-rule="nonzero">
                    <path d="M18.751029,3.7586315 L4.9850441,3.7586315 C4.29735617,3.7586315 3.73630752,4.31971922 3.73630752,5.00738762 L3.73630752,18.7510486 C3.73630752,19.4387365 4.29985615,19.9997852 4.9850441,19.9997852 L18.751029,19.9997852 C19.438717,19.9997852 19.9997933,19.4362365 19.9997933,18.7510486 L19.9997933,5.00736809 C20.0022656,4.31968016 19.438717,3.7586315 18.751029,3.7586315 L18.751029,3.7586315 Z M18.7460682,18.7460877 L4.99250496,18.7460877 L4.99250496,5.00738762 L18.7460682,5.00738762 L18.7460682,18.7460877 L18.7460682,18.7460877 Z" id="形状" fill="#3057D6"></path>
                    <path d="M4.9850441,15.0072802 L1.24625615,15.0072802 L1.24625615,1.2636583 L14.9973584,1.2636583 L14.9973584,3.77105324 L16.2634776,3.77105324 L16.2634776,1.26115832 C16.2634776,0.57347041 15.699929,6.03961325e-13 15.0147215,6.03961325e-13 L1.24873658,6.03961325e-13 C0.561048652,6.03961325e-13 -8.8817842e-15,0.575970371 -8.8817842e-15,1.26115832 L-8.8817842e-15,15.0047997 C-8.8817842e-15,15.6924877 0.563548633,16.2535559 1.24873658,16.2535559 L4.9850441,16.2535559 L4.9850441,15.0072802 Z" id="路径" fill="#3057D6"></path>
                    <path d="M9.72047941,12.2335199 C9.77039018,11.6382461 10.0211533,11.1356676 10.4655871,10.7223876 C10.9120886,10.3071784 11.4355194,10.1104891 12.0391286,10.1104891 C12.5761379,10.1104891 13.0506548,10.277003 13.4628179,10.6141938 L12.2222486,11.8505076 L15.502504,11.8505076 L15.502504,8.57440607 L14.2870148,9.78578761 L14.2786886,9.78578761 C13.6251225,9.23208915 12.8758609,8.95538761 12.0308025,8.95742761 C11.1024917,8.95955069 10.3200179,9.26975992 9.64134402,9.90650761 C8.97130095,10.5352615 8.60896556,11.3135445 8.55905479,12.2335199 L9.72047941,12.2335199 Z" id="路径" fill="#FE7720"></path>
                    <path d="M9.7787071,15.459683 C10.4405994,16.004963 11.1940333,16.2793661 12.0391194,16.2793661 C12.9507409,16.2793661 13.7440609,15.9614215 14.4160517,15.3344861 C15.1010948,14.6959199 15.4484302,13.9402061 15.4984333,13.0118861 L14.3370179,13.0118861 C14.2911686,13.6030245 14.0455748,14.1025568 13.6001902,14.5147199 C13.1547225,14.9268368 12.6344209,15.1346768 12.0391286,15.1346768 C11.5104548,15.1346768 11.0317286,14.9686061 10.6029686,14.6312399 L11.8434733,13.3949261 L8.55905479,13.3949261 L8.55905479,16.6710184 L9.7787071,15.459683 Z" id="路径" fill="#FE7720"></path>
                </g>
            </g>
        </g>
    </g>
</svg>