<svg id="图层_1" data-name="图层 1" xmlns="http://www.w3.org/2000/svg" xmlns:xlink="http://www.w3.org/1999/xlink" viewBox="0 0 25 25.79"><defs><style>.cls-1{fill:none;}.cls-2{fill:#236696;opacity:0.61;}.cls-3{fill:url(#未命名的渐变_35);}.cls-4{fill:url(#未命名的渐变_33);}.cls-5{fill:url(#未命名的渐变_25);}.cls-6{fill:url(#未命名的渐变_33-2);}.cls-7{fill:#fff;}.cls-8{fill:url(#未命名的渐变_32);}.cls-9{fill:url(#未命名的渐变_32-2);}.cls-10{fill:url(#未命名的渐变_32-3);}.cls-11{fill:url(#未命名的渐变_32-4);}.cls-12{fill:url(#未命名的渐变_32-5);}.cls-13{fill:url(#未命名的渐变_32-6);}.cls-14{fill:url(#未命名的渐变_32-7);}.cls-15{fill:#fe7720;}.cls-16{clip-path:url(#clip-path);}.cls-17{clip-path:url(#clip-path-2);}</style><linearGradient id="未命名的渐变_35" x1="12.47" y1="1.95" x2="12.83" y2="16.88" gradientUnits="userSpaceOnUse"><stop offset="0" stop-color="#0765aa"/><stop offset="0.98" stop-color="#044489"/></linearGradient><linearGradient id="未命名的渐变_33" x1="10.6" y1="-3.18" x2="14.41" y2="32.49" gradientUnits="userSpaceOnUse"><stop offset="0.15" stop-color="#057bc4"/><stop offset="0.75" stop-color="#15389b"/></linearGradient><linearGradient id="未命名的渐变_25" x1="4.92" y1="4.54" x2="19.98" y2="26.37" gradientUnits="userSpaceOnUse"><stop offset="0" stop-color="#198df8"/><stop offset="1" stop-color="#3057d6"/></linearGradient><linearGradient id="未命名的渐变_33-2" x1="11" y1="19.2" x2="9.9" y2="1.27" xlink:href="#未命名的渐变_33"/><linearGradient id="未命名的渐变_32" x1="10.2" y1="6.47" x2="11" y2="6.47" gradientUnits="userSpaceOnUse"><stop offset="0.15" stop-color="#057bc4"/><stop offset="0.75" stop-color="#15389b"/></linearGradient><linearGradient id="未命名的渐变_32-2" x1="10.36" y1="20.02" x2="11.16" y2="20.02" xlink:href="#未命名的渐变_32"/><linearGradient id="未命名的渐变_32-3" x1="6.51" y1="12.67" x2="7.31" y2="12.67" xlink:href="#未命名的渐变_32"/><linearGradient id="未命名的渐变_32-4" x1="14.26" y1="14.93" x2="15.06" y2="14.93" xlink:href="#未命名的渐变_32"/><linearGradient id="未命名的渐变_32-5" x1="10.06" y1="13.7" x2="10.99" y2="13.7" xlink:href="#未命名的渐变_32"/><linearGradient id="未命名的渐变_32-6" x1="10.42" y1="14.24" x2="13.91" y2="14.24" xlink:href="#未命名的渐变_32"/><linearGradient id="未命名的渐变_32-7" x1="10.16" y1="10.8" x2="10.8" y2="10.8" xlink:href="#未命名的渐变_32"/><clipPath id="clip-path"><circle class="cls-1" cx="-69.38" cy="-229.08" r="13.5"/></clipPath><clipPath id="clip-path-2"><circle class="cls-1" cx="-11.38" cy="-229.08" r="13.5"/></clipPath></defs><title>icon</title><path class="cls-2" d="M15.8,25a12.87,12.87,0,0,1-6-.16c-2.46-.67-2.68-1.76-.18-2.21a12.4,12.4,0,0,1,6.53.71c1.14.59.95,1.28-.37,1.66"/><path class="cls-3" d="M20.84,13.2c0,2.37-.22,5.82-1.06,7.58-1.4,2.93-4,3.48-6.78,3.36C8.68,24,5,19,4.64,13,4.3,6.7,7.61,1.45,12.15,1.4S20.72,6.71,20.84,13.2Z"/><path class="cls-4" d="M20.51,13.32c0,2.39-.22,5.87-1.07,7.65-1.41,3-4.07,3.51-6.85,3.39-4.36-.18-8.09-5.17-8.44-11.3C3.8,6.75,7.15,1.45,11.73,1.4S20.39,6.76,20.51,13.32Z"/><path class="cls-5" d="M17.87,15.93c-.37,5.18-3.06,8.59-6.12,8.55s-6.37-3.6-7.51-8.92C2.77,8.71,5.26,1.73,10.15,2S18.33,9.31,17.87,15.93Z"/><path class="cls-6" d="M16,15.07c-.28,4-2.36,6.62-4.71,6.59s-4.91-2.77-5.79-6.88C4.38,9.5,6.29,4.13,10.07,4.32S16.37,10,16,15.07Z"/><path class="cls-7" d="M16.13,15.26c-.27,3.9-2.3,6.46-4.6,6.43S6.74,19,5.88,15c-1.11-5.15.77-10.4,4.45-10.21S16.48,10.28,16.13,15.26Z"/><path class="cls-8" d="M11,6.57a.59.59,0,0,1-.32.48c-.16,0-.36-.06-.44-.33s.07-.86.4-.84S11,6.26,11,6.57Z"/><path class="cls-9" d="M11.15,20.12a.57.57,0,0,1-.32.47c-.16.06-.36-.05-.44-.32s.07-.86.4-.84S11.2,19.8,11.15,20.12Z"/><path class="cls-10" d="M7.3,12.77a.57.57,0,0,1-.32.47c-.17.06-.36-.05-.44-.32s.07-.86.4-.84S7.35,12.45,7.3,12.77Z"/><path class="cls-11" d="M15.05,15a.56.56,0,0,1-.32.47c-.16.06-.36-.05-.43-.32s.06-.86.39-.84S15.1,14.71,15.05,15Z"/><path class="cls-12" d="M10.4,13.06c.24,0,.5.31.57.67s-.08.63-.32.61-.5-.31-.57-.67S10.15,13,10.4,13.06Z"/><polygon class="cls-13" points="10.44 13.9 12.19 14.67 13.91 14.91 13.88 14.75 12.35 13.97 10.42 13.57 10.44 13.9"/><polygon class="cls-14" points="10.41 13.4 10.16 9.99 10.42 8.11 10.54 8.16 10.8 10.09 10.57 13.49 10.41 13.4"/><path class="cls-15" d="M8.82,16.46v.65l0,0,0,.07,0-.88-.35-.11V15.9l.27.07v-.33l-.22-.06v-.31l.22.05v-.26l.31.07v.27l.2,0v.33l-.19,0v.34l.22.06v.34l-.15,0v.32l.15.05v.33l-.16-.06v.48l.2.1,1.07.39v.34l-1.18-.45a1,1,0,0,1-.5-.44.43.43,0,0,1-.25.2v-.31q.08-.07.06-.36v-.62Zm.52-1.15,1,.24v.63q0,.46-.3.36l-.19-.05v-.33l.07,0c.07,0,.1,0,.09-.11v-.25l-.18-.05c0,.42-.16.64-.5.65v-.29a.43.43,0,0,0,.19-.44l-.19,0Zm.07,2.19,0-1.08.95.28v.68c0,.32-.08.44-.29.35ZM10,17l-.32-.1v.43l.22.07c.07,0,.1,0,.1-.11Z"/><path class="cls-15" d="M10.75,18.27l0-2.59,1,.22v2.24c0,.34-.11.46-.36.35Zm.37-2.11v.72l.2.06v-.73Zm.2,1.85V17.3l-.19-.06v.83l.09,0C11.29,18.13,11.32,18.09,11.32,18Zm.84-1a7.88,7.88,0,0,1,.2,1.05l-.44-.15a4.84,4.84,0,0,0-.16-1ZM13,16v.48l.24.06V17L13,16.94v1.85c0,.37-.12.49-.41.37L12.06,19v-.37l.25.08c.09,0,.13,0,.12-.1v-1.8l-.67-.17v-.41l.67.17v-.47Z"/></svg>