<?xml version="1.0" encoding="UTF-8"?>
<svg width="16px" height="16px" viewBox="0 0 16 16" version="1.1" xmlns="http://www.w3.org/2000/svg" xmlns:xlink="http://www.w3.org/1999/xlink">
    <title>告警</title>
    <g id="页面-1" stroke="none" stroke-width="1" fill="none" fill-rule="evenodd">
        <g id="上海银行运营可视化0305日历展开备份" transform="translate(-25.000000, -69.000000)" fill="#D81E06" fill-rule="nonzero">
            <g id="告警" transform="translate(25.000000, 69.000000)">
                <path d="M7.467975,3.2 C10.578375,3.2 13.155175,5.7776 13.155175,8.888 L13.155175,14.0424 L1.779975,14.0424 L1.779975,8.8872 C1.779975,5.7768 4.356775,3.2 7.467975,3.2 Z" id="路径" fill-opacity="0.2"></path>
                <path d="M7.467975,4.1768 C10.044775,4.1768 12.088775,6.2208 12.088775,8.7096 L12.088775,13.6864 L2.935975,13.6864 L2.935975,8.7128 C2.94474119,6.21252404 4.96850585,4.18733068 7.468775,4.1768 L7.467975,4.1768 Z" id="路径" opacity="0.6"></path>
                <path d="M7.467975,5.24399962 C8.36313373,5.24357555 9.22179768,5.59876896 9.85507055,6.23144171 C10.4883434,6.86411446 10.8443508,7.72244127 10.844775,8.6176 L10.844775,12.6176 L4.090375,12.6176 L4.090375,8.6176 C4.09125816,6.75446573 5.60164057,5.2444414 7.464775,5.24399962 L7.467975,5.24399962 Z M1.067975,2.7552 C1.423175,2.3992 1.867975,2.3992 2.223175,2.7552 L2.756775,3.288 C3.112775,3.644 3.112775,4.088 2.756775,4.444 C2.400775,4.8 1.867975,4.7992 1.601575,4.444 L0.979175,3.9136 C0.868093128,3.72457637 0.806972898,3.51038024 0.801575,3.2912 C0.802375,3.0216 0.891175,2.9328 1.068775,2.7552 L1.067975,2.7552 Z M13.954375,2.7552 C14.310375,3.1104 14.310375,3.5552 13.954375,3.9104 L13.335975,4.444 C12.980775,4.7992 12.535975,4.7992 12.180775,4.444 C11.825575,4.0888 11.825575,3.644 12.180775,3.288 L12.714375,2.7552 C12.891975,2.57706667 13.069575,2.488 13.247175,2.488 C13.421575,2.488 13.777575,2.5768 13.955175,2.7552 L13.954375,2.7552 Z M7.467975,0 C7.645575,0 7.912775,0.0888 8.001575,0.2664 C8.178375,0.4448 8.267175,0.6232 8.267175,0.8 L8.267175,1.6 C8.267175,2.0418278 7.9090028,2.4 7.467175,2.4 C7.0253472,2.4 6.667175,2.0418278 6.667175,1.6 L6.667175,0.8 C6.667175,0.6224 6.755975,0.356 6.933575,0.2664 C7.023175,0.0888 7.290375,0 7.467975,0 Z M0.891175,13.6864 L14.577575,13.6864 C15.111175,13.6864 15.466375,14.0416 15.466375,14.5744 L15.466375,15.1112 C15.466375,15.6448 15.111175,16 14.577575,16 L0.891175,16 C0.357575,16 0.002375,15.6448 0.002375,15.1112 L0.002375,14.5776 C0.002375,14.1304 0.446375,13.6864 0.891175,13.6864 Z" id="形状"></path>
            </g>
        </g>
    </g>
</svg>