<?xml version="1.0" encoding="UTF-8"?>
<svg width="17px" height="18px" viewBox="0 0 17 18" version="1.1" xmlns="http://www.w3.org/2000/svg" xmlns:xlink="http://www.w3.org/1999/xlink">
    <title>Fill 1</title>
    <g id="页面-1" stroke="none" stroke-width="1" fill="none" fill-rule="evenodd">
        <g id="上海运维门户移动首页-0305" transform="translate(-331.000000, -1403.000000)" fill="#000000">
            <path d="M347.163731,1418.94131 L342.017962,1418.94131 C341.658346,1418.9516 341.375885,1419.24603 341.386346,1419.60089 C341.396808,1419.93903 341.674038,1420.2116 342.017962,1420.22189 L347.162423,1420.22189 C347.502423,1420.24117 347.791423,1419.9866 347.812346,1419.65489 C347.813654,1419.63046 347.813654,1419.60731 347.812346,1419.58289 C347.812346,1419.2306 347.520731,1418.9426 347.162423,1418.94131 L347.163731,1418.94131 Z M347.163731,1416.38017 L341.953885,1416.38017 C341.592962,1416.37889 341.302654,1416.6656 341.302654,1417.01917 C341.302654,1417.37274 341.592962,1417.65946 341.952577,1417.66074 L341.953885,1417.66074 L347.163731,1417.66074 C347.522038,1417.65946 347.814962,1417.37274 347.813658,1417.01917 C347.813658,1416.6656 347.522038,1416.38017 347.163731,1416.38017 L347.163731,1416.38017 Z M343.257654,1414.5236 C343.236731,1414.8566 343.495654,1415.14331 343.834346,1415.1626 C343.859192,1415.16389 343.881423,1415.16389 343.906269,1415.1626 L347.161115,1415.1626 C347.519423,1415.1626 347.809731,1414.87717 347.811038,1414.5236 C347.811038,1414.17131 347.519423,1413.88589 347.162423,1413.8846 L347.161115,1413.8846 L343.904962,1413.8846 C343.546654,1413.88717 343.257654,1414.1726 343.256346,1414.5236 L343.257654,1414.5236 Z M334.2045,1408.76231 C334.2045,1406.28731 336.245808,1404.28031 338.763115,1404.28031 C341.280423,1404.28031 343.321731,1406.28731 343.321731,1408.76231 C343.2995,1411.2026 341.3105,1413.18517 338.8285,1413.24303 L338.632346,1413.24303 C336.183038,1413.13631 334.242423,1411.17303 334.205808,1408.76231 L334.2045,1408.76231 Z M344.624192,1408.76231 C344.624192,1405.58017 341.999654,1402.99974 338.763115,1402.99974 C335.527885,1402.99974 332.903346,1405.58017 332.903346,1408.76231 C332.875885,1410.84517 334.030577,1412.76989 335.897962,1413.75474 C333.370192,1414.7216 331.525038,1416.89831 331.013731,1419.5186 C330.9405,1419.86831 331.168038,1420.20903 331.523731,1420.28231 C331.526346,1420.2836 331.528962,1420.2836 331.532885,1420.28489 L331.663654,1420.28489 C331.978808,1420.29774 332.256038,1420.08046 332.312269,1419.77317 C332.913808,1416.76331 335.573654,1414.57374 338.693808,1414.52231 L338.824577,1414.52231 C342.025808,1414.46574 344.598038,1411.90974 344.624192,1408.76103 L344.624192,1408.76231 Z" id="Fill-1"></path>
        </g>
    </g>
</svg>