<?xml version="1.0" encoding="UTF-8"?>
<svg width="24px" height="24px" viewBox="0 0 24 24" version="1.1" xmlns="http://www.w3.org/2000/svg" xmlns:xlink="http://www.w3.org/1999/xlink">
    <title>编组 5</title>
    <g id="页面-1" stroke="none" stroke-width="1" fill="none" fill-rule="evenodd">
        <g id="上海银行运营可视化0305日历展开" transform="translate(-1037.000000, -837.000000)">
            <g id="编组-5" transform="translate(1037.000000, 837.000000)">
                <circle id="椭圆形备份-55" fill="#E9F0FF" cx="13.2566844" cy="12.9103448" r="10.262069"></circle>
                <path d="M1.28658654,6.04576923 L3.9725,6.04576923 L3.9725,4.76120192 L0.00235576923,4.76120192 L0.00235576923,8.94706731 L1.28658654,8.94706731 L1.28658654,6.04576923 Z M5.23182692,4.76120192 L7.23182692,4.76120192 L7.23182692,6.04543269 L5.23182692,6.04543269 L5.23182692,4.76120192 Z M0.00235576923,10.0828846 L1.28658654,10.0828846 L1.28658654,15.3150481 L0.00235576923,15.3150481 L0.00235576923,10.0828846 Z M-6.21724894e-14,16.4242788 L6.32456731,16.4242788 L6.32456731,17.7078365 L-6.21724894e-14,17.7078365 L-6.21724894e-14,16.4242788 Z M18.9450841,15.5994231 L18.8096995,15.5994231 L18.9450841,15.7532692 L18.9450841,15.5994231 Z M19.3479327,15.2265385 C19.3115865,15.2036538 19.2954327,15.1915385 19.2782692,15.1821154 C18.2188462,14.6184135 17.1590865,14.0547115 16.0983173,13.4933654 C16.0436227,13.4677815 15.9836695,13.455445 15.9233173,13.4573558 C14.293125,13.4560096 12.6629327,13.4556731 11.0330769,13.4583654 C10.9644656,13.4599922 10.8971307,13.4772575 10.8362019,13.5088462 C10.4333654,13.7175 10.0328846,13.9308654 9.63240385,14.1438942 L7.63504808,15.2056731 L7.63774038,15.2265385 L19.3479327,15.2265385 L19.3479327,15.2265385 Z M13.8364423,14.3794712 L15.6924519,14.3794712 L15.6924519,13.9880769 L16.6297115,14.5332692 L15.6991827,15.0717308 L15.6991827,14.6739423 L13.8364423,14.6739423 L13.8364423,14.3794712 Z M11.5005288,13.5912981 L11.5180288,13.9688942 L11.7270192,13.9688942 L13.1758173,13.9682212 C13.3837981,13.9682212 13.3841346,13.9682212 13.3790865,14.1772115 C13.3784135,14.2037981 13.3757212,14.2303846 13.3723558,14.2721154 L11.5176923,14.2721154 L11.4978365,14.6678846 L10.5821154,14.1257212 L11.5005288,13.5912981 L11.5005288,13.5912981 Z M19.2139904,15.7427885 L7.67240385,15.7427885 C7.27528846,15.7427885 6.90105769,16.0174038 6.90105769,16.4145192 L6.90105769,17.9178365 C6.90105769,18.3149519 7.275625,18.6296154 7.67240385,18.6296154 L8.34447115,18.6296154 L8.34447115,18.8702404 L9.30663462,18.8702404 L9.30663462,18.6296154 L17.4865385,18.6296154 L17.4865385,18.8702404 L18.6889904,18.8702404 L18.6889904,18.6296154 L19.2139904,18.6296154 C19.6111058,18.6296154 19.8924519,18.3146154 19.8924519,17.9178365 L19.8924519,16.4145192 C19.8924519,16.0174038 19.6111058,15.7427885 19.2139904,15.7427885 Z M8.86375,18.070625 L7.71144231,18.070625 L7.71144231,17.414375 L8.86375,17.414375 L8.86375,18.070625 Z M8.86375,16.9903365 L7.71144231,16.9903365 L7.71144231,16.3340865 L8.86375,16.3340865 L8.86375,16.9903365 Z M10.3340865,18.070625 L9.65259615,18.070625 L9.65259615,17.3891346 L10.3340865,17.3891346 L10.3340865,18.070625 Z M10.3340865,17.0159135 L9.65259615,17.0159135 L9.65259615,16.3340865 L10.3340865,16.3340865 L10.3340865,17.0159135 Z M11.5971154,18.070625 L10.9159615,18.070625 L10.9159615,17.3891346 L11.5971154,17.3891346 L11.5971154,18.070625 Z M11.5971154,17.0159135 L10.9159615,17.0159135 L10.9159615,16.3340865 L11.5971154,16.3340865 L11.5971154,17.0159135 Z M12.8598077,18.070625 L12.1786538,18.070625 L12.1786538,17.3891346 L12.8598077,17.3891346 L12.8598077,18.070625 Z M12.8598077,17.0159135 L12.1786538,17.0159135 L12.1786538,16.3340865 L12.8598077,16.3340865 L12.8598077,17.0159135 Z M14.1231731,18.070625 L13.4416827,18.070625 L13.4416827,17.3891346 L14.1231731,17.3891346 L14.1231731,18.070625 Z M14.1231731,17.0159135 L13.4416827,17.0159135 L13.4416827,16.3340865 L14.1231731,16.3340865 L14.1231731,17.0159135 Z M15.3862019,18.070625 L14.704375,18.070625 L14.704375,17.3891346 L15.3862019,17.3891346 L15.3862019,18.070625 Z M15.3862019,17.0159135 L14.704375,17.0159135 L14.704375,16.3340865 L15.3862019,16.3340865 L15.3862019,17.0159135 Z M16.6492308,18.070625 L15.9677404,18.070625 L15.9677404,17.3891346 L16.6492308,17.3891346 L16.6492308,18.070625 Z M16.6492308,17.0159135 L15.9677404,17.0159135 L15.9677404,16.3340865 L16.6492308,16.3340865 L16.6492308,17.0159135 Z M17.9119231,18.070625 L17.2304327,18.070625 L17.2304327,17.3891346 L17.9119231,17.3891346 L17.9119231,18.070625 Z M17.9119231,17.0159135 L17.2304327,17.0159135 L17.2304327,16.3340865 L17.9119231,16.3340865 L17.9119231,17.0159135 Z M19.1752885,18.070625 L18.4937981,18.070625 L18.4937981,17.3891346 L19.1749519,17.3891346 L19.1752885,18.070625 Z M19.1752885,17.0159135 L18.4937981,17.0159135 L18.4937981,16.3340865 L19.1749519,16.3340865 L19.1752885,17.0159135 Z" id="形状" fill="#3057D6" fill-rule="nonzero"></path>
                <path d="M13.355643,3.44491641 C12.841657,3.44491641 12.4500486,3.8365248 12.4500486,4.35051082 C12.4500486,4.86449683 12.841657,5.25610522 13.355643,5.25610522 C13.869629,5.25610522 14.2612374,4.86449683 14.2612374,4.35051082 C14.2612374,3.8365248 13.869629,3.44491641 13.355643,3.44491641 Z M13.355643,4.88897236 C13.0619367,4.88897236 12.8171815,4.64421711 12.8171815,4.35051082 C12.8171815,4.05680453 13.0619367,3.81204928 13.355643,3.81204928 C13.6493493,3.81204928 13.8941046,4.05680453 13.8941046,4.35051082 C13.8941046,4.64421711 13.6493493,4.88897236 13.355643,4.88897236 Z" id="形状" fill="#FE7720" fill-rule="nonzero"></path>
                <path d="M15.6808179,3.66519613 L15.0934053,2.6372241 C15.0199787,2.539322 14.9220766,2.539322 14.84865,2.56379753 L14.4080906,2.8330283 C14.334664,2.78407725 14.2367619,2.7351262 14.1143843,2.68617515 L14.1143843,2.17218914 C14.1143843,2.07428704 14.0409577,2.00086047 13.9430556,2.00086047 L12.7682304,2.00086047 C12.6703283,2.00086047 12.5969018,2.07428704 12.5969018,2.17218914 L12.5969018,2.7351262 C12.4989997,2.75960172 12.4010976,2.80855277 12.327671,2.85750382 L12.3031955,2.88197935 L11.862636,2.61274858 C11.813685,2.56379753 11.7647339,2.56379753 11.7157829,2.56379753 C11.6668318,2.58827305 11.6178808,2.61274858 11.6178808,2.6372241 L11.0304682,3.66519613 C11.0059927,3.71414718 10.9815172,3.76309823 11.0059927,3.81204928 C11.0059927,3.86100033 11.0549437,3.90995138 11.1038948,3.90995138 L11.5444542,4.17918215 L11.5444542,4.49736397 L11.1038948,4.76659473 C11.0549437,4.79107026 11.0059927,4.81554578 11.0059927,4.86449683 C10.9815172,4.91344788 11.0059927,4.96239893 11.0304682,5.01134998 L11.6178808,6.06379753 C11.6913074,6.16169963 11.7892095,6.16169963 11.862636,6.1372241 L12.3031955,5.86799333 C12.376622,5.91694438 12.4745241,5.96589543 12.5969018,6.01484648 L12.5969018,6.55330802 C12.5969018,6.65121012 12.6703283,6.72463669 12.7682304,6.72463669 L13.9185801,6.72463669 C14.0164822,6.72463669 14.0899088,6.65121012 14.0899088,6.55330802 L14.0899088,6.039322 C14.1878109,6.01484648 14.285713,5.94141991 14.3591395,5.89246886 L14.3836151,5.86799333 L14.8241745,6.16169963 C14.9220766,6.18617515 15.0444542,6.16169963 15.0689297,6.08827305 L15.6563423,5.06030103 C15.6808179,4.96239893 15.6563423,4.84002131 15.5829158,4.81554578 L15.1423563,4.54631502 L15.1423563,4.2281332 L15.6073913,3.90995138 C15.6563423,3.88547586 15.7052934,3.86100033 15.7052934,3.81204928 C15.7297689,3.76309823 15.7052934,3.71414718 15.6808179,3.66519613 L15.6808179,3.66519613 Z M14.8976011,3.90995138 C14.8241745,3.98337795 14.799699,4.05680453 14.799699,4.10575557 C14.8241745,4.20365767 14.8241745,4.25260872 14.8241745,4.35051082 C14.8241745,4.39946187 14.8241745,4.42393739 14.799699,4.44841292 C14.799699,4.47288844 14.7752235,4.52183949 14.7752234,4.57079054 C14.7507479,4.64421711 14.7752234,4.71764369 14.84865,4.79107026 L15.2647339,5.0358255 L14.8731255,5.72114019 L14.4570416,5.47638494 C14.3836151,5.45190942 14.3101885,5.45190942 14.2367619,5.47638494 C14.1143843,5.57428704 13.9675311,5.64771361 13.8451535,5.69666466 C13.7962025,5.74561571 13.7472514,5.81904228 13.7472514,5.89246886 L13.7472514,6.35750382 L12.9640346,6.35750382 L12.9640346,5.86799333 C12.9640346,5.79456676 12.9150836,5.72114019 12.841657,5.69666466 C12.7192794,5.64771361 12.5724262,5.57428704 12.4255731,5.47638494 C12.3521465,5.45190942 12.27872,5.45190942 12.2052934,5.47638494 L11.813685,5.72114019 L11.4220766,5.0358255 L11.813685,4.79107026 C11.8381605,4.76659473 11.8871116,4.74211921 11.8871116,4.71764369 C11.9115871,4.69316816 11.9115871,4.64421711 11.8871116,4.61974159 L11.8871116,4.35051082 C11.8871116,4.30155977 11.8871116,4.27708425 11.9115871,4.25260872 C11.9115871,4.2281332 11.9360626,4.17918215 11.9360626,4.1302311 C11.9605381,4.05680453 11.9360626,3.98337795 11.862636,3.9344269 L11.4465521,3.68967166 L11.8381605,3.00435697 L12.2542444,3.22463669 C12.327671,3.24911221 12.4010976,3.24911221 12.4745241,3.22463669 C12.5724262,3.12673459 12.7192794,3.02883249 12.841657,2.97988145 C12.9150836,2.95540593 12.9640346,2.88197935 12.9640346,2.80855277 L12.9640346,2.34351781 L13.7717269,2.34351781 L13.7717269,2.80855277 C13.7717269,2.88197934 13.7962025,2.95540592 13.869629,3.00435697 L13.8941046,3.00435697 C14.0164822,3.05330802 14.1633353,3.12673459 14.3101885,3.22463669 C14.3836151,3.24911221 14.4570416,3.24911221 14.5304682,3.22463669 L14.9220766,2.97988145 L15.313685,3.66519613 L14.8976011,3.90995138 Z" id="形状" fill="#FE7720" fill-rule="nonzero"></path>
                <path d="M19.3175321,-6.66133815e-14 C19.6916987,-6.66133815e-14 19.9946154,0.269166667 19.9946154,0.601666667 L19.9946154,0.601666667 L19.9946154,8.62625 C19.9946154,8.95833333 19.6912821,9.22791667 19.3175321,9.22791667 L19.3175321,9.22791667 L15.0271154,9.22791667 L15.0271154,10.23125 L15.9300321,11.03375 L15.9300321,11.2341667 L10.0591987,11.2341667 L10.0591987,11.03375 L10.9616987,10.23125 L10.9616987,9.22791667 L6.67253205,9.22791667 C6.29753205,9.22791667 5.99461538,8.95833333 5.99461538,8.62625 L5.99461538,8.62625 L5.99461538,0.601666667 C5.99461538,0.269166667 6.29753205,-6.66133815e-14 6.67253205,-6.66133815e-14 L6.67253205,-6.66133815e-14 Z M18.3755678,1.23809524 L7.23271062,1.23809524 L7.23271062,7.42857143 L18.3755678,7.42857143 L18.3755678,1.23809524 Z" id="形状结合" fill="#3057D6"></path>
                <g id="设置" transform="translate(10.994615, 2.000000)"></g>
            </g>
        </g>
    </g>
</svg>