<?xml version="1.0" encoding="UTF-8"?>
<svg width="25px" height="25px" viewBox="0 0 25 25" version="1.1" xmlns="http://www.w3.org/2000/svg" xmlns:xlink="http://www.w3.org/1999/xlink">
    <title>编组 3</title>
    <g id="页面-1" stroke="none" stroke-width="1" fill="none" fill-rule="evenodd">
        <g id="上海银行运营可视化0305日历展开" transform="translate(-892.000000, -638.000000)">
            <g id="编组-3" transform="translate(892.132414, 638.500000)">
                <path d="M17.757512,19.3606331 L17.7311359,19.4606331 C17.7653102,19.4343705 17.7985671,19.4010372 17.8311359,19.3606331 L17.757512,19.3606331 Z" id="路径" fill="#FFFFFF" fill-rule="nonzero"></path>
                <path d="M19.2845508,21.2658601 L19.6831995,21.2658601 L19.1959022,20.2899226 L18.8894157,20.9036726 C19.0640103,20.9486726 19.2088751,21.0842976 19.2845508,21.2658601 Z" id="路径" fill="#FFFFFF" fill-rule="nonzero"></path>
                <path d="M18.8275238,21.0280476 L18.7088751,21.2658601 L19.1504968,21.2658601 C19.0791454,21.1392976 18.9626589,21.0496101 18.8275238,21.0280476 Z" id="路径" fill="#FFFFFF" fill-rule="nonzero"></path>
                <circle id="椭圆形备份-10" fill="#E9F0FF" cx="12.9103448" cy="12.9103448" r="10.262069"></circle>
                <path d="M16.5319609,-6.16395823e-13 L2.00597015,-6.16395823e-13 C0.898103427,-6.16395823e-13 3.55271368e-15,0.898103427 3.55271368e-15,2.00597015 L3.55271368e-15,16.5319609 C3.55271368e-15,17.6398276 0.898103427,18.537931 2.00597015,18.537931 L16.5319609,18.537931 C17.6398276,18.537931 18.537931,17.6398276 18.537931,16.5319609 L18.537931,2.00597015 C18.537931,0.898103427 17.6398276,-6.16395823e-13 16.5319609,-6.16395823e-13 Z M2.07752675,1.32413793 L16.4604043,1.32413793 C16.8764894,1.32413793 17.2137931,1.6614416 17.2137931,2.07752675 L17.2137931,16.4604043 C17.2137931,16.8764894 16.8764894,17.2137931 16.4604043,17.2137931 L2.07752675,17.2137931 C1.6614416,17.2137931 1.32413793,16.8764894 1.32413793,16.4604043 L1.32413793,2.07752675 C1.32413793,1.6614416 1.6614416,1.32413793 2.07752675,1.32413793 Z" id="矩形" fill="#3057D6" fill-rule="nonzero"></path>
                <polygon id="路径-32" fill="#3057D6" fill-rule="nonzero" points="17.8758621 3.31034483 17.8758621 4.63448276 0.662068966 4.63448276 0.662068966 3.31034483"></polygon>
                <path d="M4.54904648,8.10566216 C4.82587059,7.69282642 5.38495037,7.5825672 5.79778611,7.85939131 C6.17886526,8.11492126 6.30212773,8.61095307 6.10110662,9.01046014 L6.04405697,9.10813094 L4.39193103,11.5707586 L6.04672102,14.0682788 C6.30021381,14.4507161 6.22322386,14.9560019 5.88401558,15.2474691 L5.79379013,15.3156865 C5.41135284,15.5691793 4.90606703,15.4921894 4.61459984,15.1529811 L4.54638243,15.0627556 L2.56017553,12.0662224 C2.38174048,11.7970225 2.36274466,11.4559224 2.502845,11.1715 L2.56283959,11.0677496 L4.54904648,8.10566216 Z" id="路径-33" fill="#FE7720" fill-rule="nonzero"></path>
                <path d="M13.818012,8.10566216 C14.0948361,7.69282642 14.6539159,7.5825672 15.0667516,7.85939131 C15.4478308,8.11492126 15.5710932,8.61095307 15.3700721,9.01046014 L15.3130225,9.10813094 L13.660931,11.5707586 L15.3156865,14.0682788 C15.5691793,14.4507161 15.4921894,14.9560019 15.1529811,15.2474691 L15.0627556,15.3156865 C14.6803184,15.5691793 14.1750325,15.4921894 13.8835654,15.1529811 L13.8153479,15.0627556 L11.8291411,12.0662224 C11.650706,11.7970225 11.6317102,11.4559224 11.7718105,11.1715 L11.8318051,11.0677496 L13.818012,8.10566216 Z" id="路径-33备份" fill="#FE7720" fill-rule="nonzero" transform="translate(13.572463, 11.586209) scale(-1, 1) translate(-13.572463, -11.586209) "></path>
                <path d="M9.73928848,6.99815363 C9.89647148,6.52660465 10.4061595,6.27176066 10.8777084,6.42894365 C11.3129844,6.57403565 11.5636124,7.01948692 11.4759662,7.4580454 L11.4469184,7.56736361 L8.79864255,15.5121912 C8.64145956,15.9837402 8.13177158,16.2385842 7.6602226,16.0814012 C7.22494661,15.9363092 6.97431867,15.4908579 7.0619648,15.0522994 L7.09101262,14.9429812 L9.73928848,6.99815363 Z" id="路径-34" fill="#FE7720" fill-rule="nonzero"></path>
            </g>
        </g>
    </g>
</svg>