<?xml version="1.0" encoding="UTF-8"?>
<svg width="24px" height="24px" viewBox="0 0 24 24" version="1.1" xmlns="http://www.w3.org/2000/svg" xmlns:xlink="http://www.w3.org/1999/xlink">
    <title>编组 4</title>
    <g id="页面-1" stroke="none" stroke-width="1" fill="none" fill-rule="evenodd">
        <g id="上海银行运营可视化0305日历展开" transform="translate(-891.000000, -707.000000)">
            <g id="编组-4" transform="translate(890.999980, 707.500000)">
                <circle id="椭圆形备份-48" fill="#E9F0FF" cx="14.2451808" cy="12.6967742" r="9.6"></circle>
                <path d="M9.60705764,7.20527824 C10.7773074,7.20464546 11.7776617,8.04753441 11.9755344,9.20093426 C12.1734071,10.3543341 11.51119,11.4824472 10.4076442,11.8718974 L10.4076442,17.6129032 L14.4105767,17.6129032 L14.4105767,19.2140762 L4.80353858,19.2140762 L4.80353858,17.6129032 L8.80647113,17.6129032 L8.80647113,11.8726979 C7.70375681,11.4823714 7.04242637,10.3545879 7.24018292,9.20166726 C7.43793947,8.0487466 8.43729979,7.20581578 9.60705764,7.20527824 Z M9.60705764,3.53495011e-13 C14.9125444,3.53495011e-13 19.2140958,4.30155132 19.2140958,9.60703812 C19.2140958,11.7710235 18.4951691,13.8269296 17.1966178,15.4977537 L16.5137175,16.3367683 C16.0986458,16.0017873 15.6828736,15.6676751 15.2664037,15.334434 L15.7819814,14.7027713 C16.9683982,13.2699886 17.6161328,11.4672641 17.6129227,9.60703812 C17.6129227,5.18539883 14.0286969,1.60117302 9.60705764,1.60117302 C5.18541835,1.60117302 1.60119254,5.18539883 1.60119254,9.60703812 C1.60119254,11.4003519 2.19202539,13.1007977 3.26080838,14.4882141 L3.9421075,15.334434 L2.71080544,16.3367683 L2.19923066,15.7243196 C0.774812803,14.0043132 -0.0031735707,11.840282 9.73020878e-06,9.60703812 C9.73020878e-06,4.30155132 4.30157084,3.53495011e-13 9.60705764,3.53495011e-13 Z M9.60705764,4.00293255 C12.7053274,4.00293255 15.2111755,6.55520235 15.2111755,9.69670381 C15.2137167,10.930508 14.8181103,12.1322079 14.0831368,13.1232141 C13.8069345,13.4658651 13.5867732,13.7348622 13.4210518,13.9318065 C12.7477585,13.3898094 12.3338553,13.0591672 12.1801427,12.9390792 L12.6901163,12.3074164 C13.2879059,11.5692017 13.6127979,10.6474021 13.6099902,9.6975044 C13.6099902,7.43264516 11.8142747,5.60410557 9.60705764,5.60410557 C7.39984063,5.60410557 5.60412509,7.43344575 5.60412509,9.69670381 C5.60412509,10.6654135 5.93236556,11.5788827 6.52479958,12.308217 L7.04518081,12.9390792 L5.78986116,13.9318065 L5.28148873,13.316956 C4.45159689,12.293182 4.00004654,11.0145905 4.00293814,9.69670381 C4.00293814,6.55520235 6.50878785,4.00293255 9.60705764,4.00293255 Z M9.60705764,8.80645161 C9.16490592,8.80645161 8.80647113,9.1648864 8.80647113,9.60703812 C8.80647113,10.0491898 9.16490592,10.4076246 9.60705764,10.4076246 C10.0492094,10.4076246 10.4076442,10.0491898 10.4076442,9.60703812 C10.4076442,9.1648864 10.0492094,8.80645161 9.60705764,8.80645161 Z" id="形状" fill="#3057D6" fill-rule="nonzero"></path>
                <circle id="椭圆形" fill="#FE7720" cx="9.67743888" cy="9.67741935" r="2.70967742"></circle>
            </g>
        </g>
    </g>
</svg>