<?xml version="1.0" encoding="UTF-8"?>
<svg width="24px" height="25px" viewBox="0 0 24 25" version="1.1" xmlns="http://www.w3.org/2000/svg" xmlns:xlink="http://www.w3.org/1999/xlink">
    <title>编组 27备份 3</title>
    <g id="页面-1" stroke="none" stroke-width="1" fill="none" fill-rule="evenodd">
        <g id="上海银行运营可视化0305日历展开" transform="translate(-892.000000, -674.000000)">
            <g id="编组-27备份-3" transform="translate(892.000000, 674.500000)">
                <path d="M17.8899258,19.3606331 L17.8635497,19.4606331 C17.897724,19.4343705 17.9309808,19.4010372 17.9635497,19.3606331 L17.8899258,19.3606331 Z" id="路径" fill="#FFFFFF" fill-rule="nonzero"></path>
                <g id="编组" transform="translate(18.822370, 20.281173)" fill="#FFFFFF" fill-rule="nonzero">
                    <path d="M0.594594595,0.9846875 L0.993243243,0.9846875 L0.505945946,0.00875 L0.199459459,0.6225 C0.374054054,0.6675 0.518918919,0.803125 0.594594595,0.9846875 Z" id="路径"></path>
                    <path d="M0.137567568,0.746875 L0.0189189189,0.9846875 L0.460540541,0.9846875 C0.389189189,0.858125 0.272702703,0.7684375 0.137567568,0.746875 Z" id="路径"></path>
                </g>
                <circle id="椭圆形备份-10" fill="#E9F0FF" cx="13.5724138" cy="12.7448276" r="10.262069"></circle>
                <path d="M16.6643747,1.48785199e-13 L2.13838394,1.48785199e-13 C1.03051722,1.48785199e-13 0.132413793,0.898103427 0.132413793,2.00597015 L0.132413793,16.5319609 C0.132413793,17.6398276 1.03051722,18.537931 2.13838394,18.537931 L16.6643747,18.537931 C17.7722414,18.537931 18.6703448,17.6398276 18.6703448,16.5319609 L18.6703448,2.00597015 C18.6703448,0.898103427 17.7722414,1.48785199e-13 16.6643747,1.48785199e-13 Z M2.20994055,1.32413793 L16.5928181,1.32413793 C17.0089032,1.32413793 17.3462069,1.6614416 17.3462069,2.07752675 L17.3462069,16.4604043 C17.3462069,16.8764894 17.0089032,17.2137931 16.5928181,17.2137931 L2.20994055,17.2137931 C1.79385539,17.2137931 1.45655172,16.8764894 1.45655172,16.4604043 L1.45655172,2.07752675 C1.45655172,1.6614416 1.79385539,1.32413793 2.20994055,1.32413793 Z" id="矩形" fill="#3057D6" fill-rule="nonzero"></path>
                <polygon id="路径-32" fill="#3057D6" fill-rule="nonzero" points="18.0082759 3.31034483 18.0082759 4.63448276 0.794482759 4.63448276 0.794482759 3.31034483"></polygon>
                <path d="M3.16876573,11.5846057 L5.62005661,11.5846057 C5.90640793,11.5846057 6.1639181,11.4081806 6.26280201,11.142529 L7.33816451,8.27531705 L9.36301853,12.8358044 C9.47220285,13.0811772 9.71941262,13.2413793 9.99134337,13.2413793 L10.0037039,13.2413793 C10.2797548,13.2354985 10.5269645,13.0671849 10.6299686,12.8134978 L12.360231,8.49027176 L15.0381308,8.49027176 C15.4171858,8.49027176 15.7241379,8.18811844 15.7241379,7.81519229 C15.7241379,7.44206335 15.4171858,7.13991002 15.0381308,7.13991002 L11.8925925,7.13991002 C11.6103614,7.13991002 11.3569713,7.3102515 11.2539673,7.56779158 L9.95632198,10.8059018 L7.91066114,6.19694831 C7.79941674,5.94346397 7.5377864,5.78528975 7.26173549,5.79340125 C6.98156442,5.80151275 6.73435465,5.97590997 6.63753082,6.23345005 L5.13799756,10.2320133 L3.16876573,10.2320133 C2.78971075,10.2320133 2.48275862,10.5341666 2.48275862,10.9072956 C2.48275862,11.2822496 2.78971075,11.5846057 3.16876573,11.5846057 L3.16876573,11.5846057 Z" id="路径" fill="#FE7720" fill-rule="nonzero"></path>
                <path d="M3.22793146,14.8965517 L7.53068923,14.8965517 C7.94243638,14.8965517 8.27586207,14.5262504 8.27586207,14.0689655 C8.27586207,13.6116806 7.94243638,13.2413793 7.53068923,13.2413793 L3.22793146,13.2413793 C2.81618431,13.2413793 2.48275862,13.6116806 2.48275862,14.0689655 C2.48275862,14.5262504 2.81618431,14.8965517 3.22793146,14.8965517 L3.22793146,14.8965517 Z" id="路径" fill="#3057D6" fill-rule="nonzero"></path>
            </g>
        </g>
    </g>
</svg>