<svg xmlns="http://www.w3.org/2000/svg" xmlns:xlink="http://www.w3.org/1999/xlink" viewBox="0 0 60 61.9"><defs><style>.cls-1{fill:none;}.cls-2{isolation:isolate;}.cls-101,.cls-3{fill:#fff;}.cls-3{opacity:0;}.cls-4{fill:#f9fbfe;opacity:0.02;}.cls-5{fill:#f3f8fd;opacity:0.05;}.cls-6{fill:#eef4fc;opacity:0.07;}.cls-7{fill:#e8f0fb;opacity:0.1;}.cls-8{fill:#e2ecfb;opacity:0.12;}.cls-9{fill:#dce9fa;opacity:0.15;}.cls-10{fill:#d6e5f9;opacity:0.17;}.cls-11{fill:#d0e1f8;opacity:0.2;}.cls-12{fill:#cbdef7;opacity:0.22;}.cls-13{fill:#c5daf6;opacity:0.24;}.cls-14{fill:#bfd6f5;opacity:0.27;}.cls-15{fill:#b9d3f4;opacity:0.29;}.cls-16{fill:#b3cff4;opacity:0.32;}.cls-17{fill:#adcbf3;opacity:0.34;}.cls-18{fill:#a8c7f2;opacity:0.37;}.cls-19{fill:#a2c4f1;opacity:0.39;}.cls-20{fill:#9cc0f0;opacity:0.41;}.cls-21{fill:#96bcef;opacity:0.44;}.cls-22{fill:#90b9ee;opacity:0.46;}.cls-23{fill:#8ab5ed;opacity:0.49;}.cls-24{fill:#85b1ed;opacity:0.51;}.cls-25{fill:#7fadec;opacity:0.54;}.cls-26{fill:#79aaeb;opacity:0.56;}.cls-27{fill:#73a6ea;opacity:0.59;}.cls-28{fill:#6da2e9;opacity:0.61;}.cls-29{fill:#679fe8;opacity:0.63;}.cls-30{fill:#629be7;opacity:0.66;}.cls-31{fill:#5c97e6;opacity:0.68;}.cls-32{fill:#5693e6;opacity:0.71;}.cls-33{fill:#5090e5;opacity:0.73;}.cls-34{fill:#4a8ce4;opacity:0.76;}.cls-35{fill:#4488e3;opacity:0.78;}.cls-36{fill:#3f85e2;opacity:0.8;}.cls-37{fill:#3981e1;opacity:0.83;}.cls-38{fill:#337de0;opacity:0.85;}.cls-39{fill:#2d7adf;opacity:0.88;}.cls-40{fill:#2776df;opacity:0.9;}.cls-41{fill:#2172de;opacity:0.93;}.cls-42{fill:#1c6edd;opacity:0.95;}.cls-43{fill:#166bdc;opacity:0.98;}.cls-44{fill:#1067db;}.cls-45{fill:url(#未命名的渐变_321);}.cls-46{fill:url(#linear-gradient);}.cls-47{fill:url(#未命名的渐变_5);}.cls-48{fill:url(#未命名的渐变_5-2);}.cls-49{fill:url(#linear-gradient-2);}.cls-50{fill:url(#linear-gradient-3);}.cls-51{fill:url(#linear-gradient-4);}.cls-52{fill:url(#linear-gradient-5);}.cls-53{fill:url(#linear-gradient-6);}.cls-54{fill:url(#linear-gradient-7);}.cls-55{fill:url(#linear-gradient-8);}.cls-56{fill:url(#linear-gradient-9);}.cls-57{fill:url(#linear-gradient-10);}.cls-58{fill:url(#linear-gradient-11);}.cls-59{fill:url(#linear-gradient-12);}.cls-60{fill:url(#linear-gradient-13);}.cls-61{fill:url(#linear-gradient-14);}.cls-62{fill:url(#linear-gradient-15);}.cls-63{fill:url(#linear-gradient-16);}.cls-64{fill:url(#linear-gradient-17);}.cls-65{fill:url(#linear-gradient-18);}.cls-66{fill:url(#linear-gradient-19);}.cls-67{fill:#13699b;}.cls-68{fill:#15ace3;}.cls-69{fill:url(#linear-gradient-20);}.cls-70{fill:#3d546b;}.cls-71{fill:#526683;}.cls-72{clip-path:url(#clip-path);}.cls-73{fill:#dbe4ec;}.cls-74{fill:#edf6ff;}.cls-75{fill:#09beeb;}.cls-76{fill:url(#linear-gradient-21);}.cls-77{fill:#f4f7f9;}.cls-78{fill:#236696;}.cls-79{fill:#ffedcc;}.cls-80{fill:#f7f7f7;}.cls-81{fill:url(#linear-gradient-22);}.cls-82{fill:url(#linear-gradient-23);}.cls-83,.cls-97{fill:#3baad9;opacity:0.5;}.cls-84{fill:url(#未命名的渐变_3);}.cls-85{fill:url(#未命名的渐变_3-2);}.cls-86{fill:#8aa2bb;}.cls-87{fill:#aaa;}.cls-88{fill:#f2f2f2;}.cls-89{fill:url(#linear-gradient-24);}.cls-90{fill:url(#linear-gradient-25);}.cls-91{fill:#7789a0;}.cls-92{fill:url(#未命名的渐变_55);}.cls-93{fill:#ffbe15;}.cls-94{fill:#e8e8e8;}.cls-95{fill:#194593;}.cls-96{fill:url(#未命名的渐变_40);}.cls-97{mix-blend-mode:multiply;}.cls-98{fill:url(#linear-gradient-26);}.cls-99{fill:#14546d;}.cls-100{fill:#36d7f2;}.cls-102{fill:url(#linear-gradient-27);}.cls-103{fill:url(#linear-gradient-28);}.cls-104{clip-path:url(#clip-path-2);}.cls-105{clip-path:url(#clip-path-3);}</style><linearGradient id="未命名的渐变_321" x1="3.8" y1="42.07" x2="57.35" y2="42.07" gradientUnits="userSpaceOnUse"><stop offset="0" stop-color="#0079c7"/><stop offset="1" stop-color="#339bcf"/></linearGradient><linearGradient id="linear-gradient" x1="3.81" y1="50.16" x2="57.35" y2="50.16" gradientUnits="userSpaceOnUse"><stop offset="0" stop-color="#92a6f1"/><stop offset="1" stop-color="#fff"/></linearGradient><linearGradient id="未命名的渐变_5" x1="15.68" y1="19.46" x2="57.04" y2="19.46" gradientUnits="userSpaceOnUse"><stop offset="0" stop-color="#05105d"/><stop offset="1" stop-color="#1067db"/></linearGradient><linearGradient id="未命名的渐变_5-2" x1="29.26" y1="10.06" x2="56.92" y2="10.06" xlink:href="#未命名的渐变_5"/><linearGradient id="linear-gradient-2" x1="46.42" y1="18.06" x2="57.18" y2="39.28" gradientUnits="userSpaceOnUse"><stop offset="0" stop-color="#12c2e9"/><stop offset="0.21" stop-color="#2c9ae6"/><stop offset="0.59" stop-color="#5857e1"/><stop offset="0.86" stop-color="#732edd"/><stop offset="1" stop-color="#7d1edc"/></linearGradient><linearGradient id="linear-gradient-3" x1="44.04" y1="10.74" x2="51.55" y2="23.71" xlink:href="#linear-gradient-2"/><linearGradient id="linear-gradient-4" x1="32.25" y1="16.55" x2="41.04" y2="29.66" xlink:href="#linear-gradient-2"/><linearGradient id="linear-gradient-5" x1="32.58" y1="16.32" x2="41.38" y2="29.44" xlink:href="#linear-gradient-2"/><linearGradient id="linear-gradient-6" x1="33.21" y1="15.9" x2="42.01" y2="29.01" xlink:href="#linear-gradient-2"/><linearGradient id="linear-gradient-7" x1="33.45" y1="15.74" x2="42.24" y2="28.86" xlink:href="#linear-gradient-2"/><linearGradient id="linear-gradient-8" x1="33.99" y1="15.38" x2="42.78" y2="28.49" xlink:href="#linear-gradient-2"/><linearGradient id="linear-gradient-9" x1="32.42" y1="16.43" x2="41.22" y2="29.54" xlink:href="#linear-gradient-2"/><linearGradient id="linear-gradient-10" x1="33.93" y1="15.42" x2="42.73" y2="28.53" xlink:href="#linear-gradient-2"/><linearGradient id="linear-gradient-11" x1="31.58" y1="16.99" x2="40.38" y2="30.11" xlink:href="#linear-gradient-2"/><linearGradient id="linear-gradient-12" x1="41.81" y1="21.23" x2="54.45" y2="31.99" xlink:href="#linear-gradient-2"/><linearGradient id="linear-gradient-13" x1="41.23" y1="21.91" x2="53.87" y2="32.67" xlink:href="#linear-gradient-2"/><linearGradient id="linear-gradient-14" x1="41.47" y1="21.63" x2="54.12" y2="32.38" xlink:href="#linear-gradient-2"/><linearGradient id="linear-gradient-15" x1="40.98" y1="22.21" x2="53.62" y2="32.96" xlink:href="#linear-gradient-2"/><linearGradient id="linear-gradient-16" x1="40.65" y1="22.6" x2="53.29" y2="33.35" xlink:href="#linear-gradient-2"/><linearGradient id="linear-gradient-17" x1="41.54" y1="21.55" x2="54.18" y2="32.3" xlink:href="#linear-gradient-2"/><linearGradient id="linear-gradient-18" x1="41.09" y1="22.08" x2="53.73" y2="32.83" xlink:href="#linear-gradient-2"/><linearGradient id="linear-gradient-19" x1="42.08" y1="20.91" x2="54.72" y2="31.66" xlink:href="#linear-gradient-2"/><linearGradient id="linear-gradient-20" x1="-2018.29" y1="27.81" x2="-2015.13" y2="22.86" gradientTransform="translate(2052.18)" gradientUnits="userSpaceOnUse"><stop offset="0" stop-color="#c9f9ff"/><stop offset="0.14" stop-color="#c3f8ff"/><stop offset="0.33" stop-color="#b0f4ff"/><stop offset="0.55" stop-color="#93eeff"/><stop offset="0.8" stop-color="#69e5ff"/><stop offset="1" stop-color="#43ddff"/></linearGradient><clipPath id="clip-path"><path class="cls-1" d="M43.37,37.83a.21.21,0,0,0-.07.17l-.36.21A.18.18,0,0,1,43,38Z"/></clipPath><linearGradient id="linear-gradient-21" x1="-2015.54" y1="25.5" x2="-2010.34" y2="25.5" xlink:href="#linear-gradient-20"/><linearGradient id="linear-gradient-22" x1="-2018.26" y1="27.83" x2="-2015.1" y2="22.87" xlink:href="#linear-gradient-20"/><linearGradient id="linear-gradient-23" x1="-2013.09" y1="29.98" x2="-2008.95" y2="21.13" xlink:href="#linear-gradient-20"/><linearGradient id="未命名的渐变_3" x1="-4280.17" y1="38.12" x2="-4243.59" y2="38.12" gradientTransform="translate(4301.16)" gradientUnits="userSpaceOnUse"><stop offset="0" stop-color="#e0e6fd"/><stop offset="0.1" stop-color="#e0e6fd"/><stop offset="0.38" stop-color="#fff"/><stop offset="0.73" stop-color="#e8ecfe"/><stop offset="1" stop-color="#dbe2fd"/></linearGradient><linearGradient id="未命名的渐变_3-2" x1="20.99" y1="33.2" x2="44.95" y2="33.2" gradientTransform="matrix(1, 0, 0, 1, 0, 0)" xlink:href="#未命名的渐变_3"/><linearGradient id="linear-gradient-24" x1="-1255.55" y1="32.06" x2="-1263.5" y2="26.51" gradientTransform="translate(1290.25)" gradientUnits="userSpaceOnUse"><stop offset="0" stop-color="#12c2e9"/><stop offset="1" stop-color="#7d1edc"/></linearGradient><linearGradient id="linear-gradient-25" x1="-1262.3" y1="25.91" x2="-1255.62" y2="34.7" xlink:href="#linear-gradient-24"/><linearGradient id="未命名的渐变_55" x1="5.93" y1="16.03" x2="20.55" y2="16.03" gradientUnits="userSpaceOnUse"><stop offset="0" stop-color="#fe7720"/><stop offset="1" stop-color="#ffab14"/></linearGradient><linearGradient id="未命名的渐变_40" x1="12.01" y1="17.04" x2="33.36" y2="5.92" gradientUnits="userSpaceOnUse"><stop offset="0" stop-color="#eb5981"/><stop offset="1" stop-color="#f9d27a"/></linearGradient><linearGradient id="linear-gradient-26" x1="-2034.77" y1="36.81" x2="-2034.48" y2="28.99" gradientTransform="translate(2052.18)" gradientUnits="userSpaceOnUse"><stop offset="0" stop-color="#23a6ff"/><stop offset="0.23" stop-color="#21a2fc"/><stop offset="0.45" stop-color="#1d97f4"/><stop offset="0.66" stop-color="#1484e5"/><stop offset="0.87" stop-color="#0969d1"/><stop offset="1" stop-color="#0054c1"/></linearGradient><linearGradient id="linear-gradient-27" x1="-2034.39" y1="34.43" x2="-2028.73" y2="34.43" xlink:href="#linear-gradient-26"/><linearGradient id="linear-gradient-28" x1="-2028.44" y1="40.45" x2="-2030.29" y2="30.74" xlink:href="#linear-gradient-26"/><clipPath id="clip-path-2"><circle class="cls-1" cx="117.53" cy="-211.03" r="13.5"/></clipPath><clipPath id="clip-path-3"><circle class="cls-1" cx="175.53" cy="-211.03" r="13.5"/></clipPath></defs><title>icon</title><g class="cls-2"><g id="图层_1" data-name="图层 1"><path class="cls-3" d="M26,27.79,4.9,40a5.07,5.07,0,0,0,0,8.78L26,60.91a8.73,8.73,0,0,0,8.76,0L55.83,48.74a5.07,5.07,0,0,0,0-8.78L34.75,27.79A8.73,8.73,0,0,0,26,27.79Z"/><path class="cls-4" d="M26,27.88,5,40a5,5,0,0,0,0,8.73L26,60.83a8.74,8.74,0,0,0,8.71,0l21-12.11a5,5,0,0,0,0-8.73l-21-12.11A8.69,8.69,0,0,0,26,27.88Z"/><path class="cls-5" d="M26,28,5.17,40a5,5,0,0,0,0,8.68L26,60.74a8.69,8.69,0,0,0,8.66,0L55.56,48.69a5,5,0,0,0,0-8.68L34.7,28A8.69,8.69,0,0,0,26,28Z"/><path class="cls-6" d="M26.06,28.05,5.31,40a5,5,0,0,0,0,8.64l20.75,12a8.62,8.62,0,0,0,8.62,0l20.75-12a5,5,0,0,0,0-8.64l-20.75-12A8.62,8.62,0,0,0,26.06,28.05Z"/><path class="cls-7" d="M26.08,28.14,5.45,40.06a5,5,0,0,0,0,8.59L26.08,60.56a8.57,8.57,0,0,0,8.57,0L55.29,48.65a5,5,0,0,0,0-8.59L34.65,28.14A8.57,8.57,0,0,0,26.08,28.14Z"/><path class="cls-8" d="M26.11,28.23,5.58,40.08a4.93,4.93,0,0,0,0,8.54L26.11,60.47a8.53,8.53,0,0,0,8.52,0L55.15,48.62a4.93,4.93,0,0,0,0-8.54L34.63,28.23A8.53,8.53,0,0,0,26.11,28.23Z"/><path class="cls-9" d="M26.13,28.32,5.72,40.1a4.91,4.91,0,0,0,0,8.5L26.13,60.38a8.45,8.45,0,0,0,8.48,0L55,48.6a4.91,4.91,0,0,0,0-8.5L34.61,28.32A8.45,8.45,0,0,0,26.13,28.32Z"/><path class="cls-10" d="M26.15,28.41,5.85,40.13a4.87,4.87,0,0,0,0,8.44L26.15,60.3a8.46,8.46,0,0,0,8.43,0l20.3-11.73a4.87,4.87,0,0,0,0-8.44L34.58,28.41A8.41,8.41,0,0,0,26.15,28.41Z"/><path class="cls-11" d="M26.18,28.49,6,40.15a4.85,4.85,0,0,0,0,8.4L26.18,60.21a8.41,8.41,0,0,0,8.38,0L54.75,48.55a4.85,4.85,0,0,0,0-8.4L34.56,28.49A8.41,8.41,0,0,0,26.18,28.49Z"/><path class="cls-12" d="M26.2,28.58,6.13,40.17a4.82,4.82,0,0,0,0,8.36L26.2,60.12a8.34,8.34,0,0,0,8.34,0L54.61,48.53a4.82,4.82,0,0,0,0-8.36L34.54,28.58A8.34,8.34,0,0,0,26.2,28.58Z"/><path class="cls-13" d="M26.22,28.67,6.26,40.2a4.79,4.79,0,0,0,0,8.3L26.22,60a8.29,8.29,0,0,0,8.29,0l20-11.53a4.79,4.79,0,0,0,0-8.3l-20-11.53A8.29,8.29,0,0,0,26.22,28.67Z"/><path class="cls-14" d="M26.25,28.76,6.4,40.22a4.77,4.77,0,0,0,0,8.26L26.25,59.94a8.25,8.25,0,0,0,8.24,0L54.34,48.48a4.77,4.77,0,0,0,0-8.26L34.49,28.76A8.25,8.25,0,0,0,26.25,28.76Z"/><path class="cls-15" d="M26.27,28.85,6.53,40.24a4.75,4.75,0,0,0,0,8.22L26.27,59.85a8.17,8.17,0,0,0,8.2,0L54.2,48.46a4.75,4.75,0,0,0,0-8.22L34.47,28.85A8.17,8.17,0,0,0,26.27,28.85Z"/><path class="cls-16" d="M26.29,28.94,6.67,40.27a4.71,4.71,0,0,0,0,8.16L26.29,59.76a8.13,8.13,0,0,0,8.15,0L54.07,48.43a4.71,4.71,0,0,0,0-8.16L34.44,28.94A8.13,8.13,0,0,0,26.29,28.94Z"/><path class="cls-17" d="M26.32,29,6.81,40.29a4.68,4.68,0,0,0,0,8.12L26.32,59.68a8.13,8.13,0,0,0,8.1,0L53.93,48.41a4.68,4.68,0,0,0,0-8.12L34.42,29A8.09,8.09,0,0,0,26.32,29Z"/><path class="cls-18" d="M26.34,29.11,6.94,40.31a4.66,4.66,0,0,0,0,8.08l19.4,11.2a8,8,0,0,0,8.05,0l19.4-11.2a4.66,4.66,0,0,0,0-8.08l-19.4-11.2A8,8,0,0,0,26.34,29.11Z"/><path class="cls-19" d="M26.36,29.2,7.08,40.34a4.63,4.63,0,0,0,0,8L26.36,59.5a8,8,0,0,0,8,0L53.66,48.36a4.63,4.63,0,0,0,0-8L34.37,29.2A8,8,0,0,0,26.36,29.2Z"/><path class="cls-20" d="M26.39,29.29,7.21,40.36a4.61,4.61,0,0,0,0,8L26.39,59.41a8,8,0,0,0,8,0L53.52,48.34a4.61,4.61,0,0,0,0-8L34.35,29.29A8,8,0,0,0,26.39,29.29Z"/><path class="cls-21" d="M26.41,29.38l-19.06,11a4.59,4.59,0,0,0,0,7.94l19.06,11a7.88,7.88,0,0,0,7.91,0l19.07-11a4.59,4.59,0,0,0,0-7.94l-19.07-11A7.92,7.92,0,0,0,26.41,29.38Z"/><path class="cls-22" d="M26.43,29.47,7.49,40.41a4.54,4.54,0,0,0,0,7.88L26.43,59.23a7.85,7.85,0,0,0,7.87,0l19-10.94a4.54,4.54,0,0,0,0-7.88l-19-10.94A7.85,7.85,0,0,0,26.43,29.47Z"/><path class="cls-23" d="M26.46,29.56,7.62,40.43a4.52,4.52,0,0,0,0,7.84L26.46,59.15a7.85,7.85,0,0,0,7.82,0L53.11,48.27a4.52,4.52,0,0,0,0-7.84L34.28,29.56A7.81,7.81,0,0,0,26.46,29.56Z"/><path class="cls-24" d="M26.48,29.64,7.76,40.45a4.5,4.5,0,0,0,0,7.8L26.48,59.06a7.76,7.76,0,0,0,7.77,0L53,48.25a4.5,4.5,0,0,0,0-7.8L34.25,29.64A7.81,7.81,0,0,0,26.48,29.64Z"/><path class="cls-25" d="M26.5,29.73,7.89,40.48a4.47,4.47,0,0,0,0,7.74L26.5,59a7.73,7.73,0,0,0,7.73,0L52.84,48.22a4.47,4.47,0,0,0,0-7.74L34.23,29.73A7.73,7.73,0,0,0,26.5,29.73Z"/><path class="cls-26" d="M26.53,29.82,8,40.5a4.45,4.45,0,0,0,0,7.7l18.5,10.68a7.69,7.69,0,0,0,7.68,0L52.71,48.2a4.45,4.45,0,0,0,0-7.7L34.21,29.82A7.69,7.69,0,0,0,26.53,29.82Z"/><path class="cls-27" d="M26.55,29.91,8.17,40.52a4.42,4.42,0,0,0,0,7.66L26.55,58.79a7.64,7.64,0,0,0,7.63,0L52.57,48.18a4.43,4.43,0,0,0,0-7.66L34.18,29.91A7.64,7.64,0,0,0,26.55,29.91Z"/><path class="cls-28" d="M26.57,30,8.3,40.55a4.38,4.38,0,0,0,0,7.6L26.57,58.7a7.57,7.57,0,0,0,7.59,0L52.43,48.15a4.38,4.38,0,0,0,0-7.6L34.16,30A7.57,7.57,0,0,0,26.57,30Z"/><path class="cls-29" d="M26.6,30.09,8.44,40.57a4.36,4.36,0,0,0,0,7.56L26.6,58.61a7.52,7.52,0,0,0,7.54,0L52.3,48.13a4.36,4.36,0,0,0,0-7.56L34.14,30.09A7.52,7.52,0,0,0,26.6,30.09Z"/><path class="cls-30" d="M26.62,30.18l-18,10.41a4.35,4.35,0,0,0,0,7.52L26.62,58.53a7.53,7.53,0,0,0,7.49,0l18-10.42a4.35,4.35,0,0,0,0-7.52l-18-10.41A7.48,7.48,0,0,0,26.62,30.18Z"/><path class="cls-31" d="M26.65,30.26,8.71,40.62a4.31,4.31,0,0,0,0,7.46L26.65,58.44a7.44,7.44,0,0,0,7.44,0L52,48.08a4.31,4.31,0,0,0,0-7.46L34.09,30.26A7.44,7.44,0,0,0,26.65,30.26Z"/><path class="cls-32" d="M26.67,30.35,8.85,40.64a4.28,4.28,0,0,0,0,7.42L26.67,58.35a7.41,7.41,0,0,0,7.4,0L51.89,48.06a4.29,4.29,0,0,0,0-7.42L34.07,30.35A7.41,7.41,0,0,0,26.67,30.35Z"/><path class="cls-33" d="M26.69,30.44,9,40.66A4.27,4.27,0,0,0,9,48L26.69,58.26a7.36,7.36,0,0,0,7.35,0L51.75,48a4.25,4.25,0,0,0,0-7.37L34,30.44A7.36,7.36,0,0,0,26.69,30.44Z"/><path class="cls-34" d="M26.72,30.53,9.12,40.69a4.22,4.22,0,0,0,0,7.32l17.6,10.16a7.27,7.27,0,0,0,7.3,0L51.62,48a4.22,4.22,0,0,0,0-7.32L34,30.53A7.27,7.27,0,0,0,26.72,30.53Z"/><path class="cls-35" d="M26.74,30.62,9.25,40.71a4.2,4.2,0,0,0,0,7.28L26.74,58.08a7.24,7.24,0,0,0,7.26,0L51.48,48a4.2,4.2,0,0,0,0-7.28L34,30.62A7.24,7.24,0,0,0,26.74,30.62Z"/><path class="cls-36" d="M26.76,30.71l-17.37,10a4.18,4.18,0,0,0,0,7.23L26.76,58A7.25,7.25,0,0,0,34,58L51.35,48a4.18,4.18,0,0,0,0-7.23L34,30.71A7.2,7.2,0,0,0,26.76,30.71Z"/><path class="cls-37" d="M26.79,30.79l-17.26,10a4.14,4.14,0,0,0,0,7.18l17.26,10a7.16,7.16,0,0,0,7.16,0l17.26-10a4.15,4.15,0,0,0,0-7.18L34,30.79A7.16,7.16,0,0,0,26.79,30.79Z"/><path class="cls-38" d="M26.81,30.88,9.66,40.78a4.13,4.13,0,0,0,0,7.14l17.15,9.9a7.13,7.13,0,0,0,7.12,0l17.14-9.9a4.12,4.12,0,0,0,0-7.14l-17.14-9.9A7.13,7.13,0,0,0,26.81,30.88Z"/><path class="cls-39" d="M26.83,31l-17,9.84a4.09,4.09,0,0,0,0,7.09l17,9.83a7.08,7.08,0,0,0,7.07,0l17-9.83a4.09,4.09,0,0,0,0-7.09L33.9,31A7.08,7.08,0,0,0,26.83,31Z"/><path class="cls-40" d="M26.86,31.06,9.93,40.83a4.06,4.06,0,0,0,0,7l16.93,9.77a7,7,0,0,0,7,0L50.8,47.87a4.06,4.06,0,0,0,0-7L33.88,31.06A7,7,0,0,0,26.86,31.06Z"/><path class="cls-41" d="M26.88,31.15l-16.81,9.7a4,4,0,0,0,0,7l16.81,9.7a7,7,0,0,0,7,0l16.81-9.7a4,4,0,0,0,0-7l-16.81-9.7A7,7,0,0,0,26.88,31.15Z"/><path class="cls-42" d="M26.9,31.24,10.21,40.88a4,4,0,0,0,0,6.94L26.9,57.46a6.92,6.92,0,0,0,6.93,0l16.7-9.64a4,4,0,0,0,0-6.94l-16.7-9.64A6.92,6.92,0,0,0,26.9,31.24Z"/><path class="cls-43" d="M26.93,31.33,10.34,40.9a4,4,0,0,0,0,6.9l16.59,9.58a6.88,6.88,0,0,0,6.88,0L50.39,47.8a4,4,0,0,0,0-6.9L33.81,31.33A6.88,6.88,0,0,0,26.93,31.33Z"/><path class="cls-44" d="M27,31.41,10.48,40.92a4,4,0,0,0,0,6.86L27,57.29a6.85,6.85,0,0,0,6.84,0l16.47-9.51a4,4,0,0,0,0-6.86L33.79,31.41A6.85,6.85,0,0,0,27,31.41Z"/><path class="cls-45" d="M26.39,26.24,6.23,37.88a4.84,4.84,0,0,0,0,8.39L26.39,57.91a8.35,8.35,0,0,0,8.37,0L54.93,46.27a4.84,4.84,0,0,0,0-8.39L34.76,26.24A8.35,8.35,0,0,0,26.39,26.24Z"/><path class="cls-46" d="M54.93,44.7,34.76,56.34a8.4,8.4,0,0,1-8.37,0L6.23,44.7a4.79,4.79,0,0,1-2.36-3.41,4.82,4.82,0,0,0,2.36,5L26.39,57.91a8.35,8.35,0,0,0,8.37,0L54.93,46.27a4.81,4.81,0,0,0,2.35-5A4.78,4.78,0,0,1,54.93,44.7Z"/><g id="屏幕"><path class="cls-47" d="M55.07,15.44a4.12,4.12,0,0,1,1.85,3.28V36.16c0,1.21-.86,1.7-1.91,1.09L31.15,23.48a4.17,4.17,0,0,1-1.89-3.28V2.75c0-1.21.91-1.69,1.95-1.09Z"/><path class="cls-48" d="M29.26,2.75c0-1.21.91-1.69,1.95-1.09L55.07,15.44a4.12,4.12,0,0,1,1.85,3.28Z"/><g class="cls-2"><path class="cls-49" d="M47.81,17.33v3.39l2.6-.09a5,5,0,0,1,.34,1.79c0,1.87-1.32,2.62-3,1.69A6.49,6.49,0,0,1,44.85,19C44.86,17.15,46.18,16.39,47.81,17.33Z"/><path class="cls-50" d="M48.16,16.85a6.42,6.42,0,0,1,2.59,3.29l-2.6.09Z"/></g><path class="cls-51" d="M35.3,20.08a.37.37,0,0,1,.18.3c0,.11-.08.16-.18.1l-1.79-1a.36.36,0,0,1-.17-.31c0-.11.08-.15.17-.1Z"/><path class="cls-52" d="M34.72,18.76a.39.39,0,0,1,.17.3c0,.11-.08.16-.17.1l-1.21-.7a.37.37,0,0,1-.18-.3c0-.11.08-.16.18-.1Z"/><path class="cls-53" d="M37.19,21.17a.39.39,0,0,1,.18.3c0,.11-.08.16-.18.1l-1-.58a.39.39,0,0,1-.18-.31c0-.11.08-.15.18-.1Z"/><path class="cls-54" d="M39,23.14a.36.36,0,0,1,.17.3c0,.11-.07.16-.17.1l-1.6-.92a.38.38,0,0,1-.17-.3c0-.12.07-.16.17-.1Z"/><path class="cls-55" d="M39,22.23a.39.39,0,0,1,.18.3c0,.12-.08.16-.18.1l-1-.58a.4.4,0,0,1-.17-.3c0-.12.08-.16.18-.11Z"/><path class="cls-56" d="M36.61,21.74a.38.38,0,0,1,.17.3c0,.12-.08.16-.17.1L35,21.22a.37.37,0,0,1-.18-.3c0-.11.08-.16.18-.1Z"/><path class="cls-57" d="M39,21.25a.39.39,0,0,1,.18.3c0,.11-.08.16-.18.1l-3.44-2a.39.39,0,0,1-.17-.31c0-.11.08-.15.17-.1Z"/><path class="cls-58" d="M34.14,20.31a.42.42,0,0,1,.17.31c0,.11-.08.15-.17.1l-.63-.36a.4.4,0,0,1-.18-.31c0-.11.08-.15.18-.1Z"/><path class="cls-59" d="M48.83,26.77a.4.4,0,0,1,.18.31c0,.12-.08.16-.18.11l-1.64-.94a.42.42,0,0,1-.17-.31c0-.12.08-.16.18-.11Z"/><path class="cls-60" d="M47.64,27a.42.42,0,0,1,.17.31c0,.12-.08.16-.18.11l-1-.6a.4.4,0,0,1-.18-.31c0-.12.08-.16.18-.1Z"/><path class="cls-61" d="M46.36,25.35a.37.37,0,0,1,.17.31c0,.11-.08.16-.17.1l-1.64-.94a.39.39,0,0,1-.17-.31c0-.12.08-.16.17-.1Z"/><path class="cls-62" d="M45.76,25.93a.4.4,0,0,1,.18.31c0,.11-.08.16-.18.1l-1-.6a.37.37,0,0,1-.18-.3c0-.12.08-.16.18-.11Z"/><path class="cls-63" d="M48.23,28.36a.4.4,0,0,1,.18.31c0,.12-.08.16-.18.11l-3.51-2a.4.4,0,0,1-.18-.31c0-.12.08-.16.18-.1Z"/><path class="cls-64" d="M50.36,28.59a.37.37,0,0,1,.18.31c0,.11-.08.16-.18.1l-1.83-1.06a.39.39,0,0,1-.18-.31c0-.11.08-.16.18-.1Z"/><path class="cls-65" d="M50.36,29.59a.4.4,0,0,1,.18.31c0,.12-.08.16-.18.1l-1.23-.71A.39.39,0,0,1,49,29c0-.11.08-.16.18-.1Z"/><path class="cls-66" d="M50.36,27.66a.4.4,0,0,1,.18.31c0,.11-.08.16-.18.1l-.64-.37a.37.37,0,0,1-.18-.31c0-.11.08-.16.18-.1Z"/><polygon class="cls-67" points="34.66 13.85 34.66 14.37 33.52 13.71 33.52 13.19 34.66 13.85"/><polygon class="cls-68" points="34.66 14.37 34.66 16.42 33.52 15.76 33.52 13.71 34.66 14.37"/><polygon class="cls-67" points="36.36 13.04 36.36 13.6 35.22 12.94 35.22 12.38 36.36 13.04"/><polygon class="cls-68" points="36.36 13.6 36.35 17.39 35.2 16.73 35.22 12.94 36.36 13.6"/><g class="cls-2"><polygon class="cls-68" points="38.05 15.61 38.04 18.37 36.9 17.71 36.9 14.95 38.05 15.61"/><polygon class="cls-67" points="38.05 14.65 38.05 15.61 36.9 14.95 36.9 13.99 38.05 14.65"/></g><g class="cls-2"><polygon class="cls-68" points="39.74 14.82 39.73 19.34 38.59 18.68 38.6 14.16 39.74 14.82"/><polygon class="cls-67" points="39.74 13.54 39.74 14.82 38.6 14.16 38.6 12.88 39.74 13.54"/></g></g><path class="cls-69" d="M35,26.87l3.13-3.56c.4-.61.66-2.08-.13-2.07-.51,0-1.53,1.28-2.11,1.94a36,36,0,0,0-2.35,3c-.44.69.42,1,.36,1A.88.88,0,0,0,35,26.87Z"/><path class="cls-70" d="M41.68,28.29l-.4-.23v.28a.44.44,0,0,1-.2.34l-.24.14.4.23.24-.14a.45.45,0,0,0,.2-.34Z"/><path class="cls-71" d="M42,28.11v.4a.88.88,0,0,1-.39.69l-.35.2v-.35l.24-.14a.45.45,0,0,0,.2-.34v-.28Z"/><path class="cls-70" d="M37.48,37.74a.92.92,0,0,0-.43.75c0,.28.19.39.43.25a1,1,0,0,0,.44-.75C37.92,37.71,37.72,37.6,37.48,37.74Zm0,.8c-.14.09-.26,0-.26-.15a.55.55,0,0,1,.26-.45c.14-.09.26,0,.26.15A.56.56,0,0,1,37.48,38.54Z"/><path class="cls-70" d="M37.48,37.94c.14-.09.26,0,.26.15a.56.56,0,0,1-.26.45c-.14.09-.26,0-.26-.15A.55.55,0,0,1,37.48,37.94Z"/><path class="cls-70" d="M37.43,37.5a.3.3,0,0,0-.31,0,1,1,0,0,0-.44.75.3.3,0,0,0,.13.28l.36.21c-.08,0-.12-.14-.12-.28a.92.92,0,0,1,.43-.75.3.3,0,0,1,.31,0Z"/><path class="cls-70" d="M43.84,34.07a.93.93,0,0,0-.44.75c0,.28.2.39.44.25a1,1,0,0,0,.43-.75C44.27,34,44.08,33.93,43.84,34.07Zm0,.8c-.15.09-.27,0-.27-.15a.57.57,0,0,1,.27-.45c.14-.09.26,0,.26.15A.57.57,0,0,1,43.84,34.87Z"/><path class="cls-70" d="M43.84,34.27c.14-.09.26,0,.26.15a.57.57,0,0,1-.26.45c-.15.09-.27,0-.27-.15A.57.57,0,0,1,43.84,34.27Z"/><path class="cls-70" d="M43.78,33.83a.3.3,0,0,0-.31,0,1,1,0,0,0-.43.75.31.31,0,0,0,.12.28l.37.21a.29.29,0,0,1-.13-.28.93.93,0,0,1,.44-.75.28.28,0,0,1,.3,0Z"/><path class="cls-70" d="M43.56,37.65a.3.3,0,0,0-.31,0l-.09.05-.13.07-.14.09a.3.3,0,0,1,.31,0l.14.11-.14.09a.59.59,0,0,1,.26.45.19.19,0,0,1-.08.17l.25-.14v.07a.31.31,0,0,1-.12.28l.36-.21A.29.29,0,0,0,44,38.4,1,1,0,0,0,43.56,37.65Z"/><g class="cls-2"><g class="cls-72"><g class="cls-2"><path class="cls-70" d="M43,38l.36-.21a.21.21,0,0,0-.07.17.56.56,0,0,0,.26.45l-.36.21a.55.55,0,0,1-.26-.45A.18.18,0,0,1,43,38Z"/></g></g></g><path class="cls-70" d="M43.2,37.86c-.24-.14-.44,0-.44.25a1,1,0,0,0,.44.75c.24.14.43,0,.43-.25A1,1,0,0,0,43.2,37.86Zm0,.8a.55.55,0,0,1-.26-.45c0-.17.11-.24.26-.15a.59.59,0,0,1,.26.45C43.46,38.68,43.34,38.75,43.2,38.66Z"/><path class="cls-70" d="M43.2,38.06c-.15-.09-.26,0-.26.15a.55.55,0,0,0,.26.45c.14.09.26,0,.26-.15A.59.59,0,0,0,43.2,38.06Z"/><path class="cls-70" d="M37.21,34a.3.3,0,0,0-.31,0l-.09,0-.13.08-.15.08a.3.3,0,0,1,.31,0l.15.11-.15.09a.57.57,0,0,1,.27.45A.18.18,0,0,1,37,35l.24-.14s0,.05,0,.07a.29.29,0,0,1-.13.28l.36-.21a.29.29,0,0,0,.13-.28A1,1,0,0,0,37.21,34Z"/><path class="cls-70" d="M36.84,34.19c-.24-.14-.43,0-.43.25a1,1,0,0,0,.43.75c.24.14.44,0,.44-.25A1,1,0,0,0,36.84,34.19Zm0,.8a.57.57,0,0,1-.26-.45c0-.17.12-.23.26-.15a.57.57,0,0,1,.27.45C37.11,35,37,35.08,36.84,35Z"/><path class="cls-70" d="M36.84,34.39c-.14-.08-.26,0-.26.15a.57.57,0,0,0,.26.45c.15.09.27,0,.27-.15A.57.57,0,0,0,36.84,34.39Z"/><path class="cls-70" d="M43.83,33.48l-3,1.73v.57l3-1.73a.2.2,0,0,0,.13-.17V33.3A.21.21,0,0,1,43.83,33.48Z"/><path class="cls-70" d="M36.62,33.48a.24.24,0,0,1-.13-.18v.58c0,.06,0,.12.13.17l3,1.73v-.57Z"/><path class="cls-70" d="M43.82,33.12a.72.72,0,0,0-.61,0l-3,1.74V35l.18.1.43.13,3-1.73A.19.19,0,0,0,43.82,33.12Z"/><path class="cls-70" d="M40.23,35v-.12l-3-1.74a.72.72,0,0,0-.61,0,.19.19,0,0,0,0,.36l3,1.73.44-.13Z"/><path class="cls-70" d="M43.85,37.3a.72.72,0,0,1-.61,0l-3-1.74v.58l3,1.73a.66.66,0,0,0,.61,0,.21.21,0,0,0,.13-.18v-.57A.23.23,0,0,1,43.85,37.3Z"/><path class="cls-70" d="M40.23,35.18v.38l3,1.74a.72.72,0,0,0,.61,0,.2.2,0,0,0,0-.36l-3-1.73-.43-.13Z"/><path class="cls-70" d="M40.23,35.18l-.17-.1-.44.13-3,1.73a.19.19,0,0,0,0,.36.75.75,0,0,0,.62,0l3-1.74Z"/><path class="cls-70" d="M37.26,37.3a.75.75,0,0,1-.62,0,.23.23,0,0,1-.12-.18v.57a.23.23,0,0,0,.13.18.66.66,0,0,0,.61,0l3-1.73v-.58Z"/><path class="cls-70" d="M40.77,33.66a.27.27,0,0,0-.15-.22.85.85,0,0,0-.76,0,.29.29,0,0,0-.16.23v1.5a0,0,0,0,0,0,0v0l0,0s0,0,0,0l0,0,0,0,.06.05a.84.84,0,0,0,.77,0l.07,0a0,0,0,0,1,0,0l0,0v0s0,0,0,0v0s0,0,0,0h0Z"/><path class="cls-70" d="M40.43,32.33a.44.44,0,0,0-.39,0,.14.14,0,0,0-.08.11v1.14h0v0h0v0h0l0,0a.41.41,0,0,0,.39,0l0,0h0v0h0v0h0V32.44A.14.14,0,0,0,40.43,32.33Z"/><path class="cls-73" d="M43.15,23.21a1.11,1.11,0,0,1,.52,1.06l-.11.46c-.05.22-.08,1.74-.08,2v2.4c0,.18-.13.25-.29.16l-3.32-1.92a.61.61,0,0,1-.28-.49v-2.4c0-.26,0-1.81-.07-2.09l-.11-.58c-.07-.44.18-.66.53-.46Z"/><path class="cls-74" d="M44,22.72l-3.22-1.86a.38.38,0,0,0-.38,0l-.84.49a.38.38,0,0,1,.38,0l3.21,1.86a1.11,1.11,0,0,1,.52,1.06l-.17.42c0,.22-.08,1.74-.08,2l.06,2.44a.19.19,0,0,1-.08.18l.84-.49a.19.19,0,0,0,.08-.18v-2.4c0-.26,0-1.78.08-2l.11-.47A1.12,1.12,0,0,0,44,22.72Z"/><path class="cls-73" d="M43.12,30.11l-3.82-2.2a.32.32,0,0,0-.32,0l-3.81,2.2a.32.32,0,0,1,.32,0l3.83,2.21a1,1,0,0,1,.45.78.33.33,0,0,1-.14.29l3.81-2.19a.32.32,0,0,0,.13-.29A1,1,0,0,0,43.12,30.11Z"/><path class="cls-71" d="M39.32,32.31a1,1,0,0,1,.45.78c0,.29-.21.4-.46.26l-3.82-2.21a1,1,0,0,1-.45-.78c0-.29.2-.4.45-.26Z"/><polygon class="cls-71" points="39.4 21.93 39.72 21.72 39.72 30.02 39.4 30.41 39.4 21.93"/><polygon class="cls-71" points="38.94 21.67 39.27 21.46 39.72 21.72 39.4 21.93 38.94 21.67"/><polygon class="cls-71" points="39.4 21.93 39.4 29.53 38.94 29.19 38.94 21.67 39.4 21.93"/><polygon class="cls-71" points="34.97 31.08 35.31 30.9 35.31 37.42 34.97 37.63 34.97 31.08"/><path class="cls-70" d="M34.85,33.06s1,1.13,1.23,1.35a4.94,4.94,0,0,0,1.45.45c.27,0,.53.15.68-.18s-1-3.32-1-3.32l-2.41.15Z"/><path class="cls-73" d="M33.74,39s.67-.86.8-1a1.38,1.38,0,0,0,.22-1.12l-.89-3.81a1.42,1.42,0,0,1,.05-.88.9.9,0,0,1,.17-.26l3.82-2.78.64.27c.73.86.36,1.25.36,1.77,0,0-2.06,1.49-2.56,1.87a.75.75,0,0,0-.22.36c.07.47.17,3,.26,4l0,.41a.75.75,0,0,1-.18.49,9,9,0,0,1-1.14,1.06,1.38,1.38,0,0,1-1.26.31.32.32,0,0,1-.14-.56A.08.08,0,0,1,33.74,39Z"/><polygon class="cls-70" points="36 39.27 35.49 39.05 35.84 38.64 36.13 38.64 36 39.27"/><path class="cls-70" d="M36.45,38.58l-.11.5s0,.09-.21.16l-.13,0,0-.57Z"/><path class="cls-70" d="M33.39,40.07a.38.38,0,0,1-.13-.47c.14-.28.36-.23.36-.23-.12.16,1.09.44.58.34-.31-.06.66-.22,1-.42a3.58,3.58,0,0,0,.69-.64,1.59,1.59,0,0,0,.53-.91,1.9,1.9,0,0,1,0,.42c0,.38-.16.45-.16.45s0,.13-.36.29-.66.85-1.17,1.1A1.65,1.65,0,0,1,33.39,40.07Z"/><path class="cls-71" d="M33.4,40c-.26-.16-.22-.38.2-.8l.11-.11c-.12.16-.09.4.33.47a1.34,1.34,0,0,0,1.08-.32,4.27,4.27,0,0,0,.92-.8,1.52,1.52,0,0,0,.35-1,.66.66,0,0,1,.23.67,1.68,1.68,0,0,1-.2.62l-.57.27c-.38.18-.45.68-1.06,1A1.56,1.56,0,0,1,33.4,40Z"/><path class="cls-73" d="M35.31,39.9l.84-1.13a1.61,1.61,0,0,0,.19-1.29l-.89-3.55a1.43,1.43,0,0,1,.22-1.38l3.08-3.1s1.27-.59,2,.28.72,1.42.21,2.12c0,0-2.55,1.67-3.09,2-.18.11-.12.36-.11.44A20.29,20.29,0,0,1,38,38.13v.06l0,.45a.81.81,0,0,1-.17.49,9.57,9.57,0,0,1-1.14,1,1.41,1.41,0,0,1-1.26.32.33.33,0,0,1-.14-.57Z"/><polygon class="cls-70" points="37.58 40.15 37.07 39.92 37.42 39.52 37.71 39.52 37.58 40.15"/><path class="cls-70" d="M38,39.45l-.11.51s0,.09-.21.16l-.13,0,0-.57Z"/><path class="cls-70" d="M35,41a.39.39,0,0,1-.12-.47.36.36,0,0,1,.36-.24c-.12.16,1.09.44.58.35-.31-.07.66-.22,1-.43a3.55,3.55,0,0,0,.69-.63,1.6,1.6,0,0,0,.53-.92,2,2,0,0,1,0,.43c0,.38-.16.45-.16.45s0,.13-.37.28-.65.85-1.16,1.11A1.67,1.67,0,0,1,35,41Z"/><path class="cls-71" d="M35,40.82c-.26-.16-.22-.38.2-.79l.11-.11c-.12.16-.09.4.33.47a1.34,1.34,0,0,0,1.08-.32,4.27,4.27,0,0,0,.92-.8A1.46,1.46,0,0,0,38,38.19a.75.75,0,0,1,.24.71,1.94,1.94,0,0,1-.2.62l-.57.26c-.38.18-.45.68-1.06,1A1.52,1.52,0,0,1,35,40.82Z"/><path class="cls-75" d="M36.72,29.47c-.35.3-2.52,2-2.55,2.06-.47.39-.25.64-.25.64s.18-.38.5-.35a7.47,7.47,0,0,1,2.2.76,3.43,3.43,0,0,1,1.59,2.1,5.07,5.07,0,0,0,.55-.63c.24-.31,2.93-1.08,3.09-2.88a8.48,8.48,0,0,0-.17-2.11,2.62,2.62,0,0,1-2.83.73c-1.51-.35-1.58-1-1.58-1A1.54,1.54,0,0,1,36.72,29.47Z"/><path class="cls-76" d="M37.42,21l-.67,2.9a2.93,2.93,0,0,0-.1.89,2.06,2.06,0,0,0,.44.87,2,2,0,0,1,.31,1.48l-.14,1.74s-.1.47,1.15.94c2.75,1,3.38-.05,3.38-.05a.81.81,0,0,0,0-.38c-.09-.39-.15-.65-.23-.94L41.27,27a2.46,2.46,0,0,1-.11-.66l.4-1.9s.54-1.32.08-1.89a9.5,9.5,0,0,0-2-1.63,3.53,3.53,0,0,0-.63-.19A2.59,2.59,0,0,0,37.42,21Z"/><path class="cls-73" d="M38.06,21.9c.79.61,1.11-.17,1.5-.76l-.14-2.08-1.64.32Z"/><path class="cls-77" d="M39.5,20.48a2.16,2.16,0,0,1,0,.31c-.08.81-1,1.22-1,1.22s-.09.22-.06.41l.12.55c0,.18.13.15.19.07s.68-.7.87-.93c.44-.55.39-.65.14-1.27C39.63,20.47,39.5,20.48,39.5,20.48Z"/><path class="cls-77" d="M38.35,21.9c.09.09.13.17.08.25l-.36.53c-.15.21-.2.06-.22-.09l-.1-1.07c0-.68.18-.73.18-.73A1.8,1.8,0,0,1,38,21,1.74,1.74,0,0,0,38.35,21.9Z"/><path class="cls-78" d="M36.19,21.46s.56-.22.41-1.09a3.85,3.85,0,0,0-.23-.82,2.46,2.46,0,0,1,1.08-3.3,2.78,2.78,0,0,1,2.29,0c.49.29,0,.78-.4,1.57a5,5,0,0,0-.58,2.48C39,21.46,36.74,21.94,36.19,21.46Z"/><path class="cls-79" d="M37.45,17.65c-1.07.27-.87,1.17-.75,1.77.08.42.33,1.18.33,1.18.29.74.66,1.13,1.1,1.17s1.16-.46,1.58-1.27a2.1,2.1,0,0,0,.34-1.23l-.17-2.4S38,17.51,37.45,17.65Z"/><path class="cls-78" d="M36.27,17.64A2.9,2.9,0,0,1,38.87,16a2.29,2.29,0,0,1,2,3c-.1.84.17,1.1.51,1.34a3.28,3.28,0,0,1-.76,1,4.05,4.05,0,0,1-1.62.89,3.56,3.56,0,0,0,.18-1.8c-.12-.89-.26-1.22-.35-1.24s-.28,0-.55,0a1.33,1.33,0,0,1-.17-.43l-.1-.4a1,1,0,0,0,0,.48,1.75,1.75,0,0,0,.05.38,2.23,2.23,0,0,1-.83-.09,1.67,1.67,0,0,1-.1-.4,1,1,0,0,1,0-.23,1.57,1.57,0,0,0-.06.33c0,.11,0,.22,0,.28a1.22,1.22,0,0,1-.7-.27C36.17,18.71,36.12,18.33,36.27,17.64Z"/><path class="cls-80" d="M35.46,27.89c.2.14.51,0,.64-.21s.35.39.55.4.13-.15.11-.2a1.64,1.64,0,0,0-.66-.6c-.61-.2-.67-.05-.8.13S35.27,27.75,35.46,27.89Z"/><path class="cls-79" d="M35,27.54l.29-.42.94.47.29.17.63.8s.12.16-.33.35c-.22.09-.78-.21-.78-.21l-.7-.29C35.08,28.26,34.79,27.78,35,27.54Z"/><path class="cls-81" d="M35.55,27.19s-.51-.63-.82-1-.81-.53-1.17-.05.13,1.06.34,1.24a6,6,0,0,0,1.18.8.83.83,0,0,1,0-.62A.71.71,0,0,1,35.55,27.19Z"/><path class="cls-79" d="M37.57,29.71l.27-.3L37.36,29l-1.71.25-.92.59s-.13.13,0,.24.15,0,.21,0l.45-.23c.13-.08.2.08.2.08s.2.34.27.46.22.18.41.23.27,0,.33-.08,0-.09,0-.09C37,30.35,37.61,30.07,37.57,29.71Z"/><path class="cls-82" d="M37.26,29s.12-.07.28.39a.71.71,0,0,1-.09.66s3.06-.53,3.52-.7a2.61,2.61,0,0,0,.9-.5,1.49,1.49,0,0,0,.32-1v-3.9c-.06-1.05-.53-1.59-1.22-1.45-1,.2-.67,1.61-.56,2.25.07.42.22,2.18.28,2.74a.54.54,0,0,1-.36.52Z"/><path class="cls-83" d="M38.92,51.12a3.62,3.62,0,0,1-1.82-.49L21.59,41.86a1.23,1.23,0,0,1,0-2.11l3.6-2.11a3.62,3.62,0,0,1,3.64,0l15.51,8.77A1.2,1.2,0,0,1,45,47.46a1.22,1.22,0,0,1-.61,1.06l-3.6,2.11a3.62,3.62,0,0,1-1.82.49Z"/><path class="cls-84" d="M44.33,35.49,28.82,26.71a3.65,3.65,0,0,0-3.63,0l-3.6,2.11a1.2,1.2,0,0,0-.6,1.05c0,.12,0,9.68,0,9.8a1.23,1.23,0,0,0,.61,1.07l15.51,8.77a3.65,3.65,0,0,0,3.63,0l3.6-2.12a1.18,1.18,0,0,0,.6-1V36.51A1.18,1.18,0,0,0,44.33,35.49Z"/><path class="cls-85" d="M38.92,40.19a3.62,3.62,0,0,1-1.82-.49L21.59,30.93a1.23,1.23,0,0,1,0-2.11l3.6-2.11a3.62,3.62,0,0,1,3.64,0l15.51,8.77A1.2,1.2,0,0,1,45,36.53a1.22,1.22,0,0,1-.61,1.06l-3.6,2.11a3.62,3.62,0,0,1-1.82.49Z"/><g class="cls-2"><path class="cls-73" d="M33.57,29.43h0L31,30.58l0,0a.39.39,0,0,0-.17.31.1.1,0,0,0,.05.1L36,34a.15.15,0,0,1-.05-.1.42.42,0,0,1,.17-.31l0,0,2.54-1.15h0Z"/><path class="cls-86" d="M36.14,33.61l0,0,2.54-1.15s0,0,0,0a.08.08,0,0,1,0,.06l-2.41,1.09s0,.05,0,.08a.42.42,0,0,1-.17.31c-.11.06-.18,0-.19-.09A.42.42,0,0,1,36.14,33.61Z"/></g><polygon class="cls-87" points="34.19 33.33 34.33 33.25 34.34 29.5 34.2 29.58 34.19 33.33"/><polygon class="cls-88" points="34.2 29.58 34.34 29.5 28.3 26.01 28.16 26.09 34.2 29.58"/><path class="cls-89" d="M28.11,25.66a.17.17,0,0,1,.19,0l6.11,3.52a.59.59,0,0,1,.26.46v4.59h0a.17.17,0,0,1-.07.16l-.19.11a.19.19,0,0,0,.08-.17h0V29.76a.57.57,0,0,0-.26-.45l-6.11-3.53a.2.2,0,0,0-.18,0Z"/><path class="cls-90" d="M27.85,25.93a.16.16,0,0,1,.26-.15l6.11,3.53a.56.56,0,0,1,.26.45v4.59c0,.17-.12.23-.27.15l-2.33-1.35-1.43-.82L28.1,31a.57.57,0,0,1-.26-.45S27.84,30.44,27.85,25.93Z"/><g class="cls-2"><path class="cls-73" d="M31.29,33.07a.14.14,0,0,0-.11,0l-1,.59c-.19.11-.31.11-.38.07l1.43.83c.07,0,.18,0,.38-.07l1-.59a.14.14,0,0,1,.11,0Z"/><path class="cls-73" d="M31,34.44l.45-3.9L30,29.71l-.45,3.9a.39.39,0,0,0,.16.3l1.42.84A.41.41,0,0,1,31,34.44Z"/><g class="cls-2"><g class="cls-2"><path class="cls-73" d="M31.52,30.53l-1.43-.83a.12.12,0,0,0-.1,0l1.44.83a.1.1,0,0,1,.09,0Z"/></g></g><path class="cls-91" d="M31.43,30.54,31,34.44s0,.58.62.22L32.76,34c0-.09-.07-.13-.15-.08l-1,.59c-.46.26-.49-.1-.49-.14l.45-3.74C31.56,30.53,31.5,30.5,31.43,30.54Z"/></g><path class="cls-92" d="M12,25.07c-.27.06.2.87-.07.88-.92.06-2.49-.9-3.22-1.31a4.87,4.87,0,0,1-1.87-2,10.11,10.11,0,0,1-.62-6.53c.94-4.85,4.33-9.08,7.88-9.85a4.5,4.5,0,0,1,.81-.11A4.41,4.41,0,0,1,17,6.5c.9.42,2.53,1,3.07,2,.89,1.7.23,4.19-.25,6.69-.95,4.85-4.34,9.08-7.89,9.85Z"/><path class="cls-93" d="M13.83,26a5.66,5.66,0,0,1-.81.12,4.41,4.41,0,0,1-4.35-2.58A10.09,10.09,0,0,1,8,17c1-4.85,4.34-9.09,7.88-9.86.28-.05.55-.09.81-.11a4.43,4.43,0,0,1,4.36,2.58,10.08,10.08,0,0,1,.62,6.52C20.77,21,17.38,25.23,13.83,26Z"/><path class="cls-94" d="M21.11,16.18c-1,5-4.54,9.16-8,9.38S7.68,21.93,8.64,17c0-.21.09-.42.15-.63a14.47,14.47,0,0,1,2.38-5.16A10.54,10.54,0,0,1,14,8.5a5.81,5.81,0,0,1,2.51-.89l.15,0C20.07,7.37,22.08,11.21,21.11,16.18Z"/><path class="cls-93" d="M16.63,7.59H16.5c3.3,0,5.22,3.68,4.29,8.44s-4.5,9-7.94,9.17A3.87,3.87,0,0,1,9.74,24a3.83,3.83,0,0,0,3.39,1.58c3.44-.22,7-4.42,8-9.38S20.07,7.37,16.63,7.59Z"/><polygon class="cls-95" points="15.06 9.64 14.7 9.85 14.7 8.55 15.06 8.34 15.06 9.64"/><polygon class="cls-95" points="17.39 9.67 17.04 9.58 17.42 8.34 17.76 8.42 17.39 9.67"/><polygon class="cls-95" points="11.98 24.69 11.64 24.61 12.02 23.36 12.36 23.45 11.98 24.69"/><polygon class="cls-95" points="19.07 11.44 18.88 11.11 19.74 10.13 19.93 10.47 19.07 11.44"/><polygon class="cls-95" points="17.68 21.83 17.93 21.55 17.27 20.43 17.01 20.7 17.68 21.83"/><polygon class="cls-95" points="12.56 11.84 12.82 11.57 12.16 10.44 11.9 10.72 12.56 11.84"/><polygon class="cls-95" points="19.96 17.81 20.08 17.46 18.88 17.1 18.76 17.45 19.96 17.81"/><polygon class="cls-95" points="10.68 15.65 10.81 15.3 9.6 14.94 9.48 15.29 10.68 15.65"/><polygon class="cls-95" points="9.57 22.73 9.38 22.39 10.25 21.41 10.43 21.75 9.57 22.73"/><polygon class="cls-95" points="15.06 24.32 14.7 24.53 14.7 23.23 15.06 23.01 15.06 24.32"/><polygon class="cls-95" points="19.56 13.93 19.56 13.49 20.66 12.79 20.66 13.22 19.56 13.93"/><polygon class="cls-95" points="8.51 20.27 8.51 19.84 9.61 19.14 9.61 19.57 8.51 20.27"/><polygon class="cls-96" points="19.46 10.96 19.36 10.61 13.13 18.74 13.35 18.94 19.46 10.96"/><path class="cls-95" d="M15,15.79c-.3,0-.61.39-.69.82s.09.76.39.74.6-.38.69-.81S15.33,15.78,15,15.79Z"/><polygon class="cls-95" points="14.94 16.7 13.07 18.05 11.08 18.77 11.08 18.57 12.7 17.27 14.88 16.3 14.94 16.7"/><polygon class="cls-95" points="15.01 16.21 15.31 12.08 15 9.8 14.86 9.87 14.54 12.21 14.82 16.32 15.01 16.21"/><path class="cls-95" d="M13.42,21.24l-.25.14v-.15l.67-.38V21l-.25.14v.72l-.17.1Z"/><path class="cls-95" d="M14,20.77l.17-.09v.87l-.17.09Z"/><path class="cls-95" d="M14.37,20.55l.19-.1.15.32s0,.09,0,.14h0a1.94,1.94,0,0,1,.05-.2l.14-.48.2-.11V21l-.16.09V20.7a2.83,2.83,0,0,1,0-.29h0l-.07.24-.13.44-.1.06-.14-.29-.06-.16h0a2.45,2.45,0,0,1,0,.27v.37l-.15.08Z"/><path class="cls-95" d="M15.37,20l.53-.31v.15l-.36.2v.2l.31-.17v.15l-.31.17v.23l.38-.21v.15l-.55.31Z"/><path class="cls-97" d="M27.42,49.61c-3.11-.36-2-.71-2-1.37,0-.94-1.62-1.36-3.58-1.36-3.49,0-5.19,1.4-5.19,2.61s2.16,2.4,5.66,2.4c3.68,0,6-.4,6.57-1.19C29.29,50.11,28,49.68,27.42,49.61Z"/><path class="cls-98" d="M18.31,28.89a18.86,18.86,0,0,0-2.21,4.25,2.11,2.11,0,0,0,.39,1.78,34.87,34.87,0,0,0,2.38,2.69l0-2s-1.12-1.56-1.08-2a6,6,0,0,1,1-1.82Z"/><path class="cls-78" d="M25.13,49.17l-2.51.51-.05,1.54h0v0a.78.78,0,0,0,1.06.57l.81-.23v0h0c0-.07,0-.25,0-.31s.71,0,.83,0a4.28,4.28,0,0,0,2.09-.47c.57-.26.5-.48.5-.48C28.05,49.08,25.68,50.07,25.13,49.17Z"/><path class="cls-78" d="M22.32,48.36c-.1-.31-.26-.36-.67-.28-.6,0-1.32.16-1.4-.43l-2.35.58v1.62s.15.8,1.15.56l.63-.26v0h0c0-.44-.14-.44.68-.48a2.83,2.83,0,0,0,2-1S22.33,48.41,22.32,48.36Z"/><path class="cls-79" d="M22,23.75l1.37.17-.57,3.52c-.15,1-.58,1.13-.89,1.1a3.45,3.45,0,0,1-1.62-.48c-.66-.46-.59-1.87-.59-2l0-2.38Z"/><path class="cls-79" d="M19.33,30.39v-1.9l.26-2.13,2,.46-.23,2.05c0,.3.2.38.36.62l.84,1.35a2.93,2.93,0,0,1,.63,1.76v5l-4.09.56V31.52A3.15,3.15,0,0,1,19.33,30.39Z"/><path class="cls-99" d="M21.86,36.43v.93a18.47,18.47,0,0,1-.16,1.87l-3.19.12c-.4-.08-.55-.63-.55-1.18V36.43Z"/><path class="cls-78" d="M23.12,23.42c.57.28.38,1.14.38,1.14-.05.26-.49.41-.57.63s-.37,1.2-.37,1.2c0,.2-.23.24-.3.12s.1-.44,0-.57-.57-.2-.72.5l-.2.6a1.21,1.21,0,0,1-1.46.52,1,1,0,0,1-.45-.28c-.08-.12-.34-1.24-.45-1.58-.39-1.27.16-3.64,2.76-2.86A7.37,7.37,0,0,1,23.12,23.42Z"/><path class="cls-75" d="M21.3,37.31s-.5,5-.7,6.67a25.4,25.4,0,0,0,0,4,1.78,1.78,0,0,1-1.34,1.3c-.66.15-1.17.21-1.43-.26a39.54,39.54,0,0,1-.05-5.94c.18-1.95.17-5.14.17-5.14Z"/><path class="cls-100" d="M22.69,39.08s1.08,3.39,1.65,5.94.53,2.56.81,3.73a1.16,1.16,0,0,0,.39.72c-.05.07-1.51,2-3,1.06,0,0-.83-3.37-1.26-4.9a25.83,25.83,0,0,0-1.82-4.46,20.86,20.86,0,0,1-1-2.7Z"/><path class="cls-101" d="M19.64,27.89c-.24-.06-.3,0-.35.13a1.66,1.66,0,0,1-.1.29c0,.12,0,.12,0,.12a8.5,8.5,0,0,1,2.09.94,4.81,4.81,0,0,1,.68.5l-.15-.51a2.12,2.12,0,0,0-1.31-1.14A7.29,7.29,0,0,0,19.64,27.89Z"/><path class="cls-80" d="M23.7,40.33c0,.29.37.49.62.5.09,0-.15.48.22.47,0,0,.19.1.32-.21,0,0,.2-.41,0-.59a2.83,2.83,0,0,0-.67-.65C24,39.75,23.72,40.05,23.7,40.33Z"/><path class="cls-102" d="M22.65,30.4c.55.43.77.88.77,2.31l0,6.93c0,.25-.48.61-1.2.76a4.11,4.11,0,0,1-2.1-.15c-.37-.12-2.3-1-2.3-1.53l-.06-7.11A13.15,13.15,0,0,1,18,29.29a1.13,1.13,0,0,1,1.2-.89,10,10,0,0,1,2.28,1.1C21.85,29.78,21.85,29.76,22.65,30.4Z"/><path class="cls-79" d="M24,39.91l-.54.46-.37,0a1.54,1.54,0,0,0,.23,1c.18.28.17.29.24.41a1.91,1.91,0,0,0,.13.23s.07.17.29.07l.6-.24c.07,0,.15,0,.24-.08.32-.21,0-.84,0-.84L24.44,40C24.4,39.9,24.33,39.84,24,39.91Z"/><path class="cls-103" d="M23.82,40.76a1,1,0,0,1-.49.06.48.48,0,0,1-.36-.26c-.26-.65-1.15-3.57-1.33-4.42s-.34-3.46-.34-3.46-.25-1.8.8-2c.88-.17,1.18.59,1.32,1.35.11.59.27,3.92.27,3.92l.92,4.16A1.29,1.29,0,0,1,23.82,40.76Z"/></g></g></svg>