<svg xmlns="http://www.w3.org/2000/svg" xmlns:xlink="http://www.w3.org/1999/xlink" viewBox="0 0 60 61.9"><defs><style>.cls-1{fill:none;}.cls-2{isolation:isolate;}.cls-110,.cls-3,.cls-62{fill:#fff;}.cls-3{opacity:0;}.cls-4{fill:#f9fbfe;opacity:0.02;}.cls-5{fill:#f3f8fd;opacity:0.05;}.cls-6{fill:#eef4fc;opacity:0.07;}.cls-7{fill:#e8f0fb;opacity:0.1;}.cls-8{fill:#e2ecfb;opacity:0.12;}.cls-9{fill:#dce9fa;opacity:0.15;}.cls-10{fill:#d6e5f9;opacity:0.17;}.cls-11{fill:#d0e1f8;opacity:0.2;}.cls-12{fill:#cbdef7;opacity:0.22;}.cls-13{fill:#c5daf6;opacity:0.24;}.cls-14{fill:#bfd6f5;opacity:0.27;}.cls-15{fill:#b9d3f4;opacity:0.29;}.cls-16{fill:#b3cff4;opacity:0.32;}.cls-17{fill:#adcbf3;opacity:0.34;}.cls-18{fill:#a8c7f2;opacity:0.37;}.cls-19{fill:#a2c4f1;opacity:0.39;}.cls-20{fill:#9cc0f0;opacity:0.41;}.cls-21{fill:#96bcef;opacity:0.44;}.cls-22{fill:#90b9ee;opacity:0.46;}.cls-23{fill:#8ab5ed;opacity:0.49;}.cls-24{fill:#85b1ed;opacity:0.51;}.cls-25{fill:#7fadec;opacity:0.54;}.cls-26{fill:#79aaeb;opacity:0.56;}.cls-27{fill:#73a6ea;opacity:0.59;}.cls-28{fill:#6da2e9;opacity:0.61;}.cls-29{fill:#679fe8;opacity:0.63;}.cls-30{fill:#629be7;opacity:0.66;}.cls-31{fill:#5c97e6;opacity:0.68;}.cls-32{fill:#5693e6;opacity:0.71;}.cls-33{fill:#5090e5;opacity:0.73;}.cls-34{fill:#4a8ce4;opacity:0.76;}.cls-35{fill:#4488e3;opacity:0.78;}.cls-36{fill:#3f85e2;opacity:0.8;}.cls-37{fill:#3981e1;opacity:0.83;}.cls-38{fill:#337de0;opacity:0.85;}.cls-39{fill:#2d7adf;opacity:0.88;}.cls-40{fill:#2776df;opacity:0.9;}.cls-41{fill:#2172de;opacity:0.93;}.cls-42{fill:#1c6edd;opacity:0.95;}.cls-43{fill:#166bdc;opacity:0.98;}.cls-44{fill:#1067db;}.cls-45{fill:url(#未命名的渐变_321);}.cls-46{fill:url(#linear-gradient);}.cls-47{fill:#f3f7ff;}.cls-48{fill:#b1bfe8;}.cls-49{fill:#d7e0f7;}.cls-50{fill:#c3cced;}.cls-51{fill:#c3d0d5;}.cls-52{fill:#0c0809;}.cls-53{fill:#0d090a;}.cls-54{fill:#1ab2c7;}.cls-55{fill:url(#未命名的渐变_5);}.cls-56{fill:#17a0b2;}.cls-115,.cls-116,.cls-57{fill:#e3e3fc;}.cls-58{fill:#c0c6ff;}.cls-59{fill:#2875df;}.cls-115,.cls-122,.cls-126,.cls-127,.cls-128,.cls-60,.cls-63{mix-blend-mode:multiply;}.cls-60{fill:url(#linear-gradient-2);}.cls-61{fill:#b4bbe1;}.cls-63{opacity:0.35;fill:url(#linear-gradient-3);}.cls-64{fill:#c5c8e8;}.cls-65{fill:#ebf6f7;}.cls-66{fill:url(#linear-gradient-4);}.cls-67{fill:url(#linear-gradient-5);}.cls-68{fill:url(#linear-gradient-6);}.cls-69{fill:url(#linear-gradient-7);}.cls-70{fill:url(#linear-gradient-8);}.cls-71{fill:url(#linear-gradient-9);}.cls-72{fill:url(#linear-gradient-10);}.cls-73{fill:url(#linear-gradient-11);}.cls-74{fill:url(#linear-gradient-12);}.cls-75{fill:url(#linear-gradient-13);}.cls-76{fill:url(#linear-gradient-14);}.cls-77{fill:url(#linear-gradient-15);}.cls-78{fill:url(#linear-gradient-16);}.cls-79{fill:url(#linear-gradient-17);}.cls-80{fill:url(#linear-gradient-18);}.cls-81{fill:url(#linear-gradient-19);}.cls-82{fill:url(#linear-gradient-20);}.cls-83{fill:url(#linear-gradient-21);}.cls-84{fill:url(#linear-gradient-22);}.cls-85{fill:url(#linear-gradient-23);}.cls-86{fill:url(#linear-gradient-24);}.cls-87{fill:url(#linear-gradient-25);}.cls-88{fill:url(#linear-gradient-26);}.cls-89{fill:url(#linear-gradient-27);}.cls-90{fill:url(#linear-gradient-28);}.cls-91{fill:url(#linear-gradient-29);}.cls-92{fill:url(#linear-gradient-30);}.cls-93{fill:url(#linear-gradient-31);}.cls-94{fill:url(#linear-gradient-32);}.cls-95{fill:url(#linear-gradient-33);}.cls-96{fill:url(#linear-gradient-34);}.cls-97{fill:url(#linear-gradient-35);}.cls-98{fill:url(#linear-gradient-36);}.cls-99{fill:url(#linear-gradient-37);}.cls-100{fill:url(#linear-gradient-38);}.cls-101{fill:url(#linear-gradient-39);}.cls-102{fill:url(#linear-gradient-40);}.cls-103{fill:url(#linear-gradient-41);}.cls-104{fill:url(#linear-gradient-42);}.cls-105,.cls-108{fill:#ff9800;}.cls-106,.cls-107,.cls-108,.cls-109,.cls-110,.cls-111,.cls-112,.cls-113,.cls-114,.cls-115,.cls-116{fill-rule:evenodd;}.cls-106{fill:url(#未命名的渐变_137);}.cls-107{fill:url(#未命名的渐变_142);}.cls-109{fill:#37407d;mix-blend-mode:overlay;}.cls-111{fill:#0a3c5f;}.cls-112{fill:#1466a0;}.cls-113{fill:#daeafa;}.cls-114{fill:#b4cce5;}.cls-115,.cls-122,.cls-126,.cls-127,.cls-128{opacity:0.5;}.cls-117{fill:url(#linear-gradient-43);}.cls-118{fill:#080749;}.cls-119{fill:#1b1089;}.cls-120{fill:#f1bf9c;}.cls-121{fill:url(#linear-gradient-44);}.cls-122{fill:url(#linear-gradient-45);}.cls-123{fill:#f4ccb0;}.cls-124{fill:#301da0;}.cls-125{fill:url(#linear-gradient-46);}.cls-126{fill:url(#linear-gradient-47);}.cls-127{fill:url(#linear-gradient-48);}.cls-128{fill:url(#linear-gradient-49);}.cls-129{clip-path:url(#clip-path);}.cls-130{clip-path:url(#clip-path-2);}</style><linearGradient id="未命名的渐变_321" x1="3.77" y1="41.58" x2="57.32" y2="41.58" gradientUnits="userSpaceOnUse"><stop offset="0" stop-color="#0079c7"/><stop offset="1" stop-color="#339bcf"/></linearGradient><linearGradient id="linear-gradient" x1="3.78" y1="49.67" x2="57.32" y2="49.67" gradientUnits="userSpaceOnUse"><stop offset="0" stop-color="#92a6f1"/><stop offset="1" stop-color="#fff"/></linearGradient><linearGradient id="未命名的渐变_5" x1="25.43" y1="18.49" x2="52.22" y2="18.49" gradientUnits="userSpaceOnUse"><stop offset="0" stop-color="#05105d"/><stop offset="1" stop-color="#1067db"/></linearGradient><linearGradient id="linear-gradient-2" x1="34.46" y1="46.19" x2="34.46" y2="16.96" gradientUnits="userSpaceOnUse"><stop offset="0" stop-color="#b4bbe1" stop-opacity="0.1"/><stop offset="0.63" stop-color="#b4bbe1" stop-opacity="0.24"/><stop offset="1" stop-color="#b4bbe1" stop-opacity="0.3"/></linearGradient><linearGradient id="linear-gradient-3" x1="23.14" y1="45" x2="39.66" y2="16.39" gradientUnits="userSpaceOnUse"><stop offset="0" stop-color="#b4bbe1" stop-opacity="0.1"/><stop offset="0.41" stop-color="#b4bbe1" stop-opacity="0.4"/><stop offset="0.83" stop-color="#b4bbe1" stop-opacity="0.8"/><stop offset="0.84" stop-color="#c5cbe8" stop-opacity="0.68"/><stop offset="0.87" stop-color="#dadef0" stop-opacity="0.55"/><stop offset="0.89" stop-color="#eaecf7" stop-opacity="0.44"/><stop offset="0.92" stop-color="#f6f7fb" stop-opacity="0.36"/><stop offset="0.96" stop-color="#fdfdfe" stop-opacity="0.31"/><stop offset="1" stop-color="#fff" stop-opacity="0.3"/></linearGradient><linearGradient id="linear-gradient-4" x1="32.42" y1="23.03" x2="40.18" y2="23.03" gradientUnits="userSpaceOnUse"><stop offset="0" stop-color="#ced5ef"/><stop offset="0.37" stop-color="#d5ddf1"/><stop offset="0.87" stop-color="#dae3f2"/></linearGradient><linearGradient id="linear-gradient-5" x1="32.42" y1="22.23" x2="40.18" y2="22.23" xlink:href="#linear-gradient-4"/><linearGradient id="linear-gradient-6" x1="32.4" y1="19.87" x2="36.8" y2="19.87" xlink:href="#linear-gradient-4"/><linearGradient id="linear-gradient-7" x1="32.42" y1="23.83" x2="40.18" y2="23.83" xlink:href="#linear-gradient-4"/><linearGradient id="linear-gradient-8" x1="32.42" y1="24.64" x2="40.18" y2="24.64" xlink:href="#linear-gradient-4"/><linearGradient id="linear-gradient-9" x1="32.42" y1="25.44" x2="40.18" y2="25.44" xlink:href="#linear-gradient-4"/><linearGradient id="linear-gradient-10" x1="33.21" y1="29.99" x2="35.61" y2="29.99" xlink:href="#linear-gradient-4"/><linearGradient id="linear-gradient-11" x1="27.85" y1="27.65" x2="32.89" y2="27.65" xlink:href="#linear-gradient-4"/><linearGradient id="linear-gradient-12" x1="27.85" y1="27.78" x2="36.13" y2="27.78" xlink:href="#linear-gradient-4"/><linearGradient id="linear-gradient-13" x1="27.85" y1="26.83" x2="35.61" y2="26.83" xlink:href="#linear-gradient-4"/><linearGradient id="linear-gradient-14" x1="27.85" y1="26.03" x2="35.61" y2="26.03" xlink:href="#linear-gradient-4"/><linearGradient id="linear-gradient-15" x1="27.85" y1="31.53" x2="35.61" y2="31.53" xlink:href="#linear-gradient-4"/><linearGradient id="linear-gradient-16" x1="27.79" y1="32.62" x2="36.83" y2="32.62" xlink:href="#linear-gradient-4"/><linearGradient id="linear-gradient-17" x1="27.61" y1="33.26" x2="36.76" y2="33.26" xlink:href="#linear-gradient-4"/><linearGradient id="linear-gradient-18" x1="27.85" y1="30.73" x2="35.61" y2="30.73" xlink:href="#linear-gradient-4"/><linearGradient id="linear-gradient-19" x1="27.85" y1="29.92" x2="35.61" y2="29.92" xlink:href="#linear-gradient-4"/><linearGradient id="linear-gradient-20" x1="32.38" y1="30.43" x2="35.61" y2="30.43" xlink:href="#linear-gradient-4"/><linearGradient id="linear-gradient-21" x1="27.85" y1="28.09" x2="32.06" y2="28.09" xlink:href="#linear-gradient-4"/><linearGradient id="linear-gradient-22" x1="36.37" y1="35.17" x2="39.67" y2="35.17" xlink:href="#linear-gradient-4"/><linearGradient id="linear-gradient-23" x1="36.37" y1="34.51" x2="40.18" y2="34.51" xlink:href="#linear-gradient-4"/><linearGradient id="linear-gradient-24" x1="36.37" y1="33.71" x2="40.18" y2="33.71" xlink:href="#linear-gradient-4"/><linearGradient id="linear-gradient-25" x1="27.85" y1="24.09" x2="34.8" y2="24.09" xlink:href="#linear-gradient-4"/><linearGradient id="linear-gradient-26" x1="27.85" y1="26.56" x2="40.26" y2="26.56" xlink:href="#linear-gradient-4"/><linearGradient id="linear-gradient-27" x1="36.93" y1="37.42" x2="40.18" y2="37.42" xlink:href="#linear-gradient-4"/><linearGradient id="linear-gradient-28" x1="37.54" y1="39.31" x2="38.91" y2="39.31" xlink:href="#linear-gradient-4"/><linearGradient id="linear-gradient-29" x1="27.07" y1="35.96" x2="35.24" y2="35.96" xlink:href="#linear-gradient-4"/><linearGradient id="linear-gradient-30" x1="22.5" y1="30.87" x2="29.14" y2="30.87" xlink:href="#linear-gradient-4"/><linearGradient id="linear-gradient-31" x1="21.93" y1="31.32" x2="28.45" y2="31.32" xlink:href="#linear-gradient-4"/><linearGradient id="linear-gradient-32" x1="21.44" y1="31.82" x2="27.94" y2="31.82" xlink:href="#linear-gradient-4"/><linearGradient id="linear-gradient-33" x1="20.98" y1="32.37" x2="27.49" y2="32.37" xlink:href="#linear-gradient-4"/><linearGradient id="linear-gradient-34" x1="20.62" y1="32.96" x2="27.13" y2="32.96" xlink:href="#linear-gradient-4"/><linearGradient id="linear-gradient-35" x1="20.33" y1="33.61" x2="26.84" y2="33.61" xlink:href="#linear-gradient-4"/><linearGradient id="linear-gradient-36" x1="20.06" y1="36.5" x2="32.27" y2="36.5" xlink:href="#linear-gradient-4"/><linearGradient id="linear-gradient-37" x1="20.01" y1="37.45" x2="32.27" y2="37.45" xlink:href="#linear-gradient-4"/><linearGradient id="linear-gradient-38" x1="19.88" y1="38.34" x2="32.12" y2="38.34" xlink:href="#linear-gradient-4"/><linearGradient id="linear-gradient-39" x1="19.6" y1="39.15" x2="31.85" y2="39.15" xlink:href="#linear-gradient-4"/><linearGradient id="linear-gradient-40" x1="19.2" y1="39.9" x2="31.46" y2="39.9" xlink:href="#linear-gradient-4"/><linearGradient id="linear-gradient-41" x1="18.68" y1="40.58" x2="30.95" y2="40.58" xlink:href="#linear-gradient-4"/><linearGradient id="linear-gradient-42" x1="24.41" y1="43.03" x2="30.32" y2="43.03" xlink:href="#linear-gradient-4"/><linearGradient id="未命名的渐变_137" x1="6.41" y1="18.99" x2="13.79" y2="18.99" gradientUnits="userSpaceOnUse"><stop offset="0" stop-color="#fe7720"/><stop offset="1" stop-color="#ff9800"/></linearGradient><linearGradient id="未命名的渐变_142" x1="8.81" y1="9.31" x2="12.41" y2="27.66" gradientUnits="userSpaceOnUse"><stop offset="0" stop-color="#ffb900"/><stop offset="0.83" stop-color="#fe7720"/></linearGradient><linearGradient id="linear-gradient-43" x1="-172.34" y1="81.07" x2="-183.9" y2="87.74" gradientTransform="translate(189.21 -54.06) rotate(-5.77)" xlink:href="#linear-gradient-2"/><linearGradient id="linear-gradient-44" x1="16.64" y1="41.36" x2="23.85" y2="41.36" gradientUnits="userSpaceOnUse"><stop offset="0" stop-color="#23a6ff"/><stop offset="0.23" stop-color="#21a2fc"/><stop offset="0.45" stop-color="#1d97f4"/><stop offset="0.66" stop-color="#1484e5"/><stop offset="0.87" stop-color="#0969d1"/><stop offset="1" stop-color="#0054c1"/></linearGradient><linearGradient id="linear-gradient-45" x1="17.41" y1="35" x2="23.8" y2="35" gradientUnits="userSpaceOnUse"><stop offset="0" stop-color="#292890"/><stop offset="0.16" stop-color="#2d2892"/><stop offset="0.3" stop-color="#382797"/><stop offset="0.44" stop-color="#4b269f"/><stop offset="0.58" stop-color="#6624ab"/><stop offset="0.72" stop-color="#8822ba"/><stop offset="0.86" stop-color="#b220cc"/><stop offset="0.99" stop-color="#e31de1"/><stop offset="1" stop-color="#e71de3"/></linearGradient><linearGradient id="linear-gradient-46" x1="16.64" y1="29.92" x2="25.24" y2="29.92" xlink:href="#linear-gradient-44"/><linearGradient id="linear-gradient-47" x1="22.86" y1="30.09" x2="22.86" y2="32.44" xlink:href="#linear-gradient-45"/><linearGradient id="linear-gradient-48" x1="19.15" y1="42.02" x2="19.15" y2="51.09" xlink:href="#linear-gradient-45"/><linearGradient id="linear-gradient-49" x1="19.76" y1="24.7" x2="21.57" y2="24.7" xlink:href="#linear-gradient-45"/><clipPath id="clip-path"><circle class="cls-1" cx="37.39" cy="-211.03" r="13.5"/></clipPath><clipPath id="clip-path-2"><circle class="cls-1" cx="95.39" cy="-211.03" r="13.5"/></clipPath></defs><title>icon</title><g class="cls-2"><g id="图层_1" data-name="图层 1"><path class="cls-3" d="M26,27.3,4.87,39.47a5.07,5.07,0,0,0,0,8.78L26,60.42a8.73,8.73,0,0,0,8.76,0L55.81,48.25a5.08,5.08,0,0,0,0-8.78L34.72,27.3A8.73,8.73,0,0,0,26,27.3Z"/><path class="cls-4" d="M26,27.39,5,39.5a5,5,0,0,0,0,8.73L26,60.34a8.74,8.74,0,0,0,8.71,0l21-12.11a5,5,0,0,0,0-8.73l-21-12.11A8.69,8.69,0,0,0,26,27.39Z"/><path class="cls-5" d="M26,27.47,5.14,39.52a5,5,0,0,0,0,8.68L26,60.25a8.69,8.69,0,0,0,8.66,0l20.86-12a5,5,0,0,0,0-8.68L34.67,27.47A8.69,8.69,0,0,0,26,27.47Z"/><path class="cls-6" d="M26,27.56l-20.75,12a5,5,0,0,0,0,8.64L26,60.16a8.62,8.62,0,0,0,8.62,0l20.75-12a5,5,0,0,0,0-8.64l-20.75-12A8.62,8.62,0,0,0,26,27.56Z"/><path class="cls-7" d="M26.05,27.65,5.42,39.57a5,5,0,0,0,0,8.59L26.05,60.07a8.57,8.57,0,0,0,8.57,0L55.26,48.16a5,5,0,0,0,0-8.59L34.62,27.65A8.57,8.57,0,0,0,26.05,27.65Z"/><path class="cls-8" d="M26.08,27.74,5.55,39.59a4.93,4.93,0,0,0,0,8.54L26.08,60a8.53,8.53,0,0,0,8.52,0L55.12,48.13a4.93,4.93,0,0,0,0-8.54L34.6,27.74A8.53,8.53,0,0,0,26.08,27.74Z"/><path class="cls-9" d="M26.1,27.83,5.69,39.61a4.91,4.91,0,0,0,0,8.5L26.1,59.89a8.45,8.45,0,0,0,8.48,0L55,48.11a4.91,4.91,0,0,0,0-8.5L34.58,27.83A8.45,8.45,0,0,0,26.1,27.83Z"/><path class="cls-10" d="M26.12,27.92,5.82,39.64a4.87,4.87,0,0,0,0,8.44l20.3,11.73a8.46,8.46,0,0,0,8.43,0l20.3-11.73a4.86,4.86,0,0,0,0-8.44L34.55,27.92A8.41,8.41,0,0,0,26.12,27.92Z"/><path class="cls-11" d="M26.15,28,6,39.66a4.85,4.85,0,0,0,0,8.4L26.15,59.72a8.41,8.41,0,0,0,8.38,0L54.72,48.06a4.85,4.85,0,0,0,0-8.4L34.53,28A8.41,8.41,0,0,0,26.15,28Z"/><path class="cls-12" d="M26.17,28.09,6.1,39.68A4.82,4.82,0,0,0,6.1,48L26.17,59.63a8.34,8.34,0,0,0,8.34,0L54.58,48a4.82,4.82,0,0,0,0-8.36L34.51,28.09A8.34,8.34,0,0,0,26.17,28.09Z"/><path class="cls-13" d="M26.2,28.18l-20,11.53a4.8,4.8,0,0,0,0,8.3l20,11.53a8.28,8.28,0,0,0,8.28,0L54.44,48a4.79,4.79,0,0,0,0-8.3l-20-11.53A8.28,8.28,0,0,0,26.2,28.18Z"/><path class="cls-14" d="M26.22,28.27,6.37,39.73a4.77,4.77,0,0,0,0,8.26L26.22,59.45a8.25,8.25,0,0,0,8.24,0L54.31,48a4.77,4.77,0,0,0,0-8.26L34.46,28.27A8.25,8.25,0,0,0,26.22,28.27Z"/><path class="cls-15" d="M26.24,28.36,6.5,39.75A4.75,4.75,0,0,0,6.5,48L26.24,59.36a8.17,8.17,0,0,0,8.2,0L54.17,48a4.75,4.75,0,0,0,0-8.22L34.44,28.36A8.17,8.17,0,0,0,26.24,28.36Z"/><path class="cls-16" d="M26.27,28.45,6.64,39.78a4.71,4.71,0,0,0,0,8.16L26.27,59.27a8.11,8.11,0,0,0,8.14,0L54,47.94a4.71,4.71,0,0,0,0-8.16L34.41,28.45A8.11,8.11,0,0,0,26.27,28.45Z"/><path class="cls-17" d="M26.29,28.54,6.78,39.8a4.68,4.68,0,0,0,0,8.12L26.29,59.19a8.13,8.13,0,0,0,8.1,0L53.9,47.92a4.68,4.68,0,0,0,0-8.12L34.39,28.54A8.09,8.09,0,0,0,26.29,28.54Z"/><path class="cls-18" d="M26.31,28.62,6.91,39.82a4.67,4.67,0,0,0,0,8.08l19.4,11.2a8.06,8.06,0,0,0,8.06,0L53.76,47.9a4.66,4.66,0,0,0,0-8.08L34.37,28.62A8.06,8.06,0,0,0,26.31,28.62Z"/><path class="cls-19" d="M26.34,28.71,7.05,39.85a4.63,4.63,0,0,0,0,8L26.34,59a8,8,0,0,0,8,0L53.63,47.87a4.63,4.63,0,0,0,0-8L34.34,28.71A8,8,0,0,0,26.34,28.71Z"/><path class="cls-20" d="M26.36,28.8,7.19,39.87a4.6,4.6,0,0,0,0,8L26.36,58.92a8,8,0,0,0,8,0L53.49,47.85a4.61,4.61,0,0,0,0-8L34.32,28.8A8,8,0,0,0,26.36,28.8Z"/><path class="cls-21" d="M26.38,28.89l-19.06,11a4.59,4.59,0,0,0,0,7.94l19.06,11a7.89,7.89,0,0,0,7.92,0l19.06-11a4.59,4.59,0,0,0,0-7.94l-19.06-11A7.94,7.94,0,0,0,26.38,28.89Z"/><path class="cls-22" d="M26.41,29,7.46,39.92a4.54,4.54,0,0,0,0,7.88l19,10.94a7.83,7.83,0,0,0,7.86,0L53.22,47.8a4.54,4.54,0,0,0,0-7.88L34.27,29A7.83,7.83,0,0,0,26.41,29Z"/><path class="cls-23" d="M26.43,29.07,7.59,39.94a4.53,4.53,0,0,0,0,7.84L26.43,58.66a7.85,7.85,0,0,0,7.82,0L53.08,47.78a4.52,4.52,0,0,0,0-7.84L34.25,29.07A7.81,7.81,0,0,0,26.43,29.07Z"/><path class="cls-24" d="M26.45,29.15,7.73,40a4.5,4.5,0,0,0,0,7.8L26.45,58.57a7.78,7.78,0,0,0,7.78,0L53,47.76A4.5,4.5,0,0,0,53,40L34.23,29.15A7.83,7.83,0,0,0,26.45,29.15Z"/><path class="cls-25" d="M26.48,29.24,7.86,40a4.47,4.47,0,0,0,0,7.74L26.48,58.48a7.72,7.72,0,0,0,7.72,0L52.81,47.73a4.47,4.47,0,0,0,0-7.74L34.2,29.24A7.72,7.72,0,0,0,26.48,29.24Z"/><path class="cls-26" d="M26.5,29.33,8,40a4.45,4.45,0,0,0,0,7.7L26.5,58.39a7.69,7.69,0,0,0,7.68,0l18.5-10.68a4.45,4.45,0,0,0,0-7.7L34.18,29.33A7.69,7.69,0,0,0,26.5,29.33Z"/><path class="cls-27" d="M26.52,29.42,8.14,40a4.42,4.42,0,0,0,0,7.66L26.52,58.3a7.66,7.66,0,0,0,7.64,0L52.54,47.69a4.42,4.42,0,0,0,0-7.66L34.16,29.42A7.66,7.66,0,0,0,26.52,29.42Z"/><path class="cls-28" d="M26.55,29.51,8.27,40.06a4.39,4.39,0,0,0,0,7.6L26.55,58.21a7.55,7.55,0,0,0,7.58,0L52.4,47.66a4.38,4.38,0,0,0,0-7.6L34.13,29.51A7.55,7.55,0,0,0,26.55,29.51Z"/><path class="cls-29" d="M26.57,29.6,8.41,40.08a4.36,4.36,0,0,0,0,7.56L26.57,58.12a7.52,7.52,0,0,0,7.54,0L52.27,47.64a4.36,4.36,0,0,0,0-7.56L34.11,29.6A7.52,7.52,0,0,0,26.57,29.6Z"/><path class="cls-30" d="M26.59,29.69,8.55,40.1a4.34,4.34,0,0,0,0,7.52L26.59,58a7.55,7.55,0,0,0,7.5,0l18-10.42a4.35,4.35,0,0,0,0-7.52l-18-10.41A7.5,7.5,0,0,0,26.59,29.69Z"/><path class="cls-31" d="M26.62,29.77,8.68,40.13a4.31,4.31,0,0,0,0,7.46L26.62,58a7.44,7.44,0,0,0,7.44,0L52,47.59a4.31,4.31,0,0,0,0-7.46L34.06,29.77A7.44,7.44,0,0,0,26.62,29.77Z"/><path class="cls-32" d="M26.64,29.86,8.82,40.15a4.28,4.28,0,0,0,0,7.42L26.64,57.86a7.41,7.41,0,0,0,7.4,0L51.86,47.57a4.28,4.28,0,0,0,0-7.42L34,29.86A7.41,7.41,0,0,0,26.64,29.86Z"/><path class="cls-33" d="M26.66,30,9,40.17a4.27,4.27,0,0,0,0,7.38L26.66,57.77a7.38,7.38,0,0,0,7.36,0l17.7-10.22a4.25,4.25,0,0,0,0-7.37L34,30A7.38,7.38,0,0,0,26.66,30Z"/><path class="cls-34" d="M26.69,30,9.09,40.2a4.22,4.22,0,0,0,0,7.32l17.6,10.16a7.27,7.27,0,0,0,7.3,0l17.6-10.16a4.22,4.22,0,0,0,0-7.32L34,30A7.27,7.27,0,0,0,26.69,30Z"/><path class="cls-35" d="M26.71,30.13,9.23,40.22a4.2,4.2,0,0,0,0,7.28L26.71,57.59a7.24,7.24,0,0,0,7.26,0L51.45,47.5a4.2,4.2,0,0,0,0-7.28L34,30.13A7.24,7.24,0,0,0,26.71,30.13Z"/><path class="cls-36" d="M26.73,30.22l-17.37,10a4.18,4.18,0,0,0,0,7.23l17.37,10a7.27,7.27,0,0,0,7.22,0l17.37-10a4.18,4.18,0,0,0,0-7.23L34,30.22A7.22,7.22,0,0,0,26.73,30.22Z"/><path class="cls-37" d="M26.76,30.3,9.5,40.27a4.14,4.14,0,0,0,0,7.18l17.26,10a7.16,7.16,0,0,0,7.16,0l17.26-10a4.14,4.14,0,0,0,0-7.18l-17.26-10A7.16,7.16,0,0,0,26.76,30.3Z"/><path class="cls-38" d="M26.78,30.39,9.63,40.29a4.13,4.13,0,0,0,0,7.14l17.15,9.9a7.13,7.13,0,0,0,7.12,0L51,47.43a4.12,4.12,0,0,0,0-7.14L33.9,30.39A7.13,7.13,0,0,0,26.78,30.39Z"/><path class="cls-39" d="M26.8,30.48l-17,9.84a4.09,4.09,0,0,0,0,7.09l17,9.83a7.08,7.08,0,0,0,7.07,0l17-9.83a4.09,4.09,0,0,0,0-7.09l-17-9.84A7.08,7.08,0,0,0,26.8,30.48Z"/><path class="cls-40" d="M26.83,30.57,9.91,40.34a4.06,4.06,0,0,0,0,7l16.92,9.77a7,7,0,0,0,7,0l16.92-9.77a4.06,4.06,0,0,0,0-7L33.85,30.57A7,7,0,0,0,26.83,30.57Z"/><path class="cls-41" d="M26.85,30.66,10,40.36a4,4,0,0,0,0,7l16.81,9.7a7,7,0,0,0,7,0l16.81-9.7a4,4,0,0,0,0-7l-16.81-9.7A7,7,0,0,0,26.85,30.66Z"/><path class="cls-42" d="M26.87,30.75,10.18,40.39a4,4,0,0,0,0,6.94L26.87,57a6.92,6.92,0,0,0,6.93,0l16.7-9.64a4,4,0,0,0,0-6.94L33.8,30.75A6.92,6.92,0,0,0,26.87,30.75Z"/><path class="cls-43" d="M26.9,30.84,10.31,40.41a4,4,0,0,0,0,6.9L26.9,56.89a6.88,6.88,0,0,0,6.88,0l16.58-9.58a4,4,0,0,0,0-6.9L33.78,30.84A6.88,6.88,0,0,0,26.9,30.84Z"/><path class="cls-44" d="M26.92,30.92,10.45,40.43a4,4,0,0,0,0,6.86L26.92,56.8a6.85,6.85,0,0,0,6.84,0l16.47-9.51a4,4,0,0,0,0-6.86L33.76,30.92A6.85,6.85,0,0,0,26.92,30.92Z"/><path class="cls-45" d="M26.36,25.75,6.2,37.39a4.84,4.84,0,0,0,0,8.39L26.36,57.42a8.35,8.35,0,0,0,8.37,0L54.9,45.78a4.84,4.84,0,0,0,0-8.39L34.73,25.75A8.35,8.35,0,0,0,26.36,25.75Z"/><path class="cls-46" d="M54.9,44.21,34.73,55.85a8.4,8.4,0,0,1-8.37,0L6.2,44.21A4.79,4.79,0,0,1,3.84,40.8a4.82,4.82,0,0,0,2.36,5L26.36,57.42a8.35,8.35,0,0,0,8.37,0L54.9,45.78a4.83,4.83,0,0,0,2.36-5A4.82,4.82,0,0,1,54.9,44.21Z"/><g class="cls-2"><path class="cls-47" d="M52.43,35.34a.8.8,0,0,1,0,1.52L38,45.26a2.88,2.88,0,0,1-2.62,0L18.17,35.34a.8.8,0,0,1,0-1.52l14.46-8.4a2.88,2.88,0,0,1,2.62,0Z"/><path class="cls-48" d="M53,36.16v.06s0,0,0,0,0,0,0,.06,0,0,0,0l0,.06s0,0,0,0l0,.07,0,0-.08.09s0,0,0,0,0,0,0,0a.1.1,0,0,0-.05,0l-.07,0-.07,0L38,45.26l-.18.09,0,0-.15.06-.05,0-.1,0-.07,0-.1,0-.07,0-.21,0h-.81l-.1,0H36l-.11,0-.06,0-.2-.07h0a1.15,1.15,0,0,1-.25-.12L18.17,35.34a.93.93,0,0,1-.55-.77v1.07a.93.93,0,0,0,.55.76l17.19,9.92a1.15,1.15,0,0,0,.25.12h0l.2.07h.07l.11,0h.08l.1,0H37l.21,0h.07l.1,0,.07,0,.1,0h.05l.15-.06,0,0a.91.91,0,0,0,.17-.09l14.47-8.4,0,0,0,0,.06,0,0,0,.06,0h0l0,0,.08-.08,0,0v0a.16.16,0,0,0,0-.07l0,0v0l0,0s0,0,0,0h0a.17.17,0,0,0,0-.05s0,0,0,0h0a.13.13,0,0,0,0-.06v0h0V36.1S53,36.14,53,36.16Z"/></g><g class="cls-2"><path class="cls-49" d="M42.48,34h0v-.09s0,0,0-.06h0v0s0,0,0-.07v0h0a.14.14,0,0,0,0-.07.14.14,0,0,1,0-.06L40.82,30l-7.65-4.44,1.57,3.51a.58.58,0,0,1,0,.14h0l0,.15h0a.81.81,0,0,1,0,.16h0v.17h0a1.1,1.1,0,0,1,0,.18h0c0,.06,0,.12,0,.18h0l-.06.2h0l-.08.2-.09.19h0a.51.51,0,0,1-.09.16s0,.05,0,.08a1,1,0,0,1-.08.11l0,0-.12.16h0a1,1,0,0,1-.13.15h0l-.15.13h0l-.14.11h0l-.16.1-5,2.87,7.64,4.44,5-2.87h0a.1.1,0,0,0,.05,0l.06,0,0,0h0s0,0,0,0l.06,0,0,0h0l0,0,.06-.06.05-.05h0l0,0,.05-.06,0,0h0l0-.06.06-.07v0l0,0,0-.05a.21.21,0,0,1,0-.06.35.35,0,0,1,0-.08l0,0,.06-.11v0h0l0-.05,0-.07,0-.06v0l0,0,0-.07,0-.06v0h0v0s0,0,0-.07a.64.64,0,0,0,0-.07v0h0v0s0-.05,0-.07,0-.05,0-.07h0v0s0,0,0-.06v-.08h0V34Z"/><path class="cls-50" d="M42.62,33.28l-1.57-3.51s0,0,0,0h0L33.38,25.3h-.21L40.82,30l1.57,3.51A1.83,1.83,0,0,1,42.26,35a2.69,2.69,0,0,1-1,1.27l-5,2.87-7.64-4.44h-.08v0h0l0,0,7.64,4.43h0a.1.1,0,0,0,.11,0l5-2.88A3.31,3.31,0,0,0,42.48,35,2.27,2.27,0,0,0,42.62,33.28ZM41,29.73Zm-4.87,9.65a.07.07,0,0,1,0-.05.07.07,0,0,0,0,.05Z"/></g><path class="cls-49" d="M53.45,35.78v2.78c0,.51-.37.72-.82.46L25,23.05a1.8,1.8,0,0,1-.82-1.41V18.87Z"/><path class="cls-50" d="M42.48,34v.17h0l-7.65-4.41v0h0v-.17h0a.81.81,0,0,0,0-.16h0l0-.15h0a.78.78,0,0,0,0-.14l-.23-.52L42.14,33l.25.56a.08.08,0,0,0,0,0,.24.24,0,0,1,0,.08h0v0s0,0,0,.07v0h0V34Z"/><polygon class="cls-51" points="24.15 18.87 24.91 18.43 54.21 35.34 53.45 35.78 24.15 18.87"/><polygon class="cls-52" points="25.47 3.4 26.23 2.96 26.19 17.7 25.43 18.14 25.47 3.4"/><polygon class="cls-53" points="25.43 18.14 26.19 17.7 52.94 33.14 52.18 33.59 25.43 18.14"/><polygon class="cls-54" points="25.47 3.4 26.23 2.96 52.98 18.4 52.22 18.84 25.47 3.4"/><polygon class="cls-55" points="52.22 18.84 52.18 33.59 25.43 18.14 25.47 3.4 52.22 18.84"/><polygon class="cls-56" points="52.22 18.84 52.98 18.4 52.94 33.14 52.18 33.59 52.22 18.84"/><path class="cls-48" d="M54.21,35.34l0-16.73v-.2h0v-.2h0v0l0,0v0l0,0v0h0v0l0,0,0-.05,0-.06h0L54,17.7l-.05-.07h0l0-.05,0,0,0,0,0,0h0l0,0,0,0,0,0,0,0h0v0l0,0,0,0,0,0,0,0h0l-27.66-16h0l0,0h-.46l-.06,0-.76.45s0,0,.06,0l.05,0h.23l.07,0h0l.07,0h0l.08,0,27.66,16a1,1,0,0,1,.16.12h0l.15.14h0c0,.05.09.11.14.17h0l.12.18h0a1.14,1.14,0,0,1,.1.19h0a1.18,1.18,0,0,1,.07.2h0a1.94,1.94,0,0,1,0,.2h0a1.41,1.41,0,0,1,0,.2l0,16.73h0v2.78a.88.88,0,0,1,0,.17h0a.57.57,0,0,1,0,.14h0a.21.21,0,0,1-.06.1s0,0,0,0l-.09.07.76-.44.09-.08a0,0,0,0,0,0,0l0,0,0-.06h0v0l0,0v0h0v-.17h0V35.34Z"/><path class="cls-57" d="M52.68,17.64a1.77,1.77,0,0,1,.81,1.41l0,16.73L24.15,18.87,24.2,2.14c0-.52.37-.73.82-.47Zm-.5,15.94,0-14.74L25.47,3.4l0,14.74L52.18,33.58"/><polygon class="cls-58" points="44.86 18.48 44.86 20.49 30.22 12.06 30.22 10.05 44.86 18.48"/><polygon class="cls-59" points="30.62 11.72 30.62 10.83 44.45 18.8 44.45 19.69 30.62 11.72"/><polygon class="cls-60" points="39.32 16.96 44.06 19.01 44.06 20.28 44.06 37.35 29.06 46.19 24.86 41.09 39.32 16.96"/><path class="cls-61" d="M32.77,36.92,38,40v-.07a1.15,1.15,0,0,1-.48-1V38.2a2.56,2.56,0,0,0-.65-1.74.88.88,0,0,0-.21-.12h0a1.57,1.57,0,0,0-1.56.12C34.78,36.67,33.05,36.63,32.77,36.92Z"/><path class="cls-62" d="M44.06,18.93l-13.19-7.6-2.53,1.44h0a1.55,1.55,0,0,0-.81,1.36V29.5a2.72,2.72,0,0,1-.34,1.31l-3.42-2a1,1,0,0,0-.22-.13h0a1.75,1.75,0,0,0-.72-.15,1.66,1.66,0,0,0-.83.27,5.46,5.46,0,0,0-2.49,4.54v0a5.2,5.2,0,0,1-2.19,4.21l-3.09,2.2,13.12,7.64,3.09-2.2A5.13,5.13,0,0,0,32.63,41v0a5.41,5.41,0,0,1,2.49-4.53,1.57,1.57,0,0,1,1.56-.12h0a.83.83,0,0,1,.22.14,2.18,2.18,0,0,1,.64,1.72V39a1.18,1.18,0,0,0,1.86,1h0a3.08,3.08,0,0,0,1.25-2.79V21.77a1.56,1.56,0,0,1,.87-1.4h0Z"/><path class="cls-63" d="M44.06,18.93l-13.19-7.6-2.53,1.44h0a1.55,1.55,0,0,0-.81,1.36V29.5a2.72,2.72,0,0,1-.34,1.31l-3.42-2a1,1,0,0,0-.22-.13h0a1.75,1.75,0,0,0-.72-.15,1.66,1.66,0,0,0-.83.27,5.46,5.46,0,0,0-2.49,4.54v0a5.2,5.2,0,0,1-2.19,4.21l-3.09,2.2,13.12,7.64,3.09-2.2A5.13,5.13,0,0,0,32.63,41v0a5.41,5.41,0,0,1,2.49-4.53,1.57,1.57,0,0,1,1.56-.12h0a.83.83,0,0,1,.22.14,2.18,2.18,0,0,1,.64,1.72V39a1.18,1.18,0,0,0,1.86,1h0a3.08,3.08,0,0,0,1.25-2.79V21.77a1.56,1.56,0,0,1,.87-1.4h0Z"/><path class="cls-62" d="M28.15,33.65l-.6-.35A1.26,1.26,0,0,0,28.15,33.65Z"/><polygon class="cls-64" points="14.22 39.79 14.22 39.92 27.34 47.55 27.34 47.43 14.22 39.79"/><path class="cls-65" d="M37.3,35.28Z"/><path class="cls-66" d="M32.46,21l7.66,4.44s.06,0,.06,0v-.28a.08.08,0,0,0,0-.06l-7.66-4.45s-.06,0-.06,0v.26A.12.12,0,0,0,32.46,21Z"/><path class="cls-67" d="M32.46,20.19l7.66,4.45s.06,0,.06,0v-.27a.07.07,0,0,0,0-.06l-7.66-4.45s-.06,0-.06,0v.26A.08.08,0,0,0,32.46,20.19Z"/><path class="cls-68" d="M32.44,19.26l4.3,2.44a0,0,0,0,0,.06,0v-.28a7.69,7.69,0,0,0,0-.83L32.43,18a8.24,8.24,0,0,0,0,.88v.27A.1.1,0,0,0,32.44,19.26Z"/><path class="cls-69" d="M32.46,21.8l7.66,4.45a0,0,0,0,0,.06,0v-.28s0,0,0-.06l-7.66-4.45a0,0,0,0,0-.06,0v.27A.1.1,0,0,0,32.46,21.8Z"/><path class="cls-70" d="M32.46,22.6l7.66,4.45a0,0,0,0,0,.06,0v-.27a.07.07,0,0,0,0-.06l-7.66-4.45s-.06,0-.06,0v.27A.08.08,0,0,0,32.46,22.6Z"/><path class="cls-71" d="M32.46,23.4l7.66,4.45s.06,0,.06,0v-.28a.08.08,0,0,0,0-.06L32.48,23s-.06,0-.06,0v.26A.08.08,0,0,0,32.46,23.4Z"/><path class="cls-72" d="M35.58,30.47l-2.32-1.34a0,0,0,0,0,0,0v.28a.12.12,0,0,0,0,.08l2.3,1.33a0,0,0,0,0,.06,0v-.28A.09.09,0,0,0,35.58,30.47Z"/><path class="cls-73" d="M27.85,26.06v.27a.1.1,0,0,0,0,.07l4.93,2.87s.07,0,.07,0V29a.1.1,0,0,0,0-.08L27.92,26S27.85,26,27.85,26.06Z"/><path class="cls-74" d="M27.89,25.6l8.18,4.75a0,0,0,0,0,.06,0V30a.08.08,0,0,0,0-.07l-8.17-4.75a0,0,0,0,0-.07,0v.26A.12.12,0,0,0,27.89,25.6Z"/><path class="cls-75" d="M27.89,24.79l7.66,4.45s.06,0,.06,0v-.27a.06.06,0,0,0,0-.06l-7.66-4.45a0,0,0,0,0-.07,0v.27A.08.08,0,0,0,27.89,24.79Z"/><path class="cls-76" d="M27.89,24l7.66,4.45a0,0,0,0,0,.06,0v-.27a.09.09,0,0,0,0-.07l-7.66-4.45s-.07,0-.07,0v.27A.1.1,0,0,0,27.89,24Z"/><path class="cls-77" d="M27.89,29.49l7.66,4.45a0,0,0,0,0,.06,0v-.27a.06.06,0,0,0,0-.06l-7.66-4.45a0,0,0,0,0-.07,0v.27A.08.08,0,0,0,27.89,29.49Z"/><path class="cls-78" d="M27.84,30.22l8.93,5.17s0,0,0,0h0c0-.06,0-.12,0-.19v-.1s0-.06,0-.06h0l-8.93-5.16s-.05,0-.05,0l0,.22A.11.11,0,0,0,27.84,30.22Z"/><path class="cls-79" d="M27.65,30.83l9,5.18a.06.06,0,0,0,.1,0,1.94,1.94,0,0,0,0-.2.08.08,0,0,0,0-.09l-9-5.19s-.06,0-.07,0a1.07,1.07,0,0,1-.07.19A.11.11,0,0,0,27.65,30.83Z"/><path class="cls-80" d="M27.89,28.69l7.66,4.45a0,0,0,0,0,.06,0v-.27a.09.09,0,0,0,0-.07l-7.66-4.45s-.07,0-.07,0v.27A.1.1,0,0,0,27.89,28.69Z"/><path class="cls-81" d="M27.89,27.89l7.66,4.44a0,0,0,0,0,.06,0V32a.07.07,0,0,0,0-.06l-7.66-4.45a0,0,0,0,0-.07,0v.26A.12.12,0,0,0,27.89,27.89Z"/><path class="cls-82" d="M35.58,31.16l-3.16-1.83s0,0,0,0v.31a.08.08,0,0,0,0,.05l3.15,1.82s.06,0,.06,0v-.27A.06.06,0,0,0,35.58,31.16Z"/><path class="cls-83" d="M27.85,26.75V27a.08.08,0,0,0,0,.07L32,29.48a0,0,0,0,0,.06,0v-.29a.09.09,0,0,0,0,0l-4.11-2.39A0,0,0,0,0,27.85,26.75Z"/><path class="cls-84" d="M36.41,34.43l3.2,1.86a0,0,0,0,0,.06,0V36a.05.05,0,0,0,0-.06l-3.2-1.87a0,0,0,0,0-.06,0v.27A.1.1,0,0,0,36.41,34.43Z"/><path class="cls-85" d="M36.41,33.63l3.7,2.15s.07,0,.07,0v-.27a.1.1,0,0,0,0-.07l-3.71-2.15s-.06,0-.06,0v.26A.12.12,0,0,0,36.41,33.63Z"/><path class="cls-86" d="M36.41,32.82,40.11,35a0,0,0,0,0,.07,0v-.28a.08.08,0,0,0,0-.06l-3.71-2.15s-.06,0-.06,0v.26A.08.08,0,0,0,36.41,32.82Z"/><path class="cls-87" d="M27.85,22v.27a.08.08,0,0,0,0,.07l6.83,4a.06.06,0,0,0,.08-.05V26a.1.1,0,0,0,0-.08l-6.83-4A0,0,0,0,0,27.85,22Z"/><path class="cls-88" d="M27.89,23.17,40.2,30.33a0,0,0,0,0,.06,0V30a.07.07,0,0,0,0-.06l-12.3-7.17s-.07,0-.07,0v.27A.1.1,0,0,0,27.89,23.17Z"/><path class="cls-89" d="M36.93,36.49a2.62,2.62,0,0,1,.61,1.7v.46s0,0,0,0l1.48.86a0,0,0,0,0,.06,0,2.53,2.53,0,0,0,.58-.55,1.08,1.08,0,0,0,.18-.24h0a3.51,3.51,0,0,0,.27-1.85l-2.75-1.6s0,0-.08,0-.07,0-.07.1h0A2.73,2.73,0,0,1,36.93,36.49Z"/><path class="cls-90" d="M37.54,38.89V39a1.09,1.09,0,0,0,0,.18l1,.54a.37.37,0,0,0,.34,0l.06,0Z"/><path class="cls-91" d="M27.19,36.25l5,2.93a.18.18,0,0,0,.26-.1,6,6,0,0,1,.39-1A5.62,5.62,0,0,1,34.75,36a1.56,1.56,0,0,1,.42-.19.09.09,0,0,0,0-.17l-.8-.47-2.75-1.6-1.4-.82a.45.45,0,0,0-.36-.06,1.45,1.45,0,0,0-.53.23A5.46,5.46,0,0,0,27.47,35a5.27,5.27,0,0,0-.39,1A.27.27,0,0,0,27.19,36.25Z"/><path class="cls-92" d="M22.5,29.12l4.75,2.77,1.54.9a.07.07,0,0,0,.09,0l.09-.05a.65.65,0,0,1,.16-.09h0s0,0,0,0h0l-1.9-1.11-4.37-2.55a1.94,1.94,0,0,0-.35.18Z"/><path class="cls-93" d="M22,29.54a0,0,0,0,0,0,.07l5.32,3.1.92.54a.09.09,0,0,0,.11,0l.11-.1a.09.09,0,0,0,0-.15l-1.16-.68-5-2.92a.11.11,0,0,0-.11,0Z"/><path class="cls-94" d="M21.48,30.15l6.2,3.61a.09.09,0,0,0,.13,0l.11-.12a.08.08,0,0,0,0-.12l-.35-.2-5.86-3.41a.1.1,0,0,0-.13,0l-.1.1A.1.1,0,0,0,21.48,30.15Z"/><path class="cls-95" d="M21,30.69l6.23,3.63a.1.1,0,0,0,.14,0,.44.44,0,0,0,.08-.11.08.08,0,0,0,0-.12l-6.22-3.63a.12.12,0,0,0-.14,0l-.09.13A.07.07,0,0,0,21,30.69Z"/><path class="cls-96" d="M20.64,31.28h0l6.27,3.65a.1.1,0,0,0,.14,0,.31.31,0,0,1,.05-.1l0,0c0-.05,0-.08,0-.08h0L20.8,31a0,0,0,0,0-.06,0c0,.06-.08.14-.12.21h0S20.61,31.26,20.64,31.28Z"/><path class="cls-97" d="M20.35,31.92l6.35,3.7s.05,0,.05,0l.09-.25a0,0,0,0,0,0-.05l-6.34-3.69a0,0,0,0,0-.05,0,2.44,2.44,0,0,0-.1.24S20.33,31.91,20.35,31.92Z"/><path class="cls-98" d="M20.06,33.05a.11.11,0,0,0,.05.11l12.1,7s.06,0,.06,0v-.28a.08.08,0,0,0,0-.06l-12.06-7s-.08,0-.08,0Z"/><path class="cls-99" d="M20,34a.09.09,0,0,0,0,.08l12.15,7.07h0a0,0,0,0,0,0,0v-.27s0,0,0,0l0,0L20.1,33.74a.05.05,0,0,0-.08,0A1.93,1.93,0,0,1,20,34Z"/><path class="cls-100" d="M19.88,34.9a.08.08,0,0,0,0,.1L32,42s.07,0,.07,0a1.41,1.41,0,0,0,.06-.22.05.05,0,0,0,0-.07L20,34.66a.06.06,0,0,0-.09,0C19.91,34.76,19.89,34.83,19.88,34.9Z"/><path class="cls-101" d="M19.61,35.69a.11.11,0,0,0,0,.13l12,7a.05.05,0,0,0,.08,0l.09-.19a.09.09,0,0,0,0-.1l-12-7a.06.06,0,0,0-.09,0C19.66,35.59,19.63,35.64,19.61,35.69Z"/><path class="cls-102" d="M19.21,36.46a.05.05,0,0,0,0,.08l12,7a.05.05,0,0,0,.07,0l.12-.18a.06.06,0,0,0,0-.08l-12-7a.07.07,0,0,0-.1,0Z"/><path class="cls-103" d="M18.7,37.13a.06.06,0,0,0,0,.09l12,7a.06.06,0,0,0,.07,0l.16-.17a.07.07,0,0,0,0-.09l-12-7a.08.08,0,0,0-.1,0Z"/><path class="cls-104" d="M24.44,41.42a.07.07,0,0,0,0,.11L30,44.78h.07l.2-.16s0-.06,0-.08l-5.6-3.25a.08.08,0,0,0-.1,0Z"/><path class="cls-61" d="M41.53,20.38a1.55,1.55,0,0,0-.87,1.39V37.13a3,3,0,0,1-1.26,2.79,1.18,1.18,0,0,1-1.86-1v-.77a2.18,2.18,0,0,0-.42-1.47,1.5,1.5,0,0,0-1.23-.53,2.32,2.32,0,0,0-1.11.49,5.22,5.22,0,0,0-2,3.06,27.5,27.5,0,0,1-.47,3,6,6,0,0,1-2.18,2.67c-.58.43-2.81,2-2.81,2v.1s1.82-1.27,2.72-1.92a6.66,6.66,0,0,0,2.25-2.53c.55-1.28.33-2.7.77-4A4.82,4.82,0,0,1,35,36.64a1.6,1.6,0,0,1,1.29-.35,1.38,1.38,0,0,1,.86.78,4.17,4.17,0,0,1,.28,1.67,1.36,1.36,0,0,0,.44,1.18,1.26,1.26,0,0,0,1.52.11,2.24,2.24,0,0,0,.88-.91A4.44,4.44,0,0,0,40.73,37s0-15,0-15.21a1.47,1.47,0,0,1,.77-1.28L44.06,19v-.08Z"/><path class="cls-105" d="M29.54,17c-.93-.2-1.49.64-1.3,1.84a3.72,3.72,0,0,0,1.93,2.75c1,.4,1.72-.3,1.57-1.64A3.53,3.53,0,0,0,29.54,17Zm1.25,2.1-1,1.15c0,.05-.12,0-.18-.07l-.69-1a.24.24,0,0,1,0-.24c0-.05.11,0,.17.05l.59.84.86-1.07c.05-.06.14,0,.2.06a.24.24,0,0,1,0,.26Z"/><path class="cls-105" d="M38.13,29.39c-.76-.17-1.2.51-1.05,1.48a3,3,0,0,0,1.55,2.21c.79.32,1.39-.24,1.26-1.31A2.83,2.83,0,0,0,38.13,29.39Zm1,1.69-.77.92s-.1,0-.15-.05l-.55-.79a.18.18,0,0,1,0-.19s.09,0,.14,0l.47.67.7-.86c0-.05.11,0,.16.05a.19.19,0,0,1,0,.21Z"/><path class="cls-105" d="M31.08,34.21a1.29,1.29,0,0,0-1.69,1.14,1.25,1.25,0,0,0,1.29,1.15A1.34,1.34,0,0,0,32,35.65,1.14,1.14,0,0,0,31.08,34.21Zm.46.85-.93.62a.12.12,0,0,1-.13,0L30,35.23a.09.09,0,0,1,0-.13.11.11,0,0,1,.16,0l.36.38.87-.58a.09.09,0,1,1,.1.14Z"/><path class="cls-106" d="M13.72,6A.57.57,0,0,1,14.21,6l.36.15C14.7,6.8,7,31.87,6.86,32.05l-.32-.13a.63.63,0,0,1-.36-.52L3.44,12.68h0a1.38,1.38,0,0,1,.22-.91A1.12,1.12,0,0,1,4,11.42Z"/><path class="cls-107" d="M4.39,11.56l9.69-5.39a.54.54,0,0,1,.84.46l2.75,18.73a1.33,1.33,0,0,1-.59,1.26L7.38,32c-.39.22-.77,0-.84-.47L3.8,12.82A1.3,1.3,0,0,1,4.39,11.56Z"/><path class="cls-108" d="M4.39,11.56l9.69-5.39a.54.54,0,0,1,.84.46l.14,1L3.94,13.78l-.14-1A1.3,1.3,0,0,1,4.39,11.56Z"/><path class="cls-109" d="M16.78,22.89,13.47,24.7v-.1l3.3-1.81L16.36,20l-3.3,1.81,0-.1,3.31-1.81-.41-2.75L12.64,19l0-.1,3.31-1.82-.4-2.74-3.31,1.81v-.1l3.3-1.81-.4-2.75L11.8,13.31v-.1L15.1,11.4l-.41-2.75-3.3,1.82.4,2.74v.1l.41,2.75v.1l.4,2.75,0,.1.4,2.74,0,.1.4,2.75v.1l.41,2.75h0l3.3-1.82-.4-2.74ZM8,12.33l3.31-1.82.4,2.75L8.4,15.07v.1l3.31-1.81h0l.4,2.75L8.81,17.92l0,.1,3.3-1.81L12.54,19,9.23,20.77l0,.1,3.3-1.82h0L13,21.8l-3.3,1.81v.1L13,21.9h0l.4,2.75-3.3,1.81v.1l3.31-1.81h0l.4,2.74-3.31,1.82h0l-.4-2.75v-.1l-.41-2.75v-.1l-.4-2.74,0-.1L8.83,18l0-.1-.4-2.75v-.1L8,12.33ZM4.6,14.19,5,16.93,5,17l.4,2.75,0,.1.4,2.75v.1l.41,2.74v.1l.4,2.75,0,.1.4,2.75h0l3.31-1.82L10,26.61h0l-3.3,1.81,0-.1L10,26.51l-.4-2.75h0L6.27,25.57v-.1l3.3-1.81-.4-2.75h0L5.85,22.73v-.1l3.3-1.82-.4-2.74-3.3,1.81,0-.1L8.73,18l-.41-2.75h0L5,17l0-.1,3.31-1.81-.4-2.75h0L4.6,14.19ZM14.76,8.51l2.52,17.18L7,31.31,4.51,14.13Z"/><path class="cls-110" d="M11.39,26.87l.36-.2a.23.23,0,0,0,.1-.19l0-.48a.23.23,0,0,1,.11-.19.1.1,0,0,1,.15.05l.2.36a.1.1,0,0,0,.15,0l.36-.2c.13-.07.23.11.14.26l-.23.42a.22.22,0,0,0,0,.21l.2.36a.22.22,0,0,1-.08.29.08.08,0,0,1-.08,0l-.35-.1a.14.14,0,0,0-.09,0,.29.29,0,0,0-.07.08L12,28a.29.29,0,0,1-.07.08c-.09,0-.18,0-.18-.15l0-.48a.13.13,0,0,0-.09-.16l-.34-.1C11.25,27.17,11.26,26.94,11.39,26.87Z"/><path class="cls-110" d="M10.72,17.93c.2-.11.42,0,.41.34a.58.58,0,0,1-.16.4l-.08.06c-.21.11-.42,0-.42-.33a.57.57,0,0,1,.17-.4.27.27,0,0,1,.08-.07Zm.19.94.11-.08a.77.77,0,0,0,.23-.55c0-.39-.29-.59-.56-.44l-.11.08a.76.76,0,0,0-.22.55c0,.39.28.59.55.44ZM10,18.54a.12.12,0,0,0-.06.15l.05.23c0,.06.06.09.1.06h0a.07.07,0,0,1,.09,0l.05.07a.14.14,0,0,1,0,.13l0,0a.13.13,0,0,0,0,.15l.16.09h.07l.06-.07v0a.1.1,0,0,1,.05-.06h.11a.08.08,0,0,1,.08.07v0c0,.06.06.09.11.06l.18-.1a.16.16,0,0,0,.07-.16v0a.14.14,0,0,1,0-.13l0-.07,0,0a.06.06,0,0,1,.06,0h0a.06.06,0,0,0,.06,0,.11.11,0,0,0,.06-.07l.09-.23a.12.12,0,0,0,0-.15h0a.12.12,0,0,1,0-.12s0-.06,0-.09a.16.16,0,0,1,.06-.12h0a.17.17,0,0,0,.06-.15l0-.23c0-.06-.06-.09-.11-.06h0a.07.07,0,0,1-.1,0l0-.06a.12.12,0,0,1,0-.13v0c0-.06,0-.13,0-.15l-.17-.09a.08.08,0,0,0-.07,0,.1.1,0,0,0-.05.06v0a.12.12,0,0,1-.06.06h-.11s-.07,0-.08-.07v0c0-.05-.06-.08-.11-.05l-.19.1a.15.15,0,0,0-.06.15v0a.15.15,0,0,1,0,.13l-.06.07s0,0,0,0a.06.06,0,0,1-.07,0h0s-.05,0-.07,0a.1.1,0,0,0-.05.06L10,18c0,.06,0,.13,0,.15h0a.12.12,0,0,1,0,.11.34.34,0,0,0,0,.1.14.14,0,0,1-.07.11Z"/><path class="cls-110" d="M14.7,25.46a.64.64,0,0,0,1,.51,1.31,1.31,0,0,0,.55-1.35.64.64,0,0,0-.95-.51,1.32,1.32,0,0,0-.55,1.35Zm.67-.21a.15.15,0,0,1-.08-.12.31.31,0,0,1,.07-.26l-.1-.46a.09.09,0,0,1,0-.08,0,0,0,0,1,.06,0l.1.46c.07,0,.13,0,.15.13a.27.27,0,0,1-.12.29l-.05,0-.19.68a.05.05,0,0,1,0,0h0s0,0,0-.06l.19-.67ZM15.21,24a.75.75,0,0,1,1.13.6,1.55,1.55,0,0,1-.65,1.59.75.75,0,0,1-1.12-.61A1.53,1.53,0,0,1,15.21,24Z"/><path class="cls-110" d="M13.61,18.92s-.08.11,0,.15l1,1.3a.06.06,0,0,0,.07,0,.09.09,0,0,0,0-.06l.62-1.6c0-.07,0-.13-.07-.1l-.29.16a.1.1,0,0,0,0,.06l-.25.66a.1.1,0,0,1-.05.06s-.05,0-.06,0l-.59-.76a0,0,0,0,0-.06,0Z"/><path class="cls-111" d="M5.46,11.94a.31.31,0,0,0-.17.4.32.32,0,0,0,.43.13.3.3,0,0,0,.16-.4A.33.33,0,0,0,5.46,11.94Z"/><path class="cls-112" d="M5.44,12a.24.24,0,0,0,.29.38.25.25,0,0,1-.39-.09C5.29,12.22,5.32,12.11,5.44,12Z"/><path class="cls-113" d="M4.43,10c-.43.18-.53.74-.32,1.32l.28-.15c-.11-.38-.11-.72.19-.85a1,1,0,0,1,1.1.6c.24.46.2.92-.14,1.07a.15.15,0,0,0-.08.21.17.17,0,0,0,.22.1l0,0c.49-.21.59-.82.25-1.48A1.33,1.33,0,0,0,4.43,10Z"/><path class="cls-114" d="M4.18,11.33l.21-.12c-.11-.38-.11-.72.19-.85a1,1,0,0,1,1.1.6c.24.46.2.92-.14,1.07a.13.13,0,0,0-.09.12.52.52,0,0,0,.44-.41,1.31,1.31,0,0,0-.49-1.3.94.94,0,0,0-1-.21C3.94,10.48,4.11,11.1,4.18,11.33Z"/><path class="cls-111" d="M7.1,11.05a.3.3,0,0,0-.17.4.33.33,0,0,0,.43.13.3.3,0,1,0-.26-.53Z"/><path class="cls-112" d="M7.08,11.13a.24.24,0,0,0,.29.37A.25.25,0,0,1,7,11.42.22.22,0,0,1,7.08,11.13Z"/><path class="cls-113" d="M6.07,9.14c-.43.19-.53.75-.32,1.33L6,10.31c-.11-.38-.11-.71.19-.84s.86.14,1.1.6.2.92-.14,1.06a.16.16,0,0,0-.08.21.17.17,0,0,0,.22.1h0c.49-.22.6-.83.25-1.49A1.34,1.34,0,0,0,6.07,9.14Z"/><path class="cls-114" d="M5.82,10.43,6,10.31c-.11-.38-.11-.71.19-.84s.86.14,1.1.6.2.92-.14,1.06a.14.14,0,0,0-.09.13.52.52,0,0,0,.44-.41A1.3,1.3,0,0,0,7,9.55a.94.94,0,0,0-1-.22C5.58,9.59,5.75,10.21,5.82,10.43Z"/><path class="cls-111" d="M8.73,10.15a.3.3,0,1,0,.26.53.3.3,0,0,0,.17-.4A.33.33,0,0,0,8.73,10.15Z"/><path class="cls-112" d="M8.72,10.23a.24.24,0,0,0,.29.38.27.27,0,0,1-.4-.09A.23.23,0,0,1,8.72,10.23Z"/><path class="cls-113" d="M7.71,8.25c-.43.19-.54.74-.32,1.33l.28-.16c-.11-.38-.12-.72.19-.85s.86.14,1.1.6.2.92-.14,1.07a.15.15,0,0,0-.08.21.16.16,0,0,0,.21.1l.05,0c.48-.21.59-.82.25-1.48A1.34,1.34,0,0,0,7.71,8.25Z"/><path class="cls-114" d="M7.46,9.54l.21-.12c-.11-.38-.12-.72.19-.85s.86.14,1.1.6.2.92-.14,1.07a.15.15,0,0,0-.1.12A.54.54,0,0,0,9.17,10a1.29,1.29,0,0,0-.5-1.3.92.92,0,0,0-1-.21C7.22,8.69,7.38,9.31,7.46,9.54Z"/><path class="cls-111" d="M10.37,9.26a.3.3,0,0,0-.17.4.32.32,0,0,0,.43.13.3.3,0,0,0,.16-.4A.32.32,0,0,0,10.37,9.26Z"/><path class="cls-112" d="M10.35,9.34a.24.24,0,0,0,.29.38.27.27,0,0,1-.4-.09A.24.24,0,0,1,10.35,9.34Z"/><path class="cls-113" d="M9.34,7.36c-.43.18-.53.74-.32,1.32l.28-.15c-.11-.38-.11-.72.19-.85a1,1,0,0,1,1.1.6c.24.46.2.92-.14,1.07a.15.15,0,0,0-.08.21.17.17,0,0,0,.22.1l0,0c.49-.21.59-.82.25-1.49A1.34,1.34,0,0,0,9.34,7.36Z"/><path class="cls-114" d="M9.09,8.65l.21-.12c-.11-.38-.11-.72.19-.85a1,1,0,0,1,1.1.6c.24.46.2.92-.14,1.07a.13.13,0,0,0-.09.12.55.55,0,0,0,.44-.41,1.29,1.29,0,0,0-.5-1.3,1,1,0,0,0-1-.22C8.85,7.8,9,8.42,9.09,8.65Z"/><path class="cls-111" d="M12,8.37a.3.3,0,0,0-.16.4.33.33,0,0,0,.42.13.31.31,0,0,0,.17-.4A.32.32,0,0,0,12,8.37Z"/><path class="cls-112" d="M12,8.45a.24.24,0,0,0,.29.37.25.25,0,0,1-.39-.08A.23.23,0,0,1,12,8.45Z"/><path class="cls-113" d="M11,6.46c-.43.19-.54.75-.32,1.33l.28-.16c-.12-.38-.12-.71.19-.84s.86.14,1.1.6.19.92-.14,1.06a.16.16,0,0,0-.09.21.17.17,0,0,0,.22.1l0,0c.48-.21.59-.82.25-1.48A1.35,1.35,0,0,0,11,6.46Z"/><path class="cls-114" d="M10.72,7.75l.22-.12c-.12-.38-.12-.71.19-.84s.86.14,1.1.6.19.92-.14,1.06a.17.17,0,0,0-.1.13.54.54,0,0,0,.45-.41,1.3,1.3,0,0,0-.5-1.3.93.93,0,0,0-1-.22C10.48,6.91,10.65,7.53,10.72,7.75Z"/><path class="cls-111" d="M13.64,7.48a.3.3,0,0,0-.17.4.33.33,0,0,0,.42.13.3.3,0,0,0,.17-.4A.31.31,0,0,0,13.64,7.48Z"/><path class="cls-112" d="M13.62,7.56a.24.24,0,0,0,.29.37.26.26,0,0,1-.4-.08A.23.23,0,0,1,13.62,7.56Z"/><path class="cls-113" d="M12.61,5.57c-.43.19-.54.75-.32,1.33l.28-.16c-.11-.38-.11-.71.19-.85s.86.15,1.1.61.2.91-.14,1.06a.15.15,0,0,0-.08.21.16.16,0,0,0,.21.1l.05,0c.48-.21.59-.82.25-1.48A1.34,1.34,0,0,0,12.61,5.57Z"/><path class="cls-114" d="M12.36,6.86l.21-.12c-.11-.38-.11-.71.19-.85s.86.15,1.1.61.2.91-.14,1.06a.14.14,0,0,0-.09.13.56.56,0,0,0,.44-.42A1.28,1.28,0,0,0,13.57,6a.92.92,0,0,0-1-.22C12.12,6,12.28,6.64,12.36,6.86Z"/><path class="cls-110" d="M10.9,12.11a1.94,1.94,0,0,1-.79,1.74.69.69,0,0,1-1-.57,1.63,1.63,0,0,1,.18-1l.27.15a1,1,0,0,0-.12.64.45.45,0,0,0,.68.37,1.31,1.31,0,0,0,.51-1.12Z"/><path class="cls-110" d="M10.54,11.47a.76.76,0,0,1,.36.64l-.32.21a.5.5,0,0,0-.24-.41Z"/><path class="cls-110" d="M9.85,11.54a.68.68,0,0,1,.69-.08c-.06.15-.13.3-.2.45a.42.42,0,0,0-.44,0,1.14,1.14,0,0,0-.39.49l-.27-.15A1.76,1.76,0,0,1,9.85,11.54Z"/><path class="cls-110" d="M9.88,24l2.89-1.57c.05,0,.09,0,.09.05l0,.25a.13.13,0,0,1-.06.13l-2.9,1.57s-.08,0-.09-.05l0-.25A.12.12,0,0,1,9.88,24Z"/><path class="cls-110" d="M11.34,24.12l1.54-.85s.09,0,.09.05l0,.08a.14.14,0,0,1-.07.13l-1.54.84s-.08,0-.09-.05v-.07A.13.13,0,0,1,11.34,24.12Z"/><path class="cls-110" d="M6.89,19.91,8.51,19s.08,0,.09,0l0,.24a.13.13,0,0,1-.05.13L7,20.32a.06.06,0,0,1-.09-.05l0-.24A.14.14,0,0,1,6.89,19.91Z"/><path class="cls-110" d="M5.84,20.13s0,.05,0,.06l.45.58a0,0,0,0,0,0,0,0,0,0,0,0,0,0L6.58,20s0-.05,0,0l-.13.07,0,0-.11.29s0,0,0,0,0,0,0,0L6,20.07s0,0,0,0Z"/><path class="cls-110" d="M7,21l1.62-.89a.05.05,0,0,1,.08.05l0,.24a.11.11,0,0,1-.06.12l-1.62.89s-.07,0-.08-.05l0-.24A.11.11,0,0,1,7,21Z"/><path class="cls-110" d="M6,21.25a0,0,0,0,0,0,.06l.44.57h0s0,0,0,0l.27-.7s0-.06,0,0l-.13.06s0,0,0,0l-.11.29,0,0h0l-.26-.33s0,0,0,0Z"/><polygon class="cls-115" points="7.88 15.79 7.93 18.05 5.74 19.33 5.75 17.06 7.88 15.79"/><path class="cls-116" d="M7.88,15.78a3,3,0,0,0,.46,1.73L6.21,18.85a3.37,3.37,0,0,1-.46-1.79Z"/><path class="cls-117" d="M26.56,48.7a12.74,12.74,0,0,0,.23-2.14c0-1.23-.28-2.55-1.66-2.77a21.33,21.33,0,0,0-6.57.28c-1.77.28-4.07.27-5.51,1.48-2.21,1.85.65,4.2,2.19,5.25,3,2,7.23,4.61,10,.89A7.39,7.39,0,0,0,26.56,48.7Z"/><path class="cls-118" d="M19.37,46.2a.65.65,0,0,1,0,.35,1.26,1.26,0,0,1-.27.43,2.4,2.4,0,0,1-.44.36,4,4,0,0,0-.37.26,3.07,3.07,0,0,0-.26.34V48a1.16,1.16,0,0,1-.36.29.94.94,0,0,1-.68,0,.47.47,0,0,1-.31-.39,1.88,1.88,0,0,1,0-.24"/><path class="cls-119" d="M17.74,46.46a3.44,3.44,0,0,0,.8-.37c.4-.28.69-.21.79,0s.14.74-.71,1.24a1.52,1.52,0,0,0-.58.52,1.18,1.18,0,0,1-.4.36.89.89,0,0,1-.45.07c-.58-.05-.7-.63-.41-1.08A2.28,2.28,0,0,1,17.74,46.46Z"/><path class="cls-118" d="M24.09,49.25v0a.39.39,0,0,1-.09.26A2.16,2.16,0,0,1,23,50h0c-.36.06-.76.08-.93.1a1.66,1.66,0,0,0-.34.06v0a4,4,0,0,1-.5.08h0a.89.89,0,0,1-.53-.12.51.51,0,0,1-.14-.25h0v-.14l.46,0h.23l.22,0h.19Z"/><path class="cls-119" d="M22.07,48.76a2.76,2.76,0,0,0,.78.17A3.33,3.33,0,0,1,24,49a.25.25,0,0,1,.13.21c0,.43-1,.69-1.64.74a8.81,8.81,0,0,0-.94.09,1.43,1.43,0,0,1-.78,0,.68.68,0,0,1-.15-.95C20.78,48.78,22.07,48.76,22.07,48.76Z"/><path class="cls-120" d="M20.74,48.36s0,.49,0,.57a1.18,1.18,0,0,0,0,.25c0,.12.31.24.71.2a1.22,1.22,0,0,0,.79-.39c.08-.12,0-.16-.05-.21s0-.8-.06-.56"/><path class="cls-120" d="M16.86,46.72l0,.44a.3.3,0,0,0,0,.19c0,.12.36.35.82.11a.76.76,0,0,0,.47-.7c0-.19-.08,0-.08-.16"/><path class="cls-121" d="M23.68,39.76c-.16,1.46-.68,3.94-.86,5.19s-.44,3.59-.44,3.59a1.2,1.2,0,0,1-.86.38,1,1,0,0,1-.95-.31s-.31-3.47-.26-4.19.26-2.07.23-2.78a15.79,15.79,0,0,0-.27-2.81l-.11.31c-.39.86-1.11,2.73-1.32,3.43s-.6,4.22-.6,4.22A.75.75,0,0,1,18,47a1.75,1.75,0,0,1-.53.23c-.6.17-.81-.17-.81-.17a36,36,0,0,1,.09-5.34,18.83,18.83,0,0,0,.5-2.79,27.61,27.61,0,0,0,0-3.44,2.93,2.93,0,0,1,.08-1,2.45,2.45,0,0,1,.28-.73s5.8.32,6,1.2a5.12,5.12,0,0,1,.12.85A21.34,21.34,0,0,1,23.68,39.76Z"/><path class="cls-122" d="M23.8,35.84a6.15,6.15,0,0,1-4.75-.26,8.81,8.81,0,0,1-1.64-1.06,2.45,2.45,0,0,1,.28-.73s5.8.32,6,1.2A5.12,5.12,0,0,1,23.8,35.84Z"/><path class="cls-120" d="M21.79,23.35a1.33,1.33,0,0,1-.4.17h-.06l-.11,0a.18.18,0,0,0-.09.08,6,6,0,0,0,0,.95l-.25-.09L19.31,24s0-.42,0-.8,0-2.45.46-2.81a2.9,2.9,0,0,1,2.16.06s.05.32.15.91S22.09,23.16,21.79,23.35Z"/><path class="cls-123" d="M21,23.73a.73.73,0,0,1,.25-.15.18.18,0,0,0-.09.08,6,6,0,0,0,0,.95l-.25-.09C20.86,24.26,20.84,23.84,21,23.73Z"/><path class="cls-124" d="M21.62,19.31c-.16.18-.74.23-.74.23a3.85,3.85,0,0,0-1.16.13,1.65,1.65,0,0,0-1.11,1.75,3.1,3.1,0,0,0,.45,1.21c.09.19.09.54.16.65a2.81,2.81,0,0,0,1.23.22,1.46,1.46,0,0,0,.4-.63c0-.17,0-.58,0-.73s.23-.33.33-.31.17.2.21.38.14.18.18.14,0-.49.05-.63a1.71,1.71,0,0,0,.07-.59c0-.41.11-.3.3-.54C22.6,20,21.94,18.94,21.62,19.31Z"/><path class="cls-62" d="M19.14,23.92l.18-.19s1.52.35,1.9.94"/><path class="cls-125" d="M23.42,30.84a7.9,7.9,0,0,0,.2,2.1,16.1,16.1,0,0,1,.24,2.8,2.53,2.53,0,0,1-.49.15,6.67,6.67,0,0,1-2.54,0,6.45,6.45,0,0,1-1.8-.58,11.18,11.18,0,0,1,0-1.27,10.75,10.75,0,0,0-.12,1.18,8.35,8.35,0,0,1-1.52-1,16.71,16.71,0,0,1,.5-2.69,3.26,3.26,0,0,0-.39-2.93c-.82-1.43-1.19-3.42-.33-4.26A1.44,1.44,0,0,1,18.77,24l.2-.22a9.74,9.74,0,0,1,2.6,1v.22l.08,0a4.59,4.59,0,0,1,2.17,1.69,11.82,11.82,0,0,1,1.41,3.85C25.32,31.34,24.05,31.83,23.42,30.84Z"/><path class="cls-126" d="M23.42,31.38a6.33,6.33,0,0,1-1.11-2.79s.34.86.61,1.39c.14.26.5.85.5.85A3.9,3.9,0,0,0,23.42,31.38Z"/><path class="cls-127" d="M20.27,38.83l-.11.31c-.39.86-1.11,2.73-1.32,3.43s-.6,4.22-.6,4.22A.75.75,0,0,1,18,47c.08-1,.31-3.61.43-4.14a7.1,7.1,0,0,1,.41-1.35c.2-.44,1.12-2.59.59-3.64a6.22,6.22,0,0,1-.55-1.68,3.39,3.39,0,0,0,1,1.57Z"/><path class="cls-128" d="M21.57,25v.11s-1.17-.51-1.81-.72A14.51,14.51,0,0,1,21.57,25Z"/></g></g></svg>