<?xml version="1.0" encoding="UTF-8"?>
<svg width="16px" height="16px" viewBox="0 0 16 16" version="1.1" xmlns="http://www.w3.org/2000/svg" xmlns:xlink="http://www.w3.org/1999/xlink">
    <title>编组 15</title>
    <g id="页面-1" stroke="none" stroke-width="1" fill="none" fill-rule="evenodd">
        <g id="上海银行运营可视化0305日历展开" transform="translate(-47.000000, -430.000000)">
            <g id="编组-15" transform="translate(47.000000, 430.000000)">
                <g id="编组-14">
                    <circle id="椭圆形备份-10" fill="#E9F0FF" cx="8.68571429" cy="8.68571429" r="7.31428571"></circle>
                    <g id="紧急事件备份" fill-rule="nonzero">
                        <path d="M2.74286309,7.4 C2.49017113,7.4 2.28571429,7.62510533 2.28571429,7.85714286 C2.28571429,8.08918039 2.49018599,8.31428571 2.74286309,8.31428571 L8.6857232,8.31428571 C8.9384003,8.31428571 9.14285714,8.08918039 9.14285714,7.85714286 C9.14285714,7.62510533 8.93838544,7.4 8.68570834,7.4 C8.68570834,7.4 2.74286309,7.4 2.74286309,7.4 Z" id="路径" fill="#84ACF8"></path>
                        <path d="M5.48570871,10.1428571 L2.74286272,10.1428571 C2.49017096,10.1428571 2.28571429,10.3679625 2.28571429,10.6 C2.28571429,10.8320375 2.49018582,11.0571429 2.74286272,11.0571429 L5.48570871,11.0571429 C5.73840046,11.0571429 5.94285714,10.8320375 5.94285714,10.6 C5.94285714,10.3679625 5.73838561,10.1428571 5.48570871,10.1428571 Z" id="路径" fill="#84ACF8"></path>
                        <path d="M4.69643014,12.3102052 L1.74820903,12.3102052 C1.28839882,12.3102052 0.914285708,11.9398457 0.914285708,11.484407 L0.914285708,1.77273591 C0.914285708,1.31729717 1.28838396,0.946937684 1.74820903,0.946937684 L10.1383968,0.946937684 C10.5973155,0.946937684 10.9714286,1.31729717 10.9714286,1.77273591 L10.9714286,6.84080918 C10.9714286,7.1025264 11.1759009,7.31428571 11.4285789,7.31428571 C11.6812568,7.31428571 11.8857143,7.10251101 11.8857143,6.84080918 L11.8857143,1.77273591 C11.8857143,0.795278664 11.1017946,0 10.1383968,0 L1.74820903,0 C0.783934572,0 0,0.795278664 0,1.77273591 L0,11.4844069 C0,12.4618642 0.783919717,13.2571429 1.74820903,13.2571429 L4.69643014,13.2571429 C4.94910806,13.2571429 5.15356557,13.0453835 5.15358043,12.7836817 C5.15358043,12.5219645 4.94910805,12.3102052 4.69643014,12.3102052 Z" id="路径" fill="#3057D6"></path>
                    </g>
                    <path d="M9.82857143,8.73142857 C8.57232031,8.73142857 7.43123949,9.33576402 6.42142455,10.5141634 L6.31081015,10.6461692 C6.04582851,10.9697721 6.04582768,11.4301911 6.30785829,11.750233 C7.34574068,13.0178935 8.5246125,13.6685714 9.82857143,13.6685714 C11.0848225,13.6685714 12.2259034,13.064236 13.2357183,11.8858366 L13.3463327,11.7538308 C13.6113144,11.4302279 13.6113152,10.9698089 13.3492846,10.649767 C12.3114022,9.38210649 11.1325304,8.73142857 9.82857143,8.73142857 Z M9.82857143,9.55428571 C10.8648955,9.55428571 11.8209383,10.0819732 12.712602,11.1710435 C12.7263991,11.1878952 12.7263991,11.2121384 12.7126019,11.2289901 L12.6079163,11.3539181 C11.7479887,12.3573674 10.8259126,12.8457143 9.82857143,12.8457143 C8.79224732,12.8457143 7.83620457,12.3180268 6.94454086,11.2289565 C6.93074372,11.2121048 6.93074376,11.1878616 6.94454096,11.1710099 L7.04922653,11.0460819 C7.90915415,10.0426326 8.83123023,9.55428571 9.82857143,9.55428571 Z" id="椭圆形备份-13" fill="#3057D6" fill-rule="nonzero"></path>
                    <circle id="椭圆形备份-18" fill="#84ACF8" cx="9.82857143" cy="11.2" r="1.14285714"></circle>
                </g>
                <path d="M4.17139614,7.10783201 L4.17139614,5.58229285 L4.37570942,5.58229285 C5.90805902,5.58229285 6.56186152,5.05107832 6.56186152,3.80476731 C6.56186152,2.53121453 5.89443814,2 4.30079455,2 C3.87173666,2 3.42224745,2.03405221 3,2.10215664 L3,7.10783201 L4.17139614,7.10783201 Z M4.51191827,4.6492622 C4.40976163,4.6492622 4.2599319,4.64245176 4.17139614,4.62883087 L4.17139614,2.98070375 C4.23269012,2.96708286 4.38251986,2.95346198 4.4846765,2.95346198 C5.15891033,2.95346198 5.36322361,3.17139614 5.36322361,3.80476731 C5.36322361,4.44494892 5.15209989,4.6492622 4.51191827,4.6492622 Z M9,7.10783201 L9,2.06810443 L8.12145289,2.06810443 L6.72531215,2.96708286 L6.69807037,3.12372304 L6.86833144,3.64812713 L7.01816118,3.64812713 L7.80136209,3.32122588 L7.82860386,3.32122588 L7.82860386,7.10783201 L9,7.10783201 Z" id="P1" fill="#FE7720" fill-rule="nonzero"></path>
            </g>
        </g>
    </g>
</svg>