<?xml version="1.0" encoding="UTF-8"?>
<svg width="16px" height="16px" viewBox="0 0 16 16" version="1.1" xmlns="http://www.w3.org/2000/svg" xmlns:xlink="http://www.w3.org/1999/xlink">
    <title>编组 9</title>
    <g id="页面-1" stroke="none" stroke-width="1" fill="none" fill-rule="evenodd">
        <g id="上海银行运营可视化0305日历展开" transform="translate(-178.000000, -430.000000)">
            <g id="编组-9" transform="translate(178.000000, 430.000000)">
                <circle id="椭圆形备份-19" fill="#E9F0FF" cx="8.68571429" cy="8.68571429" r="7.31428571"></circle>
                <g id="紧急事件" fill-rule="nonzero">
                    <path d="M2.74286309,7.4 C2.49017113,7.4 2.28571429,7.62510533 2.28571429,7.85714286 C2.28571429,8.08918039 2.49018599,8.31428571 2.74286309,8.31428571 L8.6857232,8.31428571 C8.9384003,8.31428571 9.14285714,8.08918039 9.14285714,7.85714286 C9.14285714,7.62510533 8.93838544,7.4 8.68570834,7.4 C8.68570834,7.4 2.74286309,7.4 2.74286309,7.4 Z" id="路径" fill="#84ACF8"></path>
                    <path d="M5.48570871,10.1428571 L2.74286272,10.1428571 C2.49017096,10.1428571 2.28571429,10.3679625 2.28571429,10.6 C2.28571429,10.8320375 2.49018582,11.0571429 2.74286272,11.0571429 L5.48570871,11.0571429 C5.73840046,11.0571429 5.94285714,10.8320375 5.94285714,10.6 C5.94285714,10.3679625 5.73838561,10.1428571 5.48570871,10.1428571 Z" id="路径" fill="#84ACF8"></path>
                    <path d="M4.69643014,12.3102052 L1.74820903,12.3102052 C1.28839882,12.3102052 0.914285708,11.9398457 0.914285708,11.484407 L0.914285708,1.77273591 C0.914285708,1.31729717 1.28838396,0.946937684 1.74820903,0.946937684 L10.1383968,0.946937684 C10.5973155,0.946937684 10.9714286,1.31729717 10.9714286,1.77273591 L10.9714286,6.84080918 C10.9714286,7.1025264 11.1759009,7.31428571 11.4285789,7.31428571 C11.6812568,7.31428571 11.8857143,7.10251101 11.8857143,6.84080918 L11.8857143,1.77273591 C11.8857143,0.795278664 11.1017946,0 10.1383968,0 L1.74820903,0 C0.783934572,0 0,0.795278664 0,1.77273591 L0,11.4844069 C0,12.4618642 0.783919717,13.2571429 1.74820903,13.2571429 L4.69643014,13.2571429 C4.94910806,13.2571429 5.15356557,13.0453835 5.15358043,12.7836817 C5.15358043,12.5219645 4.94910805,12.3102052 4.69643014,12.3102052 Z" id="路径" fill="#3057D6"></path>
                </g>
                <path d="M3.13675825,7.12888772 L3.13675825,5.68239325 L3.33048519,5.68239325 C4.78343722,5.68239325 5.40336342,5.17870322 5.40336342,3.9969689 C5.40336342,2.78940432 4.77052209,2.28571429 3.25945198,2.28571429 C2.85262541,2.28571429 2.42642615,2.31800211 2.02605714,2.38257775 L2.02605714,7.12888772 L3.13675825,7.12888772 Z M3.45963648,4.79770691 C3.36277301,4.79770691 3.22070659,4.79124934 3.13675825,4.77833421 L3.13675825,3.21560358 C3.19487633,3.20268846 3.33694275,3.18977333 3.43380622,3.18977333 C4.07310511,3.18977333 4.26683205,3.39641539 4.26683205,3.9969689 C4.26683205,4.60397997 4.06664755,4.79770691 3.45963648,4.79770691 Z M8.56757006,7.12888772 L8.56757006,6.16025303 L9.02605714,6.16025303 L9.02605714,5.35305746 L8.56757006,5.35305746 L8.56757006,4.11966263 L7.75391692,4.11966263 L7.51498703,5.35305746 L6.66258851,5.35305746 L6.66258851,5.3272272 L8.21886157,2.37612019 L8.16720105,2.35028993 L7.06941508,2.28571429 L5.55834497,5.46929362 L5.55834497,5.49512388 L5.67458113,6.16025303 L7.46332652,6.16025303 L7.46332652,7.12888772 L8.56757006,7.12888772 Z" id="P4" fill="#FE7720" fill-rule="nonzero"></path>
                <path d="M9.82857143,8.73142857 C8.57232031,8.73142857 7.43123949,9.33576402 6.42142455,10.5141634 L6.31081015,10.6461692 C6.04582851,10.9697721 6.04582768,11.4301911 6.30785829,11.750233 C7.34574068,13.0178935 8.5246125,13.6685714 9.82857143,13.6685714 C11.0848225,13.6685714 12.2259034,13.064236 13.2357183,11.8858366 L13.3463327,11.7538308 C13.6113144,11.4302279 13.6113152,10.9698089 13.3492846,10.649767 C12.3114022,9.38210649 11.1325304,8.73142857 9.82857143,8.73142857 Z M9.82857143,9.55428571 C10.8648955,9.55428571 11.8209383,10.0819732 12.712602,11.1710435 C12.7263991,11.1878952 12.7263991,11.2121384 12.7126019,11.2289901 L12.6079163,11.3539181 C11.7479887,12.3573674 10.8259126,12.8457143 9.82857143,12.8457143 C8.79224732,12.8457143 7.83620457,12.3180268 6.94454086,11.2289565 C6.93074372,11.2121048 6.93074376,11.1878616 6.94454096,11.1710099 L7.04922653,11.0460819 C7.90915415,10.0426326 8.83123023,9.55428571 9.82857143,9.55428571 Z" id="椭圆形" fill="#3057D6" fill-rule="nonzero"></path>
                <circle id="椭圆形" fill="#84ACF8" cx="9.82857143" cy="11.2" r="1.14285714"></circle>
            </g>
        </g>
    </g>
</svg>