<svg id="图层_1" data-name="图层 1" xmlns="http://www.w3.org/2000/svg" xmlns:xlink="http://www.w3.org/1999/xlink" viewBox="0 0 25 25.79"><defs><style>.cls-1{fill:none;}.cls-2{clip-path:url(#clip-path);}.cls-3{clip-path:url(#clip-path-2);}.cls-4{fill:#236696;opacity:0.61;}.cls-5{fill:url(#linear-gradient);}.cls-6{fill:url(#铃琨眄_沭噤桢眚_154);}.cls-7{opacity:0.18;fill:url(#未命名的渐变_33);}.cls-8{fill:url(#未命名的渐变_55);}.cls-9{fill:url(#linear-gradient-2);}.cls-10{fill:url(#铃琨眄_沭噤桢眚_11);}.cls-11{fill:url(#未命名的渐变_33-2);}.cls-12{fill:url(#未命名的渐变_55-2);}</style><clipPath id="clip-path"><circle class="cls-1" cx="-37.45" cy="-229.08" r="13.5"/></clipPath><clipPath id="clip-path-2"><circle class="cls-1" cx="20.55" cy="-229.08" r="13.5"/></clipPath><linearGradient id="linear-gradient" x1="6.16" y1="21.25" x2="18.7" y2="21.25" gradientUnits="userSpaceOnUse"><stop offset="0" stop-color="#00618e"/><stop offset="0.01" stop-color="#00618e"/><stop offset="0.37" stop-color="#006696"/><stop offset="0.94" stop-color="#0074ab"/><stop offset="0.99" stop-color="#0076ae"/><stop offset="1" stop-color="#0076ae"/></linearGradient><linearGradient id="铃琨眄_沭噤桢眚_154" x1="6.16" y1="20.42" x2="18.7" y2="20.42" gradientUnits="userSpaceOnUse"><stop offset="0" stop-color="#00d0ff"/><stop offset="1" stop-color="#007fd9"/></linearGradient><linearGradient id="未命名的渐变_33" x1="6.43" y1="12.93" x2="18.43" y2="12.93" gradientUnits="userSpaceOnUse"><stop offset="0.15" stop-color="#057bc4"/><stop offset="0.75" stop-color="#15389b"/></linearGradient><linearGradient id="未命名的渐变_55" x1="7.69" y1="10.88" x2="16.43" y2="10.88" gradientUnits="userSpaceOnUse"><stop offset="0" stop-color="#fe7720"/><stop offset="1" stop-color="#ffab14"/></linearGradient><linearGradient id="linear-gradient-2" x1="12.64" y1="4.69" x2="12.35" y2="21.27" gradientUnits="userSpaceOnUse"><stop offset="0" stop-color="#e83155"/><stop offset="1" stop-color="#ffdfb9"/></linearGradient><linearGradient id="铃琨眄_沭噤桢眚_11" x1="6.16" y1="5.6" x2="18.7" y2="5.6" gradientUnits="userSpaceOnUse"><stop offset="0" stop-color="#003286"/><stop offset="1" stop-color="#0085f2"/></linearGradient><linearGradient id="未命名的渐变_33-2" x1="6.16" y1="4.77" x2="18.7" y2="4.77" xlink:href="#未命名的渐变_33"/><linearGradient id="未命名的渐变_55-2" x1="12.85" y1="24.29" x2="12.26" y2="19.34" xlink:href="#未命名的渐变_55"/></defs><title>icon_画板 1 副本 12</title><path class="cls-4" d="M17.08,24.87a17.2,17.2,0,0,1-8.95,0c-2.48-.79-2.48-2.07,0-2.85a17.2,17.2,0,0,1,8.95,0c2.47.78,2.47,2.06,0,2.85"/><path class="cls-5" d="M8,18.69a3.71,3.71,0,0,0-1.67,1.73H6.16v.83A3.12,3.12,0,0,0,8,23.81a9.81,9.81,0,0,0,8.86,0,3.12,3.12,0,0,0,1.84-2.56v-.83h-.17a3.71,3.71,0,0,0-1.67-1.73,9,9,0,0,0-4.43-1.06A9,9,0,0,0,8,18.69"/><path class="cls-6" d="M16.86,23A9.81,9.81,0,0,1,8,23c-2.45-1.41-2.45-3.71,0-5.12a9.81,9.81,0,0,1,8.86,0c2.45,1.41,2.45,3.71,0,5.12"/><path class="cls-7" d="M18.2,19.26a1.8,1.8,0,0,0-.08-.21c0-.06,0-.13-.07-.2a1.72,1.72,0,0,0-.07-.21c0-.07-.05-.13-.07-.2a1.8,1.8,0,0,0-.08-.21,1.72,1.72,0,0,0-.07-.21c0-.06-.05-.13-.07-.2l-.08-.21a1.18,1.18,0,0,0-.07-.2c0-.07-.05-.14-.07-.21a1.8,1.8,0,0,0-.08-.21,1.18,1.18,0,0,0-.07-.2c0-.07-.05-.14-.07-.21a1.8,1.8,0,0,0-.08-.21,1.18,1.18,0,0,0-.07-.2A1.72,1.72,0,0,0,17,16a1.8,1.8,0,0,0-.08-.21,2.53,2.53,0,0,0-1.25-1.42l-.12-.07-.09-.06-.12-.07-.13-.08L15.15,14,15,13.92l-.11-.07-.11-.06-.12-.08h0l-.11-.06h0a.41.41,0,0,0-.11-.07h0l-.1-.07h0l-.1-.06h0l-.09-.06h0L14,13.31h0l-.09-.06,0,0-.09-.05h0l-.09-.06h0l-.08,0,0,0-.08,0,0,0,0,0,0,0h0l.08-.05,0,0,.08-.05,0,0,.09-.05h0l.09-.06h0l.1-.06h0l.09-.06h0l.1-.07h0l.1-.06h0l.1-.06h0l.11-.06h0l.11-.07h0l.12-.07.1-.06h0l.13-.08.1-.06.13-.08.1-.06.13-.08.08-.05.13-.07A2.57,2.57,0,0,0,17,10.11,1.8,1.8,0,0,0,17,9.9a1.18,1.18,0,0,0,.07-.2,1.72,1.72,0,0,0,.07-.21l.08-.2c0-.07.05-.14.07-.21a1.72,1.72,0,0,0,.07-.21,1.67,1.67,0,0,0,.08-.2c0-.07.05-.14.07-.21a1.72,1.72,0,0,0,.07-.21,1.67,1.67,0,0,0,.08-.2c0-.07,0-.14.07-.21s0-.14.07-.2a1.8,1.8,0,0,0,.08-.21c0-.07.05-.14.07-.21A1.72,1.72,0,0,0,18.05,7a1.18,1.18,0,0,0,.07-.2l.08-.2a1.72,1.72,0,0,0,.07-.21c.46-1.13-.07-2.37-1.6-3.25a9.32,9.32,0,0,0-8.48,0C6.66,4,6.13,5.27,6.59,6.4l.07.21c0,.06,0,.13.08.2A1.72,1.72,0,0,0,6.81,7c0,.06,0,.13.07.2A1.8,1.8,0,0,0,7,7.43a1.18,1.18,0,0,0,.07.2,1.72,1.72,0,0,0,.07.21,1.8,1.8,0,0,0,.08.21,1.59,1.59,0,0,0,.07.2,1.72,1.72,0,0,0,.07.21,1.8,1.8,0,0,0,.08.21,1.59,1.59,0,0,0,.07.2,1.72,1.72,0,0,0,.07.21,1.8,1.8,0,0,0,.08.21,1.59,1.59,0,0,0,.07.2,1.72,1.72,0,0,0,.07.21c0,.07,0,.14.07.2a1.8,1.8,0,0,0,.08.21,2.6,2.6,0,0,0,1.26,1.43l.11.07.09.05.14.09.09.05.13.08.1.06L10,12h0l.1.06.12.07h0l.11.07h0l.11.06h0l.11.06h0l.11.06h0l.1.07h0l.09.06h0l.09.06h0l.09.06h0l.09.05,0,0,.08.05,0,0,.08.05h0l.05,0,0,0,0,0-.08,0,0,0-.08,0h0l-.09.06h0l-.09.05,0,0-.09.06h0l-.09.06h0l-.09.06h0l-.11.06h0a.41.41,0,0,0-.11.07h0a.41.41,0,0,0-.11.07h0l-.11.06h0l-.12.08-.1.06-.12.07L9.71,14l-.09.06-.13.08-.12.07-.09.06a.41.41,0,0,0-.11.07,2.55,2.55,0,0,0-1.26,1.42,1.8,1.8,0,0,0-.08.21l-.07.21a1.18,1.18,0,0,0-.07.2,1.72,1.72,0,0,0-.07.21,1.8,1.8,0,0,0-.08.21,1.18,1.18,0,0,0-.07.2,1.72,1.72,0,0,0-.07.21,1.8,1.8,0,0,0-.08.21,1.18,1.18,0,0,0-.07.2,1.72,1.72,0,0,0-.07.21A1.8,1.8,0,0,0,7.1,18a1.18,1.18,0,0,0-.07.2,1.72,1.72,0,0,0-.07.21,1.19,1.19,0,0,0-.08.2,1.72,1.72,0,0,0-.07.21,1.72,1.72,0,0,0-.07.21,1.19,1.19,0,0,0-.08.2c0,.07,0,.14-.07.21-.46,1.13.07,2.37,1.6,3.25a9.38,9.38,0,0,0,8.48,0c1.53-.88,2.06-2.12,1.6-3.25A1.72,1.72,0,0,0,18.2,19.26Z"/><path class="cls-8" d="M16.43,10.05h0a2.11,2.11,0,0,1-1.06,1.16l-3,1.8h-.08L9.38,11.23a2.16,2.16,0,0,1-1.06-1.17V10s-.46-.88-.61-1.28A8.69,8.69,0,0,0,16.43,10.05Z"/><rect class="cls-9" x="12.18" y="12.76" width="0.51" height="8.03"/><path class="cls-10" d="M8,3A3.71,3.71,0,0,0,6.33,4.77H6.16V5.6A3.12,3.12,0,0,0,8,8.16a9.81,9.81,0,0,0,8.86,0A3.12,3.12,0,0,0,18.7,5.6V4.77h-.17A3.71,3.71,0,0,0,16.86,3,9,9,0,0,0,12.43,2,9,9,0,0,0,8,3"/><path class="cls-11" d="M16.86,7.33A9.81,9.81,0,0,1,8,7.33C5.55,5.92,5.55,3.63,8,2.21a9.81,9.81,0,0,1,8.86,0c2.45,1.42,2.45,3.71,0,5.12"/><path class="cls-12" d="M18.21,20.92c0,1.36-2.63,2.85-5.87,2.81s-5.65-1.45-5.65-2.81S9.22,20,12.4,20,18.21,19.57,18.21,20.92Z"/></svg>